<svg xmlns="http://www.w3.org/2000/svg" xml:space="preserve" width="60" height="60" style="enable-background:new 0 0 60 60"><path d="M16 57h14V38H16v19zm2-17h10v15H18V40zM41 33a.997.997 0 0 0 .707-.293l4-4a.999.999 0 1 0-1.414-1.414l-4 4A.999.999 0 0 0 41 33zM41 38a.997.997 0 0 0 .707-.293l2-2a.999.999 0 1 0-1.414-1.414l-2 2A.999.999 0 0 0 41 38zM44.29 32.29c-.181.189-.29.439-.29.71 0 .26.109.52.29.71.189.18.45.29.71.29s.52-.11.71-.29c.18-.19.29-.45.29-.71s-.11-.521-.29-.71c-.38-.37-1.05-.37-1.42 0zM46.293 31.707a.997.997 0 0 0 1.414 0l3-3a.999.999 0 1 0-1.414-1.414l-3 3a.999.999 0 0 0 0 1.414zM49.293 32.293l-9 9a.999.999 0 1 0 1.414 1.414l9-9a.999.999 0 1 0-1.414-1.414zM51.29 31.71c.189.18.45.29.71.29.27 0 .52-.11.71-.29.18-.19.29-.45.29-.71 0-.271-.11-.521-.29-.71-.37-.37-1.04-.37-1.42 0-.181.189-.29.439-.29.71 0 .26.109.52.29.71z"/><path d="M59.909 11.709a1.271 1.271 0 0 0-.044-.324l-.146.042c-.002-.003-.003-.006-.006-.008l.149-.044A15.434 15.434 0 0 0 47 .14V0H29v.001H14.998C8.069.013 1.959 4.689.142 11.362a1.292 1.292 0 0 0-.045.338 1.155 1.155 0 0 0-.097.46V60h60V12.16c0-.16-.032-.312-.091-.451zM45.93 2.04A13.437 13.437 0 0 1 57.654 11H44.796a14.373 14.373 0 0 0-6.661-9h6.841l.954.04zM43 14c0 .824-.167 1.61-.469 2.325l-.07.146c-.016.036-.034.071-.051.107a5.964 5.964 0 0 1-.933 1.403l-.009.01a6.035 6.035 0 0 1-3.53 1.928c-.052.008-.104.017-.157.024-.258.035-.518.057-.781.057s-.526-.023-.787-.058c-.055-.007-.11-.016-.165-.025-.25-.041-.5-.093-.745-.165l-.032-.008-.086-.026A6.01 6.01 0 0 1 31 14v-1h12v1zm9.795 7.96.056-.006c.087-.009.171-.027.257-.039.155-.022.311-.041.464-.071l.104-.023c.097-.021.191-.049.286-.073.121-.031.243-.058.362-.094.05-.015.098-.032.147-.048.097-.032.191-.069.287-.104.08-.029.162-.052.241-.085V49H36V21.937c.019.002.038 0 .057.003.31.036.623.06.943.06.051 0 .1-.007.15-.008l.098-.005c.252-.008.501-.025.747-.056.094-.012.187-.028.28-.043.247-.04.489-.091.728-.153.083-.021.166-.04.248-.064.307-.09.607-.195.898-.32.045-.019.086-.043.13-.063a8.045 8.045 0 0 0 1.573-.944c.055-.042.113-.081.167-.125.243-.196.473-.406.692-.629.049-.05.094-.104.142-.156a8.373 8.373 0 0 0 .648-.791c.142-.198.274-.403.398-.614.006-.011.015-.02.021-.031h.16l.025.037a8.185 8.185 0 0 0 .585.862c.145.186.297.364.457.536.048.052.093.106.142.156.218.223.449.433.692.629.052.042.107.079.16.12a7.849 7.849 0 0 0 .622.432c.079.049.157.098.238.145.233.135.473.26.721.372.044.02.086.044.13.063.29.125.591.23.898.32l.163.046c.028.008.058.011.086.018.238.062.48.113.727.152.069.011.136.028.206.038.03.004.061.004.092.008.32.041.644.068.976.068h1c.267 0 .532-.014.795-.04zM28 20.239V34H18V20.239l.006.005c.028.022.057.041.085.063.073.057.15.111.225.165a7.869 7.869 0 0 0 .674.44c.047.027.092.057.139.084.118.065.24.122.361.182.089.044.177.09.268.13.031.014.061.03.093.044.097.042.198.075.297.113a7.919 7.919 0 0 0 .762.253c.087.024.176.043.264.064a8.193 8.193 0 0 0 .62.122c.07.011.141.02.212.029.082.01.163.023.246.031a7.781 7.781 0 0 0 1.498-.002c.083-.008.164-.021.246-.031.071-.009.141-.018.212-.029.089-.014.178-.028.267-.045a6.92 6.92 0 0 0 .353-.077c.088-.021.177-.04.264-.064a9.72 9.72 0 0 0 .457-.141c.103-.035.204-.073.305-.112.099-.038.2-.071.297-.113l.093-.044c.091-.04.179-.087.268-.131.121-.059.243-.116.36-.181.047-.026.093-.057.139-.084a7.869 7.869 0 0 0 .673-.44c.075-.055.152-.108.225-.165.028-.022.058-.041.085-.063l.006-.003zM17 13h12v1a5.967 5.967 0 0 1-1.022 3.346l-.013.018c-.032.047-.069.091-.103.137a5.857 5.857 0 0 1-.346.436c-.04.046-.082.091-.123.135a6.048 6.048 0 0 1-.369.365c-.039.035-.076.071-.116.105a6.04 6.04 0 0 1-1.126.768l-.051.025a6.339 6.339 0 0 1-.695.301 6.392 6.392 0 0 1-.674.202c-.168.039-.339.07-.511.094-.056.008-.111.019-.168.026-.225.026-.453.042-.683.042s-.458-.016-.683-.042c-.057-.006-.112-.018-.168-.026a6.212 6.212 0 0 1-.511-.094c-.057-.013-.113-.029-.17-.044a5.776 5.776 0 0 1-.504-.158l-.137-.05a5.802 5.802 0 0 1-.558-.251c-.017-.009-.035-.016-.051-.025a6.04 6.04 0 0 1-1.126-.768c-.04-.034-.077-.07-.116-.105a6.048 6.048 0 0 1-.838-.936c-.033-.046-.07-.09-.103-.137l-.013-.018A5.967 5.967 0 0 1 17 14v-1zM31 2.001A12.39 12.39 0 0 1 42.742 11H31V2.001zM29 11H17.258A12.39 12.39 0 0 1 29 2.001V11zM15.023 2h6.841a14.373 14.373 0 0 0-6.661 9H2.348c1.864-5.334 6.94-8.989 12.675-9zM2 13h13v1a6.01 6.01 0 0 1-4.185 5.718l-.086.026-.032.008a5.97 5.97 0 0 1-.745.165c-.055.009-.109.018-.165.025A5.929 5.929 0 0 1 9 20H8a5.943 5.943 0 0 1-1.007-.092 5.823 5.823 0 0 1-.786-.183l-.01-.004a5.931 5.931 0 0 1-.756-.303c-.046-.022-.092-.043-.137-.066A5.992 5.992 0 0 1 2 14v-1zm3 8.416c.079.032.161.055.241.085.096.035.19.072.287.104.049.016.097.033.147.048.12.036.241.063.362.094.095.024.189.052.286.073l.104.023c.153.031.309.05.464.071.086.012.17.03.257.039.019.002.037.005.056.006.264.027.529.041.796.041h1c.316 0 .627-.023.934-.059.022-.003.044-.001.066-.004V49H5V21.416zM2 54h3v4H2v-4zm7 0v4H7v-4h2zm2 4v-4h2v4h-2zm44-4v4h-2v-4h2zm-4 4h-2v-4h2v4zm-4 0h-2v-4h2v4zm-4 0h-2v-4h2v4zm-4 0h-2v-4h2v4zm-4 0h-2v-4h2v4zm23 0h-1v-4h1v4zm0-38.714V52H31v6H15v-6H2V19.286c.05.057.108.108.16.163.102.109.205.217.313.321.086.083.175.162.265.241.086.075.172.152.262.224V51h9V21.411c.05-.02.1-.038.149-.059.045-.019.086-.043.13-.063a8.045 8.045 0 0 0 1.573-.944c.055-.042.113-.081.167-.125.243-.196.473-.406.692-.629.049-.05.094-.104.142-.156a8.373 8.373 0 0 0 .648-.791 7.92 7.92 0 0 0 .437-.679c.019-.033.043-.063.062-.096V36h14V17.87c.019.033.043.063.062.096a8.17 8.17 0 0 0 1.085 1.47c.048.052.093.106.142.156.218.223.449.433.692.629.054.044.112.083.167.125.198.152.402.294.614.427.079.049.157.098.238.145.233.135.473.26.721.372.044.02.086.044.13.063.049.021.1.039.149.059V51h23V20.235c.09-.072.175-.148.262-.224a7.57 7.57 0 0 0 .265-.241c.108-.104.211-.211.313-.321.052-.055.11-.106.16-.163zm-2.587-.357c-.23.16-.47.299-.716.424-.045.023-.091.044-.137.066a5.931 5.931 0 0 1-.756.303l-.01.004a5.858 5.858 0 0 1-.979.213c-.269.036-.54.061-.815.061h-1c-.263 0-.523-.022-.781-.057-.053-.007-.105-.016-.157-.024a6.046 6.046 0 0 1-3.53-1.928l-.009-.01a5.964 5.964 0 0 1-.933-1.403c-.017-.036-.035-.071-.051-.107l-.07-.146A5.963 5.963 0 0 1 45 14v-1h13v1a5.996 5.996 0 0 1-2.587 4.929z"/><path d="M13 23h2v27h-2zM31 23h2v27h-2z"/></svg>