<svg xmlns="http://www.w3.org/2000/svg" xml:space="preserve" style="enable-background:new 0 0 60 60"><path d="M38.666 26.923c-.386.376-.6.88-.604 1.419a1.988 1.988 0 0 0 .586 1.427l1.246 1.246a2.22 2.22 0 0 0 1.141.61c.084.418.286.817.609 1.14l1.079 1.078c.422.423.984.655 1.582.655s1.16-.232 1.582-.655l8.856-8.856a2.239 2.239 0 0 0 0-3.164l-1.078-1.078a2.224 2.224 0 0 0-1.138-.609 2.227 2.227 0 0 0-.612-1.141l-1.247-1.248c-.377-.377-.892-.612-1.434-.588a1.95 1.95 0 0 0-1.394.589l-9.917-9.882c.386-.376.6-.88.604-1.419s-.205-1.046-.586-1.427l-1.246-1.246a2.174 2.174 0 0 0-1.137-.591 2.222 2.222 0 0 0-.613-1.159L33.867.946c-.844-.845-2.319-.847-3.165 0l-8.856 8.855a2.22 2.22 0 0 0-.655 1.582c0 .599.232 1.16.655 1.583l1.078 1.078c.316.316.71.526 1.139.612.086.428.295.822.611 1.138l1.246 1.246c.375.375.893.59 1.423.59h.012a1.949 1.949 0 0 0 1.394-.59l1.596 1.597c.29.289.29.761 0 1.05l-7.253 7.253-.708-.708c-1.171-1.169-3.074-1.169-4.243.001s-1.169 3.073 0 4.243l.707.707-9.068 9.068a4.13 4.13 0 0 1-1.914 1.084l-2.906.726a6.135 6.135 0 0 0-2.843 1.61l-.326.325C.637 45.154 0 46.69 0 48.324s.637 3.173 1.793 4.329l1.243 1.242a6.084 6.084 0 0 0 4.328 1.793 6.085 6.085 0 0 0 4.329-1.793l.325-.325a6.115 6.115 0 0 0 1.61-2.844l.726-2.905a4.122 4.122 0 0 1 1.084-1.914l9.068-9.068.707.707c1.134 1.133 3.11 1.132 4.242.001.567-.566.879-1.32.879-2.122 0-.801-.312-1.555-.879-2.121l-.707-.707 7.253-7.253a.743.743 0 0 1 1.05-.001l1.615 1.58zm14.733-3.518c0 .045-.012.11-.069.168l-8.856 8.856c-.115.115-.221.115-.335 0l-1.079-1.078a.237.237 0 0 1 0-.336l8.856-8.856a.237.237 0 0 1 .168-.069c.061 0 .122.023.168.069l1.078 1.078a.233.233 0 0 1 .069.168zM23.19 11.383c0-.045.012-.11.069-.168l8.856-8.855c.058-.058.123-.069.168-.069s.11.012.168.069l1.078 1.078a.237.237 0 0 1 0 .336l-8.856 8.856a.238.238 0 0 1-.336 0l-1.078-1.078a.235.235 0 0 1-.069-.169zm11.398 12.546-8.667 8.668 2.121 2.121c.189.189.293.44.293.707a.991.991 0 0 1-.293.707 1.021 1.021 0 0 1-1.414 0l-2.122-2.121-10.482 10.482a6.116 6.116 0 0 0-1.61 2.844l-.726 2.905a4.117 4.117 0 0 1-1.084 1.914l-.325.325a4.097 4.097 0 0 1-2.915 1.208 4.153 4.153 0 0 1-2.914-1.207L3.208 51.24C2.429 50.46 2 49.425 2 48.324s.429-2.135 1.207-2.914l.325-.325A4.14 4.14 0 0 1 5.447 44l2.906-.726a6.127 6.127 0 0 0 2.843-1.609l10.483-10.482-2.122-2.121a1.002 1.002 0 0 1 .707-1.707c.256 0 .512.098.708.292l2.121 2.121 8.667-8.667a2.746 2.746 0 0 0 0-3.878l-1.596-1.597a1.986 1.986 0 0 0-1.414-.586h-.013a1.97 1.97 0 0 0-1.402.586l-1.246-1.246a.23.23 0 0 1-.069-.168c0-.045.012-.11.069-.168l8.857-8.856c.114-.115.22-.115.335 0l1.246 1.246a1.948 1.948 0 0 0-.589 1.395 2.022 2.022 0 0 0 .59 1.434l9.899 9.899c.378.378.88.586 1.414.586h.013a1.968 1.968 0 0 0 1.401-.586l1.247 1.248a.23.23 0 0 1 .069.166.235.235 0 0 1-.069.169l-8.857 8.856v.001a.239.239 0 0 1-.335-.001l-1.245-1.247a1.95 1.95 0 0 0 .588-1.394 2.027 2.027 0 0 0-.589-1.435l-1.597-1.597a2.75 2.75 0 0 0-3.879.001zM53 51.689h-9c-3.86 0-7 3.141-7 7v1h23v-1c0-3.86-3.14-7-7-7zm-13.899 6a5.009 5.009 0 0 1 4.899-4h9a5.008 5.008 0 0 1 4.899 4H39.101zM42 48.689a1 1 0 1 0 0 2h13a1 1 0 1 0 0-2H42z"/></svg>