<svg xmlns="http://www.w3.org/2000/svg" xml:space="preserve" id="Layer_1" x="0" y="0" version="1.1"><style>.st1{fill:#2e3e98}</style><path d="M64.8 21.2H54V24c0 17.1-11.8 26.8-28.9 26.8C9.4 50.9 0 42.1 0 29.3c0-10.5 6.6-16.7 17.4-16.7 7.3 0 13.6 3.8 13.6 10.8 0 10.7-11.6 14.6-18.3 16 2.5 2.3 6.5 3.5 12.3 3.5 11.8 0 19.5-6.3 19.5-18.8v-2.8H33.8v-7.7h31v7.6zM9.3 33c3.4-.6 12.3-2.7 12.3-8.9 0-3.1-2.8-4.2-4.9-4.2C12.5 19.9 9 23 9 29c.1 1.4.1 2.7.3 4zM91.2 49.8H78.8L66.5 13.6H77l8.4 27.5 8.4-27.5h9.9L91.2 49.8zM103.9 24.7c.6-9.3 8-12.2 16.4-12.2 8.7 0 15.7 3.1 15.7 12.5v24.7h-9.8v-7h-.3s-2.2 8-11.5 8c-6.6 0-11.5-3.1-11.5-9.8 0-6.8 5.6-9.8 11.6-11.4 6.1-1.5 11.8-2 11.8-6.1 0-2.9-2.1-4.5-5.9-4.5-4.2 0-6.5 1.7-6.6 5.6h-9.9zm14.6 9.8c-3.1.8-5.8 2.4-5.8 5.6 0 2.8 2 4.5 5.1 4.5 6.6 0 8.4-7.7 8.4-13-1.6 1.4-4.9 2.2-7.7 2.9zM139.4 13.6h9.8v7.7h4.9c4.2 0 5.6 0 5.6-4.5v-3.1h9.8v4.2c0 8-2.8 10.4-12.9 10.4h-7.3v21.6h-9.8V13.6zM177 0c3.1 0 5.6 2.5 5.6 5.6s-2.5 5.6-5.6 5.6c-3.1 0-5.6-2.5-5.6-5.6S174 0 177 0zm4.9 49.8h-9.8V13.6h9.8v36.2zM185.7 24.7c.6-9.3 8-12.2 16.4-12.2 8.7 0 15.7 3.1 15.7 12.5v24.7H208v-7h-.3s-2.2 8-11.5 8c-6.6 0-11.5-3.1-11.5-9.8 0-6.8 5.6-9.8 11.6-11.4 6.1-1.5 11.8-2 11.8-6.1 0-2.9-2.1-4.5-5.9-4.5-4.2 0-6.5 1.7-6.6 5.6h-9.9zm14.7 9.8c-3.1.8-5.8 2.4-5.8 5.6 0 2.8 2 4.5 5.1 4.5 6.6 0 8.4-7.7 8.4-13-1.7 1.4-4.9 2.2-7.7 2.9zM221.3 13.6h9.4v5.9h.3s3.1-7 11.1-7c10.1 0 12.9 6.6 12.9 15v22.3h-9.8V29.6c0-6.3-1.7-9.1-6.3-9.1-5.2 0-8 3.1-8 10.4v18.8h-9.8V13.6zM289.5 13.6v7.7h-11.8v17.1c0 3.1 1 4.2 4.2 4.2 2.1 0 3.1-.3 3.1-.3v7.3s-1.7.7-5.9.7c-6.6 0-11.1-1.7-11.1-10.1v-19h-11.1v-7.7h32.6z" class="st1"/></svg>