<?xml version="1.0" encoding="utf-8"?>
<!-- Generator: Adobe Illustrator 22.0.0, SVG Export Plug-In . SVG Version: 6.00 Build 0)  -->
<svg version="1.1" id="Layer_1" xmlns="http://www.w3.org/2000/svg" xmlns:xlink="http://www.w3.org/1999/xlink" x="0px" y="0px"
	 viewBox="0 0 64.8 38.3" style="enable-background:new 0 0 64.8 38.3;" xml:space="preserve">
<style type="text/css">
	.st0{fill:#EEEFE2;}
	.st1{fill:#2E3E98;}
	.st2{fill:#141414;}
</style>
<g>
	<path class="st1" d="M64.8,8.7H54v2.8c0,17.1-11.8,26.8-28.9,26.8C9.4,38.3,0,29.6,0,16.7C0,6.3,6.6,0,17.4,0
		C24.7,0,31,3.8,31,10.8c0,10.7-11.6,14.6-18.3,16c2.5,2.3,6.5,3.5,12.3,3.5c11.8,0,19.5-6.3,19.5-18.8V8.7H33.8V1h31V8.7z
		 M9.3,20.4c3.4-0.6,12.3-2.7,12.3-8.9c0-3.1-2.8-4.2-4.9-4.2c-4.2,0-7.7,3.1-7.7,9.1C9.1,17.8,9.1,19.2,9.3,20.4z"/>
</g>
</svg>
