<svg aria-hidden="true" style="position: absolute; width: 0; height: 0; overflow: hidden;" version="1.1" xmlns="http://www.w3.org/2000/svg" xmlns:xlink="http://www.w3.org/1999/xlink">
<defs>
<symbol id="icon-mobile1" viewBox="0 0 16 16">
<path fill="#2e3e98" style="fill: var(--color1, #2e3e98)" d="M11.281 0.5h-6.563c-0.773 0-1.406 0.633-1.406 1.406v12.188c0 0.773 0.633 1.406 1.406 1.406h6.563c0.773 0 1.406-0.633 1.406-1.406v-12.188c0-0.773-0.633-1.406-1.406-1.406zM6.125 1.203h3.75v0.469h-3.75v-0.469zM8 14.563c-0.006 0-0.014 0-0.021 0-0.518 0-0.938-0.42-0.938-0.938s0.42-0.938 0.938-0.938c0.007 0 0.015 0 0.022 0l-0.001-0c0.509 0.012 0.917 0.427 0.917 0.937s-0.408 0.925-0.915 0.937l-0.001 0zM11.75 11.75h-7.5v-9.375h7.5v9.375z"></path>
</symbol>
<symbol id="icon-mail4" viewBox="0 0 16 16">
<path fill="#2e3e98" style="fill: var(--color1, #2e3e98)" d="M8 0c-4.418 0-8 3.582-8 8s3.582 8 8 8 8-3.582 8-8-3.582-8-8-8zM4 4h8c0.143 0 0.281 0.030 0.409 0.088l-4.409 5.143-4.409-5.144c0.127-0.058 0.265-0.088 0.409-0.088zM3 11v-6c0-0.021 0.001-0.042 0.002-0.063l2.932 3.421-2.9 2.9c-0.022-0.078-0.034-0.167-0.034-0.258v-0zM12 12h-8c-0.088 0-0.175-0.012-0.259-0.034l2.845-2.845 1.413 1.649 1.413-1.649 2.845 2.845c-0.084 0.023-0.17 0.034-0.258 0.034zM13 11c0 0.088-0.012 0.175-0.034 0.258l-2.9-2.9 2.933-3.421c0.002 0.021 0.002 0.042 0.002 0.063v6z"></path>
</symbol>
<symbol id="icon-Building" viewBox="0 0 16 16">
<path d="M4.267 15.2h3.733v-5.067h-3.733v5.067zM4.8 10.667h2.667v4h-2.667v-4zM10.933 8.8c0 0 0 0 0 0 0.074 0 0.14-0.030 0.188-0.078v0l1.067-1.067c0.048-0.048 0.078-0.115 0.078-0.189 0-0.147-0.119-0.267-0.267-0.267-0.074 0-0.14 0.030-0.189 0.078v0l-1.067 1.067c-0.048 0.048-0.078 0.115-0.078 0.189 0 0.147 0.119 0.266 0.266 0.266 0 0 0 0 0.001 0h-0zM10.933 10.133c0 0 0 0 0 0 0.074 0 0.14-0.030 0.188-0.078v0l0.533-0.533c0.048-0.048 0.078-0.115 0.078-0.189 0-0.147-0.119-0.267-0.267-0.267-0.074 0-0.14 0.030-0.189 0.078v0l-0.533 0.533c-0.048 0.048-0.078 0.115-0.078 0.189 0 0.147 0.119 0.266 0.266 0.266 0 0 0 0 0.001 0h-0zM11.811 8.611c-0.048 0.050-0.077 0.117-0.077 0.189 0 0.069 0.029 0.139 0.077 0.189 0.050 0.048 0.12 0.077 0.189 0.077s0.139-0.029 0.189-0.077c0.048-0.051 0.077-0.12 0.077-0.189s-0.029-0.139-0.077-0.189c-0.101-0.099-0.28-0.099-0.379 0zM12.345 8.455c0.048 0.048 0.115 0.078 0.189 0.078s0.14-0.030 0.189-0.078l0.8-0.8c0.048-0.048 0.078-0.115 0.078-0.189 0-0.147-0.119-0.267-0.267-0.267-0.074 0-0.14 0.030-0.189 0.078v0l-0.8 0.8c-0.048 0.048-0.078 0.115-0.078 0.189s0.030 0.14 0.078 0.189v0zM13.145 8.611l-2.4 2.4c-0.048 0.048-0.078 0.115-0.078 0.189 0 0.147 0.119 0.267 0.267 0.267 0.074 0 0.14-0.030 0.189-0.078v0l2.4-2.4c0.048-0.048 0.078-0.115 0.078-0.189 0-0.147-0.119-0.267-0.267-0.267-0.074 0-0.14 0.030-0.189 0.078v0zM13.677 8.456c0.050 0.048 0.12 0.077 0.189 0.077 0.072 0 0.139-0.029 0.189-0.077 0.048-0.051 0.077-0.12 0.077-0.189 0-0.072-0.029-0.139-0.077-0.189-0.099-0.099-0.277-0.099-0.379 0-0.048 0.050-0.077 0.117-0.077 0.189 0 0.069 0.029 0.139 0.077 0.189z"></path>
<path d="M15.976 3.122c-0-0.031-0.004-0.061-0.012-0.089l0.001 0.002-0.039 0.011c-0.001-0.001-0.001-0.002-0.002-0.002l0.040-0.012c-0.443-1.586-1.773-2.77-3.409-2.994l-0.021-0.002v-0.037l-8.534 0c-1.848 0.003-3.477 1.25-3.962 3.030-0.008 0.027-0.012 0.058-0.012 0.090v0c-0.016 0.036-0.026 0.078-0.026 0.123v12.757h16v-12.757c0-0.043-0.009-0.083-0.024-0.12zM12.248 0.544c1.449 0.107 2.651 1.061 3.119 2.364l0.008 0.025h-3.429c-0.254-1.028-0.896-1.874-1.759-2.39l-0.017-0.010h1.824l0.254 0.011zM11.467 3.733c0 0.22-0.045 0.429-0.125 0.62l-0.019 0.039c-0.004 0.010-0.009 0.019-0.014 0.029-0.069 0.143-0.152 0.266-0.25 0.376l0.001-0.002-0.002 0.003c-0.24 0.266-0.565 0.452-0.932 0.513l-0.009 0.001c-0.014 0.002-0.028 0.005-0.042 0.006-0.069 0.009-0.138 0.015-0.208 0.015s-0.14-0.006-0.21-0.015c-0.015-0.002-0.029-0.004-0.044-0.007-0.067-0.011-0.133-0.025-0.199-0.044l-0.009-0.002-0.023-0.007c-0.652-0.212-1.115-0.814-1.116-1.525v-0.267h3.2v0.267zM14.079 5.856l0.015-0.002c0.023-0.002 0.046-0.007 0.069-0.010 0.041-0.006 0.083-0.011 0.124-0.019l0.028-0.006c0.026-0.006 0.051-0.013 0.076-0.019 0.032-0.008 0.065-0.015 0.097-0.025 0.013-0.004 0.026-0.009 0.039-0.013 0.026-0.009 0.051-0.018 0.077-0.028 0.021-0.008 0.043-0.014 0.064-0.023v7.355h-5.066v-7.217c0.005 0.001 0.010 0 0.015 0.001 0.083 0.010 0.166 0.016 0.251 0.016 0.014 0 0.027-0.002 0.040-0.002l0.026-0.001c0.067-0.002 0.134-0.007 0.199-0.015 0.025-0.003 0.050-0.007 0.075-0.011 0.066-0.011 0.13-0.024 0.194-0.041 0.022-0.006 0.044-0.011 0.066-0.017 0.082-0.024 0.162-0.052 0.239-0.085 0.012-0.005 0.023-0.011 0.035-0.017 0.16-0.073 0.298-0.158 0.424-0.255l-0.005 0.004c0.015-0.011 0.030-0.022 0.045-0.033 0.065-0.052 0.126-0.108 0.185-0.168 0.013-0.013 0.025-0.028 0.038-0.042 0.059-0.064 0.116-0.133 0.168-0.205l0.004-0.006c0.038-0.053 0.073-0.107 0.106-0.164 0.002-0.003 0.004-0.005 0.006-0.008h0.043l0.007 0.010c0.052 0.088 0.104 0.163 0.16 0.235l-0.004-0.005c0.039 0.050 0.079 0.097 0.122 0.143 0.013 0.014 0.025 0.028 0.038 0.042 0.058 0.059 0.12 0.115 0.185 0.168 0.014 0.011 0.029 0.021 0.043 0.032 0.047 0.037 0.101 0.075 0.157 0.11l0.009 0.005c0.021 0.013 0.042 0.026 0.063 0.039 0.062 0.036 0.126 0.069 0.192 0.099 0.012 0.005 0.023 0.012 0.035 0.017 0.077 0.033 0.158 0.061 0.239 0.085l0.043 0.012c0.007 0.002 0.015 0.003 0.023 0.005 0.063 0.017 0.128 0.030 0.194 0.041 0.018 0.003 0.036 0.007 0.055 0.010 0.008 0.001 0.016 0.001 0.025 0.002 0.085 0.011 0.172 0.018 0.26 0.018h0.267c0.071 0 0.142-0.004 0.212-0.011zM7.467 5.397v3.67h-2.667v-3.67l0.002 0.001c0.007 0.006 0.015 0.011 0.023 0.017 0.019 0.015 0.040 0.030 0.060 0.044 0.051 0.037 0.109 0.076 0.17 0.112l0.010 0.005c0.013 0.007 0.025 0.015 0.037 0.022 0.031 0.017 0.064 0.033 0.096 0.049 0.024 0.012 0.047 0.024 0.071 0.035 0.008 0.004 0.016 0.008 0.025 0.012 0.026 0.011 0.053 0.020 0.079 0.030 0.052 0.021 0.119 0.044 0.188 0.064l0.015 0.004c0.023 0.006 0.047 0.011 0.070 0.017 0.040 0.010 0.096 0.022 0.153 0.031l0.013 0.002c0.019 0.003 0.038 0.005 0.057 0.008 0.022 0.003 0.043 0.006 0.066 0.008 0.059 0.006 0.128 0.009 0.197 0.009 0.071 0 0.142-0.004 0.211-0.011l-0.009 0.001c0.022-0.002 0.044-0.006 0.066-0.008 0.019-0.002 0.038-0.005 0.057-0.008 0.024-0.004 0.047-0.007 0.071-0.012 0.044-0.008 0.075-0.015 0.107-0.023l-0.013 0.003c0.023-0.006 0.047-0.011 0.070-0.017 0.059-0.016 0.1-0.029 0.14-0.043l-0.018 0.005c0.027-0.009 0.054-0.019 0.081-0.030s0.053-0.019 0.079-0.030l0.025-0.012c0.024-0.011 0.048-0.023 0.071-0.035 0.032-0.016 0.065-0.031 0.096-0.048 0.013-0.007 0.025-0.015 0.037-0.022 0.070-0.041 0.129-0.080 0.185-0.121l-0.006 0.004c0.020-0.015 0.041-0.029 0.060-0.044 0.007-0.006 0.015-0.011 0.023-0.017l0.002-0.001zM4.533 3.467h3.2v0.267c0 0.001 0 0.001 0 0.002 0 0.332-0.102 0.641-0.276 0.896l0.004-0.005-0.003 0.005c-0.009 0.013-0.018 0.024-0.027 0.037-0.032 0.044-0.062 0.082-0.094 0.118l0.002-0.002c-0.011 0.012-0.022 0.024-0.033 0.036-0.032 0.034-0.064 0.066-0.097 0.096l-0.001 0.001c-0.010 0.009-0.020 0.019-0.031 0.028-0.088 0.076-0.186 0.144-0.292 0.201l-0.022 0.011c-0.050 0.026-0.111 0.053-0.174 0.076l-0.012 0.004c-0.047 0.018-0.107 0.036-0.168 0.051l-0.012 0.002c-0.045 0.010-0.090 0.019-0.136 0.025-0.015 0.002-0.030 0.005-0.045 0.007-0.060 0.007-0.121 0.011-0.182 0.011s-0.122-0.004-0.182-0.011c-0.015-0.002-0.030-0.005-0.045-0.007-0.056-0.008-0.102-0.017-0.147-0.027l0.011 0.002c-0.015-0.003-0.030-0.008-0.045-0.012-0.056-0.015-0.101-0.029-0.145-0.046l0.011 0.003-0.037-0.013c-0.061-0.024-0.11-0.046-0.157-0.071l0.009 0.004c-0.005-0.002-0.009-0.004-0.014-0.007-0.114-0.061-0.213-0.129-0.302-0.207l0.002 0.002c-0.011-0.009-0.021-0.019-0.031-0.028-0.082-0.075-0.156-0.156-0.22-0.245l-0.003-0.005c-0.009-0.012-0.019-0.024-0.027-0.037l-0.003-0.005c-0.171-0.25-0.273-0.558-0.273-0.891 0-0.001 0-0.001 0-0.002v0-0.267zM8.267 0.534c1.484 0.022 2.729 1.018 3.125 2.376l0.006 0.023h-3.131v-2.4zM7.733 2.933h-3.131c0.402-1.382 1.647-2.378 3.129-2.4l0.002-0v2.4zM4.006 0.533h1.824c-0.88 0.526-1.522 1.372-1.771 2.374l-0.006 0.026h-3.428c0.497-1.422 1.851-2.397 3.38-2.4zM0.533 3.467h3.467v0.267c-0.001 0.71-0.464 1.312-1.105 1.522l-0.011 0.003-0.023 0.007-0.009 0.002c-0.054 0.017-0.121 0.032-0.19 0.043l-0.009 0.001c-0.015 0.002-0.029 0.005-0.044 0.007-0.063 0.009-0.135 0.015-0.209 0.015h-0.267c-0.095-0.001-0.188-0.009-0.278-0.026l0.010 0.001c-0.081-0.013-0.152-0.030-0.221-0.052l0.011 0.003-0.003-0.001c-0.080-0.026-0.147-0.053-0.211-0.085l0.009 0.004c-0.012-0.006-0.025-0.011-0.037-0.018-0.526-0.268-0.881-0.806-0.881-1.427v-0.267zM1.333 5.711c0.021 0.009 0.043 0.015 0.064 0.023 0.026 0.009 0.051 0.019 0.077 0.028 0.013 0.004 0.026 0.009 0.039 0.013 0.032 0.010 0.064 0.017 0.097 0.025 0.025 0.006 0.050 0.014 0.076 0.019l0.028 0.006c0.041 0.008 0.082 0.013 0.124 0.019 0.023 0.003 0.045 0.008 0.069 0.010 0.005 0.001 0.010 0.001 0.015 0.002 0.070 0.007 0.141 0.011 0.212 0.011h0.267c0.084 0 0.167-0.006 0.249-0.016 0.006-0.001 0.012-0 0.018-0.001v7.217h-1.333v-7.356zM0.533 14.4h0.8v1.067h-0.8v-1.067zM2.4 14.4v1.067h-0.533v-1.067h0.533zM2.933 15.467v-1.067h0.533v1.067h-0.533zM14.667 14.4v1.067h-0.533v-1.067h0.533zM13.6 15.467h-0.533v-1.067h0.533v1.067zM12.533 15.467h-0.533v-1.067h0.533v1.067zM11.467 15.467h-0.533v-1.067h0.533v1.067zM10.4 15.467h-0.533v-1.067h0.533v1.067zM9.333 15.467h-0.533v-1.067h0.533v1.067zM15.467 15.467h-0.267v-1.067h0.267v1.067zM15.467 5.143v8.724h-7.2v1.6h-4.267v-1.6h-3.467v-8.724c0.013 0.015 0.029 0.029 0.043 0.043 0.027 0.029 0.055 0.058 0.083 0.086 0.023 0.022 0.047 0.043 0.071 0.064 0.023 0.020 0.046 0.041 0.070 0.060v8.204h2.4v-7.89c0.013-0.005 0.027-0.010 0.040-0.016 0.012-0.005 0.023-0.011 0.035-0.017 0.16-0.073 0.298-0.158 0.424-0.255l-0.005 0.004c0.015-0.011 0.030-0.022 0.045-0.033 0.065-0.052 0.126-0.108 0.185-0.168 0.013-0.013 0.025-0.028 0.038-0.042 0.059-0.064 0.116-0.133 0.168-0.205l0.004-0.006c0.037-0.051 0.076-0.11 0.111-0.171l0.005-0.010c0.005-0.009 0.011-0.017 0.017-0.026v4.835h3.733v-4.835c0.005 0.009 0.011 0.017 0.017 0.026 0.087 0.148 0.182 0.277 0.291 0.393l-0.001-0.001c0.013 0.014 0.025 0.028 0.038 0.042 0.058 0.059 0.12 0.115 0.185 0.168 0.014 0.012 0.030 0.022 0.045 0.033 0.053 0.041 0.107 0.078 0.164 0.114 0.021 0.013 0.042 0.026 0.063 0.039 0.062 0.036 0.126 0.069 0.192 0.099 0.012 0.005 0.023 0.012 0.035 0.017 0.013 0.006 0.027 0.010 0.040 0.016v7.89h6.133v-8.204c0.024-0.019 0.047-0.039 0.070-0.060 0.026-0.023 0.049-0.044 0.071-0.065l-0.001 0.001c0.029-0.028 0.056-0.056 0.083-0.086 0.014-0.015 0.029-0.028 0.043-0.043zM14.777 5.048c-0.061 0.043-0.125 0.080-0.191 0.113-0.012 0.006-0.024 0.012-0.037 0.018-0.055 0.027-0.122 0.055-0.19 0.078l-0.011 0.003-0.003 0.001c-0.074 0.024-0.162 0.044-0.253 0.056l-0.008 0.001c-0.072 0.010-0.144 0.016-0.217 0.016h-0.267c-0.070 0-0.139-0.006-0.208-0.015-0.014-0.002-0.028-0.004-0.042-0.006-0.376-0.063-0.702-0.248-0.94-0.513l-0.001-0.001-0.002-0.003c-0.097-0.108-0.18-0.231-0.245-0.365l-0.004-0.009c-0.005-0.010-0.009-0.019-0.014-0.029l-0.019-0.039c-0.079-0.182-0.125-0.395-0.125-0.618 0-0.001 0-0.001 0-0.002v0-0.267h3.467v0.267c-0 0.543-0.271 1.022-0.685 1.311l-0.005 0.003z"></path>
<path d="M3.467 6.133h0.533v7.2h-0.533zM8.267 6.133h0.533v7.2h-0.533z"></path>
</symbol>
<symbol id="icon-court" viewBox="0 0 16 16">
<path d="M10.311 7.179c-0.103 0.1-0.16 0.235-0.161 0.378-0 0.001-0 0.003-0 0.005 0 0.147 0.060 0.28 0.156 0.376l0.332 0.332c0.081 0.081 0.184 0.138 0.3 0.162l0.004 0.001c0.022 0.111 0.076 0.218 0.162 0.304l0.288 0.287c0.113 0.113 0.262 0.175 0.422 0.175s0.309-0.062 0.422-0.175l2.362-2.362c0.108-0.108 0.175-0.257 0.175-0.422s-0.067-0.314-0.175-0.422v0l-0.287-0.287c-0.080-0.080-0.184-0.138-0.3-0.162l-0.004-0.001c-0.025-0.12-0.082-0.224-0.163-0.304l-0.333-0.333c-0.101-0.101-0.238-0.163-0.382-0.157-0.146 0-0.277 0.060-0.372 0.157l-0 0-2.645-2.635c0.103-0.1 0.16-0.235 0.161-0.378s-0.055-0.279-0.156-0.381l-0.332-0.332c-0.080-0.079-0.184-0.135-0.3-0.157l-0.004-0.001c-0.024-0.122-0.082-0.227-0.163-0.309v0l-0.287-0.287c-0.225-0.225-0.618-0.226-0.844 0l-2.362 2.361c-0.108 0.107-0.175 0.256-0.175 0.42 0 0.001 0 0.001 0 0.002v-0c0 0.16 0.062 0.309 0.175 0.422l0.287 0.287c0.084 0.084 0.189 0.14 0.304 0.163 0.023 0.114 0.079 0.219 0.163 0.303l0.332 0.332c0.1 0.1 0.238 0.157 0.379 0.157h0.003c0.146-0 0.277-0.060 0.372-0.157l0-0 0.426 0.426c0.077 0.077 0.077 0.203 0 0.28l-1.934 1.934-0.189-0.189c-0.312-0.312-0.82-0.312-1.131 0s-0.312 0.819 0 1.131l0.189 0.189-2.418 2.418c-0.137 0.137-0.31 0.238-0.503 0.287l-0.008 0.002-0.775 0.194c-0.298 0.076-0.555 0.226-0.758 0.429l0-0-0.087 0.087c-0.308 0.309-0.478 0.718-0.478 1.154s0.17 0.846 0.478 1.154l0.331 0.331c0.294 0.295 0.701 0.478 1.15 0.478 0.001 0 0.003 0 0.004 0h-0c0.001 0 0.003 0 0.004 0 0.45 0 0.856-0.183 1.15-0.478l0.087-0.087c0.203-0.203 0.353-0.46 0.427-0.747l0.002-0.011 0.194-0.775c0.051-0.201 0.152-0.374 0.289-0.51l2.418-2.418 0.189 0.189c0.302 0.302 0.829 0.302 1.131 0 0.151-0.151 0.234-0.352 0.234-0.566s-0.083-0.415-0.234-0.566l-0.189-0.189 1.934-1.934c0.036-0.036 0.085-0.058 0.14-0.058s0.104 0.022 0.14 0.058v0l0.431 0.421zM14.24 6.241c0 0.012-0.003 0.029-0.018 0.045l-2.362 2.362c-0.031 0.031-0.059 0.031-0.089 0l-0.288-0.287c-0.011-0.011-0.019-0.027-0.019-0.045s0.007-0.033 0.019-0.045v0l2.362-2.362c0.011-0.011 0.027-0.018 0.045-0.018 0 0 0 0 0 0h-0c0.016 0 0.033 0.006 0.045 0.018l0.287 0.287c0.011 0.011 0.018 0.027 0.018 0.044 0 0 0 0 0 0.001v-0zM6.184 3.035c0-0.012 0.003-0.029 0.018-0.045l2.362-2.361c0.015-0.015 0.033-0.018 0.045-0.018s0.029 0.003 0.045 0.018l0.287 0.287c0.011 0.011 0.019 0.027 0.019 0.045s-0.007 0.033-0.019 0.045v0l-2.362 2.362c-0.011 0.011-0.027 0.019-0.045 0.019s-0.033-0.007-0.045-0.019v0l-0.287-0.287c-0.011-0.011-0.018-0.027-0.018-0.044 0-0 0-0.001 0-0.001v0zM9.223 6.381l-2.311 2.311 0.566 0.566c0.050 0.050 0.078 0.117 0.078 0.189 0 0 0 0.001 0 0.001 0 0.073-0.030 0.14-0.078 0.188l-0 0c-0.049 0.047-0.115 0.076-0.189 0.076s-0.14-0.029-0.189-0.076l-0.566-0.566-2.795 2.795c-0.203 0.203-0.353 0.46-0.427 0.747l-0.002 0.011-0.194 0.775c-0.051 0.201-0.152 0.374-0.289 0.51l-0.087 0.087c-0.198 0.199-0.472 0.322-0.775 0.322-0.001 0-0.002 0-0.003 0h0c-0.303-0.001-0.578-0.124-0.777-0.322l-0.331-0.331c-0.208-0.208-0.322-0.484-0.322-0.778s0.114-0.569 0.322-0.777l0.087-0.087c0.137-0.137 0.31-0.238 0.503-0.288l0.008-0.002 0.775-0.194c0.298-0.076 0.555-0.226 0.758-0.429l2.795-2.795-0.566-0.566c-0.048-0.048-0.077-0.115-0.077-0.188 0-0.147 0.119-0.266 0.266-0.267h0c0.068 0 0.137 0.026 0.189 0.078l0.566 0.566 2.311-2.311c0.132-0.132 0.214-0.315 0.214-0.517s-0.082-0.385-0.214-0.517l-0.426-0.426c-0.096-0.097-0.229-0.156-0.376-0.156-0 0-0.001 0-0.002 0h-0.003c0 0-0 0-0 0-0.146 0-0.279 0.060-0.374 0.156l-0 0-0.332-0.332c-0.011-0.011-0.018-0.027-0.018-0.044 0-0 0-0.001 0-0.001v0c0-0.012 0.003-0.029 0.018-0.045l2.362-2.362c0.030-0.031 0.059-0.031 0.089 0l0.332 0.332c-0.097 0.094-0.157 0.226-0.157 0.372v0c0 0.001 0 0.001 0 0.002 0 0.149 0.060 0.283 0.157 0.381l2.64 2.64c0.101 0.101 0.235 0.156 0.377 0.156h0.003c0.146-0 0.278-0.060 0.374-0.156l0-0 0.333 0.333c0.011 0.011 0.018 0.027 0.018 0.044 0 0 0 0 0 0v-0c0 0 0 0 0 0.001 0 0.017-0.007 0.033-0.018 0.044v0l-2.362 2.362c-0.011 0.011-0.027 0.018-0.045 0.018s-0.033-0.007-0.045-0.018v0l-0.332-0.333c0.097-0.094 0.157-0.226 0.157-0.372v-0c0-0 0-0.001 0-0.002 0-0.149-0.060-0.283-0.157-0.381l-0.426-0.426c-0.133-0.132-0.315-0.213-0.517-0.213s-0.385 0.082-0.517 0.214l0-0zM14.133 13.784h-2.4c-1.029 0-1.867 0.838-1.867 1.867v0.267h6.133v-0.267c0-1.029-0.837-1.867-1.867-1.867zM10.427 15.384c0.129-0.612 0.665-1.066 1.306-1.067h2.4c0.642 0.001 1.177 0.454 1.305 1.058l0.002 0.009h-5.013zM11.2 12.984c-0.147 0-0.267 0.119-0.267 0.267s0.119 0.267 0.267 0.267v0h3.467c0.147 0 0.267-0.119 0.267-0.267s-0.119-0.267-0.267-0.267v0h-3.467z"></path>
</symbol>
<symbol id="icon-logo-02" viewBox="0 0 27 16">
<path fill="#eeefe2" style="fill: var(--color2, #eeefe2)" d="M27.070 3.634h-4.512v1.17c0 7.144-4.93 11.196-12.073 11.196-6.559 0-10.486-3.634-10.486-9.024 0-4.345 2.757-6.976 7.269-6.976 3.050 0 5.681 1.587 5.681 4.512 0 4.47-4.846 6.099-7.645 6.684 1.044 0.961 2.715 1.462 5.138 1.462 4.929 0 8.146-2.632 8.146-7.854v-1.17h-4.47v-3.217h12.95v3.217zM3.885 8.522c1.42-0.251 5.138-1.128 5.138-3.718 0-1.295-1.17-1.755-2.047-1.755-1.755 0-3.217 1.295-3.217 3.802 0.042 0.585 0.042 1.17 0.125 1.671z"></path>
</symbol>
<symbol id="icon-logo-03" viewBox="0 0 27 16">
<path fill="#2e3e98" style="fill: var(--color1, #2e3e98)" d="M27.070 3.634h-4.512v1.17c0 7.144-4.93 11.196-12.073 11.196-6.559 0-10.486-3.634-10.486-9.024 0-4.345 2.757-6.976 7.269-6.976 3.050 0 5.681 1.587 5.681 4.512 0 4.47-4.846 6.099-7.645 6.684 1.044 0.961 2.715 1.462 5.138 1.462 4.929 0 8.146-2.632 8.146-7.854v-1.17h-4.47v-3.217h12.95v3.217zM3.885 8.522c1.42-0.251 5.138-1.128 5.138-3.718 0-1.295-1.17-1.755-2.047-1.755-1.755 0-3.217 1.295-3.217 3.802 0.042 0.585 0.042 1.17 0.125 1.671z"></path>
</symbol>
<symbol id="icon-stamp" viewBox="0 0 16 16">
<path d="M14.566 10.402h-4.165v-1.6h-1.067v-1.665c0-0.57 0.246-1.106 0.658-1.433 0.739-0.588 1.209-1.487 1.209-2.496 0-0.002 0-0.005-0-0.007v0c0-0.911-0.39-1.782-1.070-2.389-0.565-0.504-1.315-0.812-2.136-0.812-0.13 0-0.259 0.008-0.385 0.023l0.015-0.001c-1.428 0.162-2.603 1.313-2.796 2.735-0.152 1.127 0.282 2.223 1.161 2.932 0.423 0.342 0.676 0.902 0.676 1.497v1.616h-1.067v1.6h-4.165c-0.351 0-0.636 0.285-0.636 0.636v2.995c0 0.351 0.285 0.636 0.636 0.636h0.188c0.127 0.756 0.785 1.334 1.576 1.334h9.602c0.791 0 1.449-0.578 1.576-1.334h0.188c0.351-0 0.636-0.285 0.636-0.636v-2.995c-0.001-0.351-0.286-0.636-0.637-0.636h-0zM6.327 5.273c-0.733-0.591-1.094-1.506-0.967-2.446 0.16-1.184 1.139-2.141 2.327-2.276 0.773-0.087 1.515 0.146 2.090 0.659 0.548 0.491 0.892 1.2 0.892 1.99v0c0 0.002 0 0.004 0 0.006 0 0.841-0.392 1.59-1.002 2.076l-0.005 0.004c-0.546 0.434-0.859 1.109-0.859 1.851v1.665h-1.6v-1.616c-0-0.767-0.319-1.464-0.875-1.912zM6.134 9.335h3.734v1.067h-3.734v-1.067zM12.802 15.469h-9.602c-0.494-0-0.91-0.337-1.031-0.793l-0.002-0.007h11.668c-0.123 0.464-0.539 0.8-1.033 0.8h-0zM14.669 14.033c0 0.057-0.046 0.103-0.103 0.103h-13.13c-0.057 0-0.103-0.046-0.103-0.103v0-2.995c0-0.057 0.046-0.103 0.103-0.103h13.13c0.057 0 0.103 0.046 0.103 0.103v2.995z"></path>
</symbol>
<symbol id="icon-tax" viewBox="0 0 16 16">
<path d="M8.271 2.712c0.523 0 0.949-0.426 0.949-0.949s-0.426-0.949-0.949-0.949-0.949 0.426-0.949 0.949 0.426 0.949 0.949 0.949zM8.271 1.356c0.224 0 0.407 0.183 0.407 0.407s-0.183 0.407-0.407 0.407-0.407-0.183-0.407-0.407 0.183-0.407 0.407-0.407zM2.576 2.712c0.523 0 0.949-0.426 0.949-0.949s-0.426-0.949-0.949-0.949-0.949 0.426-0.949 0.949 0.426 0.949 0.949 0.949zM2.576 1.356c0.224 0 0.407 0.183 0.407 0.407s-0.183 0.407-0.407 0.407-0.407-0.183-0.407-0.407 0.183-0.407 0.407-0.407zM2.576 13.017c-0.523 0-0.949 0.426-0.949 0.949s0.426 0.949 0.949 0.949 0.949-0.426 0.949-0.949-0.426-0.949-0.949-0.949zM2.576 14.373c-0.224 0-0.407-0.183-0.407-0.407s0.183-0.407 0.407-0.407 0.407 0.183 0.407 0.407-0.183 0.407-0.407 0.407z"></path>
<path d="M12.475 4.615v-4.615h-11.661v15.729h6.519c0.43 0.171 0.934 0.271 1.481 0.271 0.675 0 1.286-0.15 1.769-0.402 0.5 0.26 1.115 0.402 1.756 0.402 1.597 0 2.847-0.834 2.847-1.898v-7.593c0-1.034-1.181-1.848-2.712-1.894zM14.644 6.508c0 0.735-1.056 1.356-2.305 1.356s-2.305-0.621-2.305-1.356c0-0.045 0.004-0.090 0.012-0.134 0.002-0.013 0.007-0.025 0.010-0.038 0.007-0.031 0.014-0.063 0.025-0.094 0.005-0.014 0.012-0.027 0.018-0.041 0.012-0.029 0.024-0.058 0.039-0.087 0.008-0.016 0.019-0.031 0.029-0.046 0.015-0.026 0.031-0.052 0.049-0.076 0.015-0.020 0.032-0.040 0.049-0.059s0.030-0.039 0.048-0.057c0.027-0.029 0.056-0.057 0.087-0.084 0.009-0.009 0.018-0.018 0.028-0.026 0.084-0.073 0.18-0.143 0.289-0.207 0.095-0.057 0.207-0.113 0.323-0.161l0.017-0.006 0.022-0.008c0.119-0.047 0.245-0.088 0.377-0.121 0.005-0.001 0.009-0.002 0.014-0.003 0.092-0.024 0.209-0.047 0.329-0.064l0.018-0.002 0.014-0.002c0.11-0.016 0.242-0.027 0.376-0.032l0.006-0 0.127-0.005c1.249 0.001 2.304 0.621 2.304 1.356zM14.626 13.174c-0.005 0.023-0.011 0.045-0.018 0.068-0.006 0.021-0.012 0.042-0.020 0.063-0.012 0.029-0.022 0.050-0.032 0.072l0.002-0.005c-0.010 0.020-0.019 0.041-0.030 0.061-0.015 0.026-0.028 0.047-0.043 0.067l0.002-0.003c-0.013 0.020-0.025 0.039-0.040 0.058-0.018 0.023-0.034 0.043-0.052 0.062l0.001-0.001c-0.016 0.018-0.031 0.037-0.049 0.055-0.019 0.020-0.040 0.039-0.061 0.059-0.018 0.017-0.036 0.035-0.056 0.052-0.022 0.019-0.047 0.037-0.071 0.055-0.021 0.016-0.041 0.032-0.064 0.048-0.025 0.018-0.052 0.034-0.079 0.051-0.023 0.015-0.046 0.030-0.071 0.044-0.028 0.016-0.057 0.031-0.087 0.047-0.026 0.014-0.051 0.027-0.077 0.040-0.031 0.015-0.063 0.028-0.095 0.042-0.027 0.012-0.054 0.024-0.082 0.035-0.034 0.013-0.069 0.025-0.104 0.038-0.028 0.010-0.056 0.021-0.085 0.030-0.036 0.012-0.074 0.022-0.111 0.032-0.030 0.008-0.058 0.017-0.088 0.025-0.039 0.010-0.079 0.018-0.119 0.026-0.030 0.007-0.059 0.014-0.090 0.019-0.043 0.008-0.087 0.014-0.131 0.020-0.028 0.004-0.057 0.009-0.086 0.013-0.049 0.006-0.099 0.010-0.149 0.014-0.025 0.002-0.049 0.005-0.075 0.007-0.075 0.005-0.152 0.007-0.229 0.007-0.141-0.001-0.279-0.009-0.415-0.024l0.017 0.002c-0.105-0.011-0.193-0.024-0.28-0.040l0.022 0.003c-0.012-0.002-0.025-0.004-0.038-0.006 0.011-0.068 0.017-0.136 0.017-0.205v-0.325c0.019 0.003 0.038 0.004 0.057 0.007 0.073 0.011 0.147 0.020 0.221 0.027 0.031 0.003 0.061 0.006 0.092 0.008 0.102 0.008 0.205 0.012 0.308 0.012 0.111 0 0.22-0.005 0.327-0.013 0.035-0.002 0.068-0.007 0.103-0.010 0.072-0.007 0.144-0.015 0.214-0.025 0.039-0.006 0.076-0.012 0.114-0.019 0.193-0.034 0.358-0.076 0.519-0.129l-0.027 0.008c0.030-0.010 0.061-0.018 0.091-0.029 0.087-0.030 0.171-0.063 0.252-0.099l0.010-0.004c0.084-0.037 0.164-0.078 0.241-0.121 0.025-0.014 0.047-0.029 0.071-0.043 0.051-0.031 0.101-0.062 0.149-0.095 0.025-0.018 0.050-0.036 0.075-0.055 0.044-0.033 0.085-0.067 0.125-0.101 0.012-0.011 0.026-0.020 0.038-0.030-0.001 0.017-0.002 0.033-0.004 0.048l0-0.003c-0.003 0.021-0.005 0.043-0.009 0.065zM11.101 13.174c-0.005 0.023-0.011 0.045-0.018 0.068-0.006 0.021-0.012 0.042-0.020 0.063-0.012 0.029-0.022 0.050-0.032 0.072l0.002-0.005c-0.010 0.020-0.019 0.041-0.030 0.061-0.015 0.026-0.028 0.047-0.043 0.067l0.002-0.003c-0.013 0.020-0.025 0.039-0.040 0.058-0.018 0.023-0.034 0.043-0.052 0.062l0.001-0.001c-0.016 0.018-0.031 0.037-0.049 0.055-0.019 0.020-0.040 0.039-0.061 0.059-0.018 0.017-0.036 0.035-0.056 0.052-0.022 0.019-0.047 0.037-0.071 0.055-0.021 0.016-0.041 0.032-0.064 0.048-0.025 0.018-0.052 0.034-0.079 0.051-0.023 0.015-0.046 0.030-0.071 0.044-0.028 0.016-0.057 0.031-0.087 0.047-0.026 0.014-0.051 0.027-0.077 0.040-0.031 0.015-0.063 0.028-0.095 0.042-0.027 0.012-0.054 0.024-0.082 0.035-0.034 0.013-0.069 0.025-0.104 0.038-0.028 0.010-0.056 0.021-0.085 0.030-0.036 0.012-0.074 0.022-0.111 0.032-0.030 0.008-0.058 0.017-0.088 0.025-0.039 0.010-0.079 0.018-0.119 0.026-0.030 0.007-0.059 0.014-0.090 0.019-0.043 0.008-0.087 0.014-0.131 0.020-0.028 0.004-0.057 0.009-0.086 0.013-0.049 0.006-0.099 0.010-0.149 0.014-0.025 0.002-0.049 0.005-0.075 0.007-0.069 0.005-0.15 0.008-0.231 0.008-0.080 0-0.159-0.003-0.238-0.008l0.011 0.001c-0.025-0.002-0.050-0.005-0.075-0.007-0.050-0.004-0.1-0.008-0.149-0.014-0.029-0.004-0.057-0.009-0.086-0.013-0.044-0.007-0.088-0.012-0.131-0.020-0.030-0.006-0.060-0.013-0.090-0.019-0.040-0.008-0.080-0.017-0.119-0.026-0.030-0.008-0.059-0.017-0.088-0.025-0.037-0.011-0.075-0.021-0.112-0.032-0.029-0.009-0.056-0.020-0.085-0.030-0.035-0.012-0.070-0.024-0.104-0.038-0.028-0.011-0.055-0.024-0.082-0.035-0.032-0.014-0.064-0.027-0.095-0.042-0.027-0.013-0.052-0.027-0.077-0.040-0.029-0.015-0.059-0.030-0.087-0.047-0.024-0.014-0.047-0.029-0.071-0.044-0.027-0.017-0.054-0.033-0.079-0.051-0.022-0.015-0.043-0.032-0.064-0.048-0.024-0.018-0.048-0.036-0.071-0.055-0.020-0.017-0.038-0.034-0.056-0.052-0.021-0.019-0.042-0.039-0.061-0.059-0.017-0.018-0.033-0.037-0.048-0.055-0.017-0.020-0.035-0.040-0.051-0.061-0.014-0.019-0.027-0.039-0.040-0.058-0.014-0.021-0.028-0.042-0.041-0.064-0.011-0.020-0.021-0.040-0.030-0.061-0.008-0.016-0.018-0.038-0.027-0.060l-0.002-0.006c-0.008-0.021-0.014-0.042-0.020-0.063-0.007-0.023-0.014-0.045-0.018-0.068-0.004-0.021-0.007-0.043-0.009-0.065-0.001-0.011-0.003-0.027-0.004-0.043l-0-0.002c0.012 0.011 0.025 0.020 0.037 0.030 0.040 0.035 0.082 0.069 0.126 0.102 0.024 0.018 0.049 0.037 0.074 0.055 0.048 0.033 0.098 0.065 0.149 0.096 0.024 0.014 0.047 0.029 0.071 0.043 0.077 0.043 0.157 0.084 0.241 0.121l0.009 0.004c0.081 0.036 0.166 0.069 0.253 0.099 0.030 0.010 0.060 0.019 0.091 0.029 0.062 0.020 0.126 0.039 0.191 0.056 0.070 0.020 0.172 0.042 0.275 0.061l0.026 0.004c0.088 0.017 0.2 0.033 0.314 0.043l0.015 0.001c0.034 0.003 0.068 0.008 0.102 0.010 0.099 0.008 0.214 0.013 0.331 0.013 0.114 0 0.227-0.005 0.339-0.013l-0.015 0.001c0.035-0.002 0.068-0.007 0.103-0.010 0.072-0.007 0.144-0.015 0.214-0.025 0.039-0.006 0.076-0.012 0.114-0.019 0.193-0.034 0.358-0.076 0.519-0.129l-0.027 0.008c0.030-0.010 0.061-0.018 0.091-0.029 0.087-0.030 0.171-0.063 0.252-0.099l0.010-0.004c0.084-0.037 0.164-0.078 0.241-0.121 0.025-0.014 0.047-0.029 0.071-0.043 0.051-0.031 0.101-0.062 0.149-0.095 0.025-0.018 0.050-0.036 0.075-0.055 0.044-0.033 0.085-0.067 0.125-0.101 0.012-0.011 0.026-0.020 0.038-0.030-0.001 0.017-0.002 0.033-0.004 0.048l0-0.003c-0.003 0.021-0.005 0.043-0.009 0.065zM2.712 5.21v-1.69c0.866-0.070 1.552-0.756 1.622-1.616l0-0.006h2.18c0.070 0.866 0.756 1.552 1.616 1.622l0.006 0v1.69l-0.012-0.012c-0.046-0.046-0.094-0.089-0.142-0.132-0.046-0.043-0.091-0.087-0.139-0.127-0.018-0.015-0.037-0.027-0.055-0.041-0.535-0.433-1.202-0.724-1.933-0.805l-0.017-0.002c-0.009-0.001-0.017-0.003-0.026-0.004-0.116-0.012-0.251-0.019-0.387-0.019s-0.271 0.007-0.404 0.021l0.017-0.001c-0.009 0.001-0.017 0.003-0.026 0.004-0.747 0.083-1.414 0.374-1.957 0.812l0.007-0.006c-0.018 0.014-0.037 0.027-0.055 0.041-0.048 0.040-0.093 0.084-0.139 0.127-0.048 0.044-0.097 0.086-0.142 0.132l-0.012 0.012zM9.253 8.433l0.012 0.001c0.143 0.018 0.284 0.044 0.422 0.078 0.192 0.048 0.356 0.106 0.514 0.177l-0.019-0.008c0.028 0.012 0.056 0.024 0.083 0.037 0.085 0.042 0.155 0.081 0.222 0.124l-0.009-0.006c0.015 0.009 0.030 0.019 0.044 0.028 0.141 0.092 0.263 0.199 0.367 0.321l0.002 0.002 0.008 0.010c0.033 0.041 0.062 0.082 0.087 0.123l0.009 0.014c0.023 0.039 0.042 0.079 0.059 0.119 0.003 0.008 0.007 0.015 0.010 0.023 0.014 0.037 0.024 0.075 0.033 0.113 0.002 0.010 0.006 0.020 0.008 0.029 0.009 0.048 0.014 0.095 0.014 0.143 0 0.735-1.056 1.356-2.305 1.356s-2.305-0.621-2.305-1.356c0-0.118 0.030-0.232 0.081-0.343 0.074-0.161 0.201-0.313 0.371-0.45l0.033-0.026c0.047-0.036 0.098-0.071 0.152-0.105 0.424-0.264 1.019-0.433 1.668-0.433 0.148 0 0.295 0.009 0.44 0.026zM10.201 7.772c0.024 0.018 0.049 0.037 0.074 0.055 0.048 0.033 0.098 0.065 0.149 0.096 0.024 0.014 0.047 0.029 0.071 0.043 0.077 0.043 0.157 0.084 0.241 0.121l0.009 0.004c0.081 0.036 0.166 0.069 0.253 0.099 0.030 0.010 0.060 0.019 0.091 0.029 0.062 0.020 0.126 0.039 0.191 0.056 0.070 0.020 0.172 0.042 0.275 0.061l0.026 0.004c0.088 0.017 0.2 0.033 0.314 0.043l0.015 0.001c0.034 0.003 0.068 0.008 0.102 0.010 0.099 0.008 0.214 0.013 0.331 0.013 0.114 0 0.227-0.005 0.338-0.013l-0.015 0.001c0.035-0.002 0.068-0.007 0.103-0.010 0.072-0.007 0.144-0.015 0.214-0.025 0.039-0.006 0.076-0.012 0.114-0.019 0.193-0.034 0.358-0.076 0.519-0.129l-0.027 0.008c0.030-0.010 0.061-0.018 0.091-0.029 0.087-0.030 0.171-0.063 0.252-0.099l0.010-0.004c0.084-0.037 0.164-0.078 0.241-0.121 0.025-0.014 0.047-0.029 0.071-0.043 0.051-0.031 0.101-0.062 0.149-0.095 0.025-0.018 0.050-0.036 0.075-0.055 0.044-0.033 0.085-0.067 0.125-0.101 0.012-0.011 0.026-0.020 0.038-0.030-0.001 0.017-0.002 0.033-0.004 0.048l0-0.003c-0.003 0.022-0.005 0.044-0.009 0.065-0.005 0.023-0.011 0.045-0.018 0.068-0.006 0.021-0.012 0.042-0.020 0.063-0.012 0.029-0.022 0.050-0.032 0.072l0.002-0.005c-0.010 0.020-0.019 0.041-0.030 0.061-0.015 0.026-0.028 0.047-0.043 0.067l0.002-0.003c-0.013 0.020-0.025 0.039-0.040 0.058-0.018 0.023-0.034 0.043-0.052 0.062l0.001-0.001c-0.016 0.018-0.031 0.037-0.049 0.055-0.019 0.020-0.040 0.039-0.061 0.059-0.018 0.017-0.036 0.035-0.056 0.052-0.022 0.019-0.047 0.037-0.071 0.055-0.021 0.016-0.041 0.032-0.064 0.048-0.025 0.018-0.052 0.034-0.079 0.051-0.023 0.015-0.046 0.030-0.071 0.044-0.028 0.016-0.057 0.031-0.087 0.047-0.026 0.014-0.051 0.027-0.077 0.040-0.031 0.015-0.063 0.028-0.095 0.042-0.027 0.012-0.054 0.024-0.082 0.035-0.034 0.013-0.069 0.025-0.104 0.038-0.028 0.010-0.056 0.021-0.085 0.030-0.036 0.012-0.074 0.022-0.111 0.032-0.030 0.008-0.058 0.017-0.088 0.025-0.039 0.010-0.079 0.018-0.119 0.026-0.030 0.007-0.059 0.014-0.090 0.019-0.043 0.008-0.087 0.014-0.131 0.020-0.028 0.004-0.057 0.009-0.086 0.013-0.049 0.006-0.099 0.010-0.149 0.014-0.025 0.002-0.049 0.005-0.075 0.007-0.068 0.004-0.146 0.007-0.226 0.007-0.103 0-0.206-0.004-0.307-0.012l0.013 0.001c-0.031-0.002-0.060-0.007-0.091-0.010-0.065-0.007-0.13-0.013-0.194-0.023-0.036-0.005-0.070-0.013-0.105-0.020-0.057-0.011-0.115-0.021-0.171-0.035-0.036-0.009-0.071-0.019-0.105-0.029-0.062-0.016-0.102-0.029-0.141-0.041l0.022 0.006c-0.253-0.286-0.615-0.522-1.052-0.684-0.108-0.15-0.167-0.306-0.176-0.465 0.012 0.011 0.027 0.021 0.040 0.033 0.040 0.035 0.082 0.069 0.126 0.101zM14.402 8.911c0.025-0.018 0.050-0.036 0.075-0.055 0.044-0.033 0.085-0.067 0.125-0.101 0.012-0.011 0.026-0.020 0.038-0.030-0.001 0.017-0.002 0.033-0.004 0.048l0-0.003c-0.003 0.022-0.005 0.044-0.009 0.065-0.005 0.023-0.011 0.045-0.018 0.068-0.006 0.021-0.012 0.042-0.020 0.063-0.012 0.029-0.022 0.050-0.032 0.072l0.002-0.005c-0.010 0.020-0.019 0.041-0.030 0.061-0.015 0.026-0.028 0.047-0.043 0.067l0.002-0.003c-0.013 0.020-0.025 0.039-0.040 0.058-0.018 0.023-0.034 0.043-0.052 0.062l0.001-0.001c-0.016 0.018-0.031 0.037-0.049 0.055-0.019 0.020-0.040 0.039-0.061 0.059-0.018 0.017-0.036 0.035-0.056 0.052-0.022 0.019-0.047 0.037-0.071 0.055-0.021 0.016-0.041 0.032-0.064 0.048-0.025 0.018-0.052 0.034-0.079 0.051-0.023 0.015-0.046 0.030-0.071 0.044-0.028 0.016-0.057 0.031-0.087 0.047-0.026 0.014-0.051 0.027-0.077 0.040-0.031 0.015-0.063 0.028-0.095 0.042-0.027 0.012-0.054 0.024-0.082 0.035-0.034 0.013-0.069 0.025-0.104 0.038-0.028 0.010-0.056 0.021-0.085 0.030-0.036 0.012-0.074 0.022-0.111 0.032-0.030 0.008-0.058 0.017-0.088 0.025-0.039 0.010-0.079 0.018-0.119 0.026-0.030 0.007-0.059 0.014-0.090 0.019-0.043 0.008-0.087 0.014-0.131 0.020-0.028 0.004-0.057 0.009-0.086 0.013-0.049 0.006-0.099 0.010-0.149 0.014-0.025 0.002-0.049 0.005-0.075 0.007-0.075 0.005-0.152 0.007-0.229 0.007-0.144-0.001-0.284-0.010-0.423-0.026l0.018 0.002c-0.040-0.004-0.079-0.011-0.119-0.017-0.052-0.007-0.103-0.019-0.154-0.028v-0.202c0-0.059-0.005-0.119-0.013-0.178-0.005-0.037-0.014-0.073-0.022-0.11-0.003-0.015-0.005-0.030-0.009-0.044l0.019 0.002c0.077 0.013 0.155 0.021 0.233 0.030 0.039 0.004 0.076 0.011 0.115 0.014 0.106 0.009 0.23 0.015 0.354 0.015 0.115 0 0.229-0.005 0.342-0.013l-0.015 0.001c0.035-0.002 0.068-0.007 0.103-0.010 0.072-0.007 0.144-0.015 0.214-0.025 0.039-0.006 0.076-0.012 0.114-0.019 0.193-0.034 0.358-0.076 0.519-0.129l-0.027 0.008c0.030-0.010 0.061-0.018 0.091-0.029 0.087-0.030 0.171-0.063 0.252-0.099l0.010-0.004c0.084-0.037 0.164-0.078 0.241-0.121 0.025-0.014 0.047-0.029 0.071-0.043 0.051-0.031 0.101-0.063 0.149-0.096zM14.402 9.996c0.025-0.018 0.050-0.036 0.075-0.055 0.044-0.033 0.085-0.067 0.125-0.101 0.012-0.011 0.026-0.020 0.038-0.030-0.001 0.017-0.002 0.033-0.004 0.048l0-0.003c-0.003 0.022-0.005 0.044-0.009 0.065-0.005 0.023-0.011 0.045-0.018 0.068-0.006 0.021-0.012 0.042-0.020 0.063-0.012 0.029-0.022 0.050-0.032 0.072l0.002-0.005c-0.010 0.020-0.019 0.041-0.030 0.061-0.015 0.026-0.028 0.047-0.043 0.067l0.002-0.003c-0.013 0.020-0.025 0.039-0.040 0.058-0.018 0.023-0.034 0.043-0.052 0.062l0.001-0.001c-0.016 0.018-0.031 0.037-0.049 0.055-0.019 0.020-0.040 0.039-0.061 0.059-0.018 0.017-0.036 0.035-0.056 0.052-0.022 0.019-0.047 0.037-0.071 0.055-0.021 0.016-0.041 0.032-0.064 0.048-0.025 0.018-0.052 0.034-0.079 0.051-0.023 0.015-0.046 0.030-0.071 0.044-0.028 0.016-0.057 0.031-0.087 0.047-0.026 0.014-0.051 0.027-0.077 0.040-0.031 0.015-0.063 0.028-0.095 0.042-0.027 0.012-0.054 0.024-0.082 0.035-0.034 0.013-0.069 0.025-0.104 0.038-0.028 0.010-0.056 0.021-0.085 0.030-0.036 0.012-0.074 0.022-0.111 0.032-0.030 0.008-0.058 0.017-0.088 0.025-0.039 0.010-0.079 0.018-0.119 0.026-0.030 0.007-0.059 0.014-0.090 0.019-0.043 0.008-0.087 0.014-0.131 0.020-0.028 0.004-0.057 0.009-0.086 0.013-0.049 0.006-0.099 0.010-0.149 0.014-0.025 0.002-0.049 0.005-0.075 0.007-0.075 0.005-0.152 0.007-0.229 0.007-0.144-0.001-0.284-0.010-0.423-0.026l0.018 0.002c-0.040-0.004-0.079-0.011-0.119-0.017-0.052-0.007-0.103-0.019-0.154-0.028v-0.527c0.019 0.003 0.038 0.004 0.057 0.007 0.073 0.011 0.147 0.020 0.221 0.027 0.031 0.003 0.061 0.006 0.092 0.008 0.102 0.008 0.205 0.012 0.308 0.012 0.111 0 0.22-0.005 0.327-0.013 0.035-0.002 0.068-0.007 0.103-0.010 0.072-0.007 0.144-0.015 0.214-0.025 0.039-0.006 0.076-0.012 0.114-0.019 0.193-0.034 0.358-0.076 0.519-0.129l-0.027 0.008c0.030-0.010 0.061-0.018 0.091-0.029 0.087-0.030 0.171-0.063 0.252-0.099l0.010-0.004c0.084-0.037 0.164-0.078 0.241-0.121 0.025-0.014 0.047-0.029 0.071-0.043 0.051-0.031 0.101-0.063 0.149-0.096zM14.402 11.081c0.025-0.018 0.050-0.036 0.075-0.055 0.044-0.033 0.085-0.067 0.125-0.101 0.012-0.011 0.026-0.020 0.038-0.030-0.001 0.017-0.002 0.033-0.004 0.048l0-0.003c-0.003 0.022-0.005 0.044-0.009 0.065-0.005 0.023-0.011 0.045-0.018 0.068-0.006 0.021-0.012 0.042-0.020 0.063-0.012 0.029-0.022 0.050-0.032 0.072l0.002-0.005c-0.010 0.020-0.019 0.041-0.030 0.061-0.015 0.026-0.028 0.047-0.043 0.067l0.002-0.003c-0.013 0.020-0.025 0.039-0.040 0.058-0.018 0.023-0.034 0.043-0.052 0.062l0.001-0.001c-0.016 0.018-0.031 0.037-0.049 0.055-0.019 0.020-0.040 0.039-0.061 0.059-0.018 0.017-0.036 0.035-0.056 0.052-0.022 0.019-0.047 0.037-0.071 0.055-0.021 0.016-0.041 0.032-0.064 0.048-0.025 0.018-0.052 0.034-0.079 0.051-0.023 0.015-0.046 0.030-0.071 0.044-0.028 0.016-0.057 0.031-0.087 0.047-0.026 0.014-0.051 0.027-0.077 0.040-0.031 0.015-0.063 0.028-0.095 0.042-0.027 0.012-0.054 0.024-0.082 0.035-0.034 0.013-0.069 0.025-0.104 0.038-0.028 0.010-0.056 0.021-0.085 0.030-0.036 0.012-0.074 0.022-0.111 0.032-0.030 0.008-0.058 0.017-0.088 0.025-0.039 0.010-0.079 0.018-0.119 0.026-0.030 0.007-0.059 0.014-0.090 0.019-0.043 0.008-0.087 0.014-0.131 0.020-0.028 0.004-0.057 0.009-0.086 0.013-0.049 0.006-0.099 0.010-0.149 0.014-0.025 0.002-0.049 0.005-0.075 0.007-0.075 0.005-0.152 0.007-0.229 0.007-0.144-0.001-0.284-0.010-0.423-0.026l0.018 0.002c-0.040-0.004-0.079-0.011-0.119-0.017-0.052-0.007-0.103-0.019-0.154-0.028v-0.527c0.019 0.003 0.038 0.004 0.057 0.007 0.073 0.011 0.147 0.020 0.221 0.027 0.031 0.003 0.061 0.006 0.092 0.008 0.102 0.008 0.205 0.012 0.308 0.012 0.111 0 0.22-0.005 0.327-0.013 0.035-0.002 0.068-0.007 0.103-0.010 0.072-0.007 0.144-0.015 0.214-0.025 0.039-0.006 0.076-0.012 0.114-0.019 0.193-0.034 0.358-0.076 0.519-0.129l-0.027 0.008c0.030-0.010 0.061-0.018 0.091-0.029 0.087-0.030 0.171-0.063 0.252-0.099l0.010-0.004c0.084-0.037 0.164-0.078 0.241-0.121 0.025-0.014 0.047-0.029 0.071-0.043 0.051-0.031 0.101-0.063 0.149-0.096zM14.402 12.166c0.025-0.018 0.050-0.036 0.075-0.055 0.044-0.033 0.085-0.067 0.125-0.101 0.012-0.011 0.026-0.020 0.038-0.030-0.001 0.017-0.002 0.033-0.004 0.048l0-0.003c-0.003 0.022-0.005 0.044-0.009 0.065-0.005 0.023-0.011 0.045-0.018 0.068-0.006 0.021-0.012 0.042-0.020 0.063-0.012 0.029-0.022 0.050-0.032 0.072l0.002-0.005c-0.010 0.020-0.019 0.041-0.030 0.061-0.015 0.026-0.028 0.047-0.043 0.067l0.002-0.003c-0.013 0.020-0.025 0.039-0.040 0.058-0.018 0.023-0.034 0.043-0.052 0.062l0.001-0.001c-0.016 0.018-0.031 0.037-0.049 0.055-0.019 0.020-0.040 0.039-0.061 0.059-0.018 0.017-0.036 0.035-0.056 0.052-0.022 0.019-0.047 0.037-0.071 0.055-0.021 0.016-0.041 0.032-0.064 0.048-0.025 0.018-0.052 0.034-0.079 0.051-0.023 0.015-0.046 0.030-0.071 0.044-0.028 0.016-0.057 0.031-0.087 0.047-0.026 0.014-0.051 0.027-0.077 0.040-0.031 0.015-0.063 0.028-0.095 0.042-0.027 0.012-0.054 0.024-0.082 0.035-0.034 0.013-0.069 0.025-0.104 0.038-0.028 0.010-0.056 0.021-0.085 0.030-0.036 0.012-0.074 0.022-0.111 0.032-0.030 0.008-0.058 0.017-0.088 0.025-0.039 0.010-0.079 0.018-0.119 0.026-0.030 0.007-0.059 0.014-0.090 0.019-0.043 0.008-0.087 0.014-0.131 0.020-0.028 0.004-0.057 0.009-0.086 0.013-0.049 0.006-0.099 0.010-0.149 0.014-0.025 0.002-0.049 0.005-0.075 0.007-0.075 0.005-0.152 0.007-0.229 0.007-0.144-0.001-0.284-0.010-0.423-0.026l0.018 0.002c-0.040-0.004-0.079-0.011-0.119-0.017-0.052-0.007-0.103-0.019-0.154-0.028v-0.527c0.019 0.003 0.038 0.004 0.057 0.007 0.073 0.011 0.147 0.020 0.221 0.027 0.031 0.003 0.061 0.006 0.092 0.008 0.102 0.008 0.205 0.012 0.308 0.012 0.111 0 0.22-0.005 0.327-0.013 0.035-0.002 0.068-0.007 0.103-0.010 0.072-0.007 0.144-0.015 0.214-0.025 0.039-0.006 0.076-0.012 0.114-0.019 0.193-0.034 0.358-0.076 0.519-0.129l-0.027 0.008c0.030-0.010 0.061-0.018 0.091-0.029 0.087-0.030 0.171-0.063 0.252-0.099l0.010-0.004c0.084-0.037 0.164-0.078 0.241-0.121 0.025-0.014 0.047-0.029 0.071-0.043 0.051-0.031 0.101-0.063 0.149-0.096zM11.101 12.089c-0.005 0.023-0.011 0.045-0.018 0.068-0.006 0.021-0.012 0.042-0.020 0.063-0.012 0.029-0.022 0.050-0.032 0.072l0.002-0.005c-0.010 0.020-0.019 0.041-0.030 0.061-0.015 0.026-0.028 0.047-0.043 0.067l0.002-0.003c-0.013 0.020-0.025 0.039-0.040 0.058-0.018 0.023-0.034 0.043-0.052 0.062l0.001-0.001c-0.016 0.018-0.031 0.037-0.049 0.055-0.019 0.020-0.040 0.039-0.061 0.059-0.018 0.017-0.036 0.035-0.056 0.052-0.022 0.019-0.047 0.037-0.071 0.055-0.021 0.016-0.041 0.032-0.064 0.048-0.025 0.018-0.052 0.034-0.079 0.051-0.023 0.015-0.046 0.030-0.071 0.044-0.028 0.016-0.057 0.031-0.087 0.047-0.026 0.014-0.051 0.027-0.077 0.040-0.031 0.015-0.063 0.028-0.095 0.042-0.027 0.012-0.054 0.024-0.082 0.035-0.034 0.013-0.069 0.025-0.104 0.038-0.028 0.010-0.056 0.021-0.085 0.030-0.036 0.012-0.074 0.022-0.111 0.032-0.030 0.008-0.058 0.017-0.088 0.025-0.039 0.010-0.079 0.018-0.119 0.026-0.030 0.007-0.059 0.014-0.090 0.019-0.043 0.008-0.087 0.014-0.131 0.020-0.028 0.004-0.057 0.009-0.086 0.013-0.049 0.006-0.099 0.010-0.149 0.014-0.025 0.002-0.049 0.005-0.075 0.007-0.069 0.005-0.15 0.008-0.231 0.008-0.080 0-0.159-0.003-0.238-0.008l0.011 0.001c-0.025-0.002-0.050-0.005-0.075-0.007-0.050-0.004-0.1-0.008-0.149-0.014-0.029-0.004-0.057-0.009-0.086-0.013-0.044-0.007-0.088-0.012-0.131-0.020-0.030-0.006-0.060-0.013-0.090-0.019-0.040-0.008-0.080-0.017-0.119-0.026-0.030-0.008-0.059-0.017-0.088-0.025-0.037-0.011-0.075-0.021-0.112-0.032-0.029-0.009-0.056-0.020-0.085-0.030-0.035-0.012-0.070-0.024-0.104-0.038-0.028-0.011-0.055-0.024-0.082-0.035-0.032-0.014-0.064-0.027-0.095-0.042-0.027-0.013-0.052-0.027-0.077-0.040-0.029-0.015-0.059-0.030-0.087-0.047-0.024-0.014-0.047-0.029-0.071-0.044-0.027-0.017-0.054-0.033-0.079-0.051-0.022-0.015-0.043-0.032-0.064-0.048-0.024-0.018-0.048-0.036-0.071-0.055-0.020-0.017-0.038-0.034-0.056-0.052-0.021-0.019-0.042-0.039-0.061-0.059-0.017-0.018-0.033-0.037-0.048-0.055-0.017-0.020-0.035-0.040-0.051-0.061-0.014-0.019-0.027-0.039-0.040-0.058-0.014-0.021-0.028-0.042-0.041-0.064-0.011-0.020-0.021-0.040-0.030-0.061-0.008-0.016-0.018-0.038-0.027-0.060l-0.002-0.006c-0.008-0.021-0.014-0.042-0.020-0.063-0.007-0.023-0.014-0.045-0.018-0.068-0.004-0.021-0.007-0.043-0.009-0.065-0.001-0.011-0.003-0.027-0.004-0.043l-0-0.002c0.012 0.011 0.025 0.020 0.037 0.030 0.040 0.035 0.082 0.069 0.126 0.102 0.024 0.018 0.049 0.037 0.074 0.055 0.048 0.033 0.098 0.065 0.149 0.096 0.024 0.014 0.047 0.029 0.071 0.043 0.077 0.043 0.157 0.084 0.241 0.121l0.009 0.004c0.081 0.036 0.166 0.069 0.253 0.099 0.030 0.010 0.060 0.019 0.091 0.029 0.062 0.020 0.126 0.039 0.191 0.056 0.070 0.020 0.172 0.042 0.275 0.061l0.026 0.004c0.088 0.017 0.2 0.033 0.314 0.043l0.015 0.001c0.034 0.003 0.068 0.008 0.102 0.010 0.099 0.008 0.214 0.013 0.331 0.013 0.114 0 0.227-0.005 0.339-0.013l-0.015 0.001c0.035-0.002 0.068-0.007 0.103-0.010 0.072-0.007 0.144-0.015 0.214-0.025 0.039-0.006 0.076-0.012 0.114-0.019 0.193-0.034 0.358-0.076 0.519-0.129l-0.027 0.008c0.030-0.010 0.061-0.018 0.091-0.029 0.087-0.030 0.171-0.063 0.252-0.099l0.010-0.004c0.084-0.037 0.164-0.078 0.241-0.121 0.025-0.014 0.047-0.029 0.071-0.043 0.051-0.031 0.101-0.062 0.149-0.095 0.025-0.018 0.050-0.036 0.075-0.055 0.044-0.033 0.085-0.067 0.125-0.101 0.012-0.011 0.026-0.020 0.038-0.030-0.001 0.017-0.002 0.033-0.004 0.048l0-0.003c-0.003 0.021-0.005 0.043-0.009 0.065zM5.748 11.099c-0.096 0.011-0.209 0.018-0.322 0.019l-0.001 0c-0.128 0-0.254-0.009-0.379-0.024-0.040-0.005-0.080-0.012-0.119-0.018-0.151-0.023-0.281-0.052-0.408-0.089l0.023 0.006c-0.079-0.022-0.156-0.048-0.232-0.076-0.041-0.015-0.082-0.028-0.122-0.045-0.128-0.052-0.232-0.103-0.333-0.158l0.016 0.008c-0.031-0.017-0.061-0.038-0.092-0.056-0.089-0.052-0.161-0.099-0.232-0.148l0.011 0.007c-0.036-0.025-0.071-0.052-0.106-0.079-0.076-0.059-0.142-0.114-0.206-0.172l0.003 0.003c-0.025-0.023-0.050-0.044-0.075-0.068-0.055-0.053-0.106-0.111-0.157-0.169l0.838-0.921c0.113-0.124 0.268-0.187 0.401-0.164 0.012 0.002 0.025 0.005 0.037 0.008 0.041 0.032 0.129 0.113 0.189 0.168 0.148 0.136 0.244 0.223 0.322 0.275 0.153 0.295 0.366 0.412 0.523 0.458 0.191 0.055 0.405 0.038 0.64-0.046v1.248c-0.029 0.005-0.058 0.011-0.088 0.015-0.043 0.007-0.087 0.013-0.131 0.017zM2.185 7.566c0.002-0.025 0.005-0.050 0.008-0.074 0.010-0.086 0.023-0.17 0.039-0.254 0.002-0.013 0.004-0.025 0.007-0.038 0.020-0.096 0.045-0.191 0.073-0.283 0.006-0.020 0.013-0.039 0.019-0.058 0.024-0.072 0.050-0.143 0.078-0.213 0.011-0.026 0.021-0.052 0.032-0.078 0.032-0.074 0.067-0.146 0.104-0.217 0.020-0.037 0.040-0.072 0.061-0.108 0.023-0.039 0.046-0.078 0.071-0.116l0.002-0.003 0.782 0.859c0.2 0.22 0.466 0.338 0.732 0.339 0.103-0.001 0.201-0.020 0.293-0.052l-0.006 0.002c0.113-0.039 0.188-0.128 0.268-0.222 0.135-0.158 0.242-0.27 0.405-0.27 0.281 0 0.538 0.108 0.73 0.284l-0.001-0.001 0.29 0.299 0.136-0.385c0.065-0.081 0.371-0.188 0.558-0.209 0.105 0.284 0.292 0.968-0.040 1.625-0.019 0.012-0.038 0.024-0.056 0.037-0.033 0.023-0.064 0.047-0.096 0.071-0.028 0.021-0.056 0.041-0.082 0.063-0.030 0.025-0.058 0.051-0.086 0.077-0.024 0.023-0.050 0.044-0.072 0.068-0.027 0.027-0.051 0.056-0.075 0.084-0.021 0.024-0.043 0.047-0.062 0.071-0.023 0.029-0.043 0.060-0.064 0.090-0.017 0.025-0.036 0.049-0.051 0.074-0.020 0.032-0.036 0.066-0.053 0.098l-0.003 0.006c-0.27 0.177-0.505 0.254-0.648 0.212-0.033-0.009-0.132-0.038-0.218-0.241l-0.062-0.146-0.109-0.012c-0.057-0.043-0.169-0.146-0.24-0.211-0.189-0.174-0.269-0.246-0.359-0.276-0.039-0.014-0.087-0.026-0.136-0.035l-0.006-0.001c-0.32-0.056-0.655 0.068-0.895 0.333l-0.773 0.85-0.002-0.002c-0.039-0.059-0.084-0.135-0.126-0.212l-0.009-0.019c-0.028-0.051-0.062-0.12-0.093-0.19l-0.008-0.020c-0.012-0.026-0.022-0.053-0.033-0.080-0.020-0.047-0.047-0.117-0.070-0.187l-0.007-0.023c-0.007-0.020-0.014-0.040-0.020-0.060-0.023-0.070-0.048-0.165-0.069-0.261l-0.004-0.022c-0.003-0.013-0.004-0.026-0.007-0.039-0.016-0.083-0.029-0.168-0.039-0.254-0.003-0.025-0.006-0.049-0.008-0.074-0.009-0.098-0.015-0.197-0.015-0.298s0.006-0.2 0.015-0.298zM6.676 11.026c0.024 0.018 0.049 0.037 0.074 0.055 0.048 0.033 0.098 0.065 0.149 0.096 0.024 0.014 0.047 0.029 0.071 0.043 0.077 0.043 0.157 0.084 0.241 0.121l0.009 0.004c0.081 0.036 0.166 0.069 0.253 0.099 0.030 0.010 0.060 0.019 0.091 0.029 0.062 0.020 0.126 0.039 0.191 0.056 0.070 0.020 0.172 0.042 0.275 0.061l0.026 0.004c0.088 0.017 0.2 0.033 0.314 0.043l0.015 0.001c0.034 0.003 0.068 0.008 0.102 0.010 0.099 0.008 0.214 0.013 0.331 0.013 0.114 0 0.227-0.005 0.338-0.013l-0.015 0.001c0.035-0.002 0.068-0.007 0.103-0.010 0.072-0.007 0.144-0.015 0.214-0.025 0.039-0.006 0.076-0.012 0.114-0.019 0.193-0.034 0.358-0.076 0.519-0.129l-0.027 0.008c0.030-0.010 0.061-0.018 0.091-0.029 0.087-0.030 0.171-0.063 0.252-0.099l0.010-0.004c0.084-0.037 0.164-0.078 0.241-0.121 0.025-0.014 0.047-0.029 0.071-0.043 0.051-0.031 0.101-0.062 0.149-0.095 0.025-0.018 0.050-0.036 0.075-0.055 0.044-0.033 0.085-0.067 0.125-0.101 0.012-0.011 0.026-0.020 0.038-0.030-0.001 0.017-0.002 0.033-0.004 0.048l0-0.003c-0.003 0.022-0.005 0.044-0.009 0.065-0.005 0.023-0.011 0.045-0.018 0.068-0.006 0.021-0.012 0.042-0.020 0.063-0.012 0.029-0.022 0.050-0.032 0.072l0.002-0.005c-0.010 0.020-0.019 0.041-0.030 0.061-0.015 0.026-0.028 0.047-0.043 0.067l0.002-0.003c-0.013 0.020-0.025 0.039-0.040 0.058-0.018 0.023-0.034 0.043-0.052 0.062l0.001-0.001c-0.016 0.018-0.031 0.037-0.049 0.055-0.019 0.020-0.040 0.039-0.061 0.059-0.018 0.017-0.036 0.035-0.056 0.052-0.022 0.019-0.047 0.037-0.071 0.055-0.021 0.016-0.041 0.032-0.064 0.048-0.025 0.018-0.052 0.034-0.079 0.051-0.023 0.015-0.046 0.030-0.071 0.044-0.028 0.016-0.057 0.031-0.087 0.047-0.026 0.014-0.051 0.027-0.077 0.040-0.031 0.015-0.063 0.028-0.095 0.042-0.027 0.012-0.054 0.024-0.082 0.035-0.034 0.013-0.069 0.025-0.104 0.038-0.028 0.010-0.056 0.021-0.085 0.030-0.036 0.012-0.074 0.022-0.111 0.032-0.030 0.008-0.058 0.017-0.088 0.025-0.039 0.010-0.079 0.018-0.119 0.026-0.030 0.007-0.059 0.014-0.090 0.019-0.043 0.008-0.087 0.014-0.131 0.020-0.028 0.004-0.057 0.009-0.086 0.013-0.049 0.006-0.099 0.010-0.149 0.014-0.025 0.002-0.049 0.005-0.075 0.007-0.068 0.004-0.147 0.006-0.227 0.006-0.082 0-0.162-0.002-0.243-0.007l0.011 0.001c-0.025-0.002-0.050-0.005-0.075-0.007-0.050-0.004-0.1-0.008-0.149-0.014-0.029-0.004-0.057-0.009-0.086-0.013-0.044-0.007-0.088-0.012-0.131-0.020-0.030-0.006-0.060-0.013-0.090-0.019-0.040-0.008-0.080-0.017-0.119-0.026-0.030-0.008-0.059-0.017-0.088-0.025-0.037-0.011-0.075-0.021-0.112-0.032-0.029-0.009-0.056-0.020-0.085-0.030-0.035-0.012-0.070-0.024-0.104-0.038-0.028-0.011-0.055-0.024-0.082-0.035-0.032-0.014-0.064-0.027-0.095-0.042-0.027-0.013-0.052-0.027-0.077-0.040-0.029-0.015-0.059-0.030-0.087-0.047-0.024-0.014-0.047-0.029-0.071-0.044-0.027-0.017-0.054-0.033-0.079-0.051-0.022-0.015-0.043-0.032-0.064-0.048-0.024-0.018-0.048-0.036-0.071-0.055-0.020-0.017-0.038-0.034-0.056-0.052-0.021-0.019-0.042-0.039-0.061-0.059-0.017-0.018-0.033-0.037-0.048-0.055-0.017-0.020-0.035-0.040-0.051-0.061-0.014-0.019-0.027-0.039-0.040-0.058-0.014-0.021-0.028-0.042-0.041-0.064-0.011-0.020-0.021-0.040-0.030-0.061-0.008-0.016-0.018-0.038-0.027-0.060l-0.002-0.006c-0.008-0.021-0.014-0.042-0.020-0.063-0.007-0.023-0.014-0.045-0.018-0.068-0.004-0.021-0.007-0.043-0.009-0.065-0.001-0.011-0.003-0.027-0.004-0.043l-0-0.002c0.012 0.011 0.025 0.020 0.037 0.030 0.041 0.035 0.082 0.069 0.126 0.102zM8.459 7.88c-0.116 0.010-0.212 0.021-0.307 0.034l0.027-0.003c-0.071 0.010-0.119 0.019-0.167 0.028l0.025-0.004c-0.042 0.008-0.085 0.015-0.126 0.025-0.046 0.010-0.092 0.021-0.137 0.033-0.107 0.026-0.191 0.052-0.273 0.080l0.022-0.007-0.014 0.005c0.184-0.886-0.197-1.646-0.217-1.686l-0.053-0.104-0.112-0.033c-0.233-0.068-0.769 0.032-1.088 0.253-0.25-0.166-0.556-0.264-0.886-0.264-0 0-0 0-0.001 0h0c-0.427 0-0.682 0.3-0.818 0.462-0.022 0.026-0.041 0.050-0.059 0.068-0.027 0.007-0.058 0.011-0.090 0.012h-0c-0.116-0.004-0.227-0.057-0.322-0.162l-0.847-0.929c0.052-0.057 0.102-0.116 0.157-0.168 0.024-0.023 0.050-0.045 0.075-0.068 0.065-0.059 0.133-0.116 0.203-0.169 0.035-0.027 0.070-0.054 0.106-0.079 0.072-0.050 0.146-0.097 0.221-0.141 0.031-0.018 0.060-0.039 0.092-0.056 0.084-0.047 0.188-0.097 0.295-0.142l0.022-0.008c0.040-0.017 0.081-0.030 0.122-0.045 0.076-0.028 0.154-0.054 0.232-0.076 0.104-0.031 0.234-0.060 0.367-0.081l0.018-0.002c0.040-0.006 0.079-0.014 0.119-0.018 0.125-0.015 0.251-0.024 0.379-0.024s0.254 0.009 0.379 0.024c0.040 0.005 0.080 0.012 0.119 0.018 0.151 0.023 0.281 0.052 0.408 0.089l-0.023-0.006c0.079 0.022 0.156 0.048 0.232 0.076 0.041 0.015 0.082 0.028 0.122 0.045 0.108 0.044 0.214 0.094 0.316 0.15 0.031 0.017 0.061 0.038 0.092 0.056 0.075 0.044 0.149 0.091 0.221 0.141 0.036 0.025 0.071 0.052 0.106 0.079 0.070 0.054 0.137 0.11 0.203 0.169 0.025 0.023 0.050 0.044 0.075 0.068 0.185 0.179 0.349 0.378 0.488 0.594l0.008 0.013c0.318 0.492 0.507 1.092 0.507 1.737v0.002c-0.028 0.001-0.055 0.004-0.084 0.005-0.046 0.002-0.091 0.005-0.136 0.008zM2.712 10.519c0.004 0.004 0.008 0.007 0.011 0.010 0.095 0.096 0.194 0.187 0.299 0.273 0.037 0.030 0.076 0.057 0.114 0.085 0.069 0.052 0.139 0.104 0.211 0.152 0.050 0.033 0.102 0.063 0.154 0.094 0.164 0.1 0.355 0.194 0.554 0.27l0.024 0.008c0.056 0.021 0.111 0.043 0.168 0.061 0.080 0.026 0.162 0.047 0.245 0.068 0.051 0.013 0.101 0.028 0.152 0.039 0.13 0.027 0.262 0.048 0.397 0.062 0.044 0.004 0.090 0.004 0.135 0.007 0.082 0.005 0.164 0.013 0.248 0.013 0.013 0 0.027-0.002 0.040-0.002 0.075-0.001 0.151-0.008 0.226-0.014 0.071-0.005 0.141-0.009 0.212-0.018 0.021-0.003 0.043-0.002 0.064-0.005v2.209h-1.632c-0.070-0.866-0.756-1.552-1.616-1.622l-0.006-0v-1.69zM11.932 0.542v4.088c-0.11 0.010-0.203 0.022-0.295 0.037l0.024-0.003v-4.122h0.271zM11.119 0.542v4.247c-0.094 0.029-0.184 0.061-0.271 0.096v-4.343h0.271zM10.305 0.542v4.626c-0.101 0.069-0.19 0.14-0.273 0.217l0.001-0.001v-4.842h0.271zM1.356 15.186v-14.644h8.136v7.376h-0.001c-0.067-0.012-0.16-0.023-0.254-0.032l-0.017-0.001c0-0.007 0.001-0.014 0.001-0.021 0-0.712-0.2-1.376-0.542-1.945v-2.969l-0.296 0.027c-0.037 0.003-0.073 0.006-0.111 0.006-0.674-0.001-1.22-0.547-1.22-1.22v-0c0-0.038 0.003-0.075 0.006-0.112l0.026-0.295h-3.318l0.026 0.295c0.003 0.037 0.006 0.074 0.006 0.112 0 0.673-0.548 1.22-1.22 1.22-0.037 0-0.074-0.002-0.111-0.006l-0.296-0.027v2.969c-0.077 0.124-0.155 0.271-0.223 0.423l-0.010 0.024c-0.013 0.030-0.024 0.062-0.037 0.093-0.032 0.079-0.061 0.158-0.087 0.238-0.011 0.034-0.021 0.068-0.031 0.102-0.053 0.172-0.096 0.376-0.122 0.586l-0.002 0.018c-0.004 0.034-0.009 0.068-0.013 0.102-0.011 0.119-0.018 0.238-0.018 0.359s0.007 0.241 0.018 0.359c0.003 0.034 0.009 0.068 0.013 0.102 0.010 0.085 0.023 0.17 0.039 0.254 0.027 0.143 0.057 0.261 0.092 0.376l-0.007-0.026c0.010 0.034 0.020 0.068 0.031 0.102 0.026 0.081 0.056 0.16 0.087 0.238 0.012 0.031 0.023 0.062 0.037 0.093 0.078 0.176 0.156 0.323 0.243 0.463l-0.009-0.016v2.969l0.296-0.027c0.037-0.003 0.073-0.006 0.111-0.006 0.673 0 1.22 0.548 1.22 1.22 0 0.038-0.003 0.075-0.006 0.112l-0.026 0.295h2.231c0.005 0.023 0.011 0.045 0.017 0.068 0.007 0.027 0.014 0.055 0.023 0.081 0.007 0.022 0.016 0.043 0.024 0.065 0.084 0.218 0.22 0.421 0.404 0.599h-5.108zM7.424 15.173c-0.080-0.036-0.142-0.068-0.203-0.102l0.014 0.007c-0.024-0.013-0.046-0.027-0.068-0.041-0.069-0.042-0.127-0.082-0.183-0.125l0.005 0.003c-0.019-0.014-0.039-0.028-0.057-0.043-0.025-0.021-0.047-0.043-0.070-0.064-0.022-0.020-0.043-0.041-0.063-0.061l-0-0c-0.039-0.041-0.076-0.086-0.11-0.133l-0.003-0.004c-0.013-0.019-0.027-0.038-0.039-0.057-0.018-0.028-0.036-0.061-0.052-0.095l-0.003-0.006c-0.006-0.012-0.013-0.024-0.018-0.037-0.018-0.041-0.033-0.089-0.045-0.139l-0.001-0.006c-0.003-0.012-0.003-0.025-0.005-0.038-0.004-0.024-0.007-0.052-0.009-0.081l-0-0.002c0.011 0.010 0.025 0.020 0.037 0.030 0.040 0.035 0.082 0.069 0.126 0.102 0.024 0.018 0.049 0.037 0.074 0.055 0.048 0.033 0.098 0.065 0.149 0.096 0.024 0.014 0.047 0.029 0.071 0.043 0.077 0.043 0.157 0.084 0.241 0.121l0.009 0.004c0.081 0.036 0.166 0.069 0.253 0.099 0.030 0.010 0.060 0.019 0.091 0.029 0.062 0.020 0.126 0.039 0.191 0.056 0.070 0.020 0.172 0.042 0.275 0.061l0.026 0.004c0.088 0.017 0.2 0.033 0.314 0.043l0.015 0.001c0.034 0.003 0.068 0.008 0.102 0.010 0.099 0.008 0.214 0.013 0.33 0.013 0.114 0 0.227-0.005 0.338-0.014l-0.015 0.001c0.035-0.002 0.068-0.007 0.103-0.010 0.072-0.007 0.144-0.015 0.214-0.025 0.039-0.006 0.076-0.012 0.114-0.019 0.193-0.034 0.358-0.076 0.519-0.129l-0.027 0.008c0.030-0.010 0.061-0.018 0.091-0.029 0.087-0.030 0.171-0.063 0.252-0.099l0.010-0.004c0.084-0.037 0.164-0.078 0.241-0.121 0.025-0.014 0.047-0.029 0.071-0.043 0.051-0.031 0.101-0.062 0.149-0.095 0.025-0.018 0.050-0.036 0.075-0.055 0.044-0.033 0.085-0.067 0.125-0.101 0.012-0.010 0.025-0.019 0.037-0.030-0.002 0.028-0.004 0.056-0.009 0.085-0.001 0.007-0.002 0.014-0.003 0.021-0.013 0.058-0.029 0.107-0.049 0.155l0.002-0.006-0.001 0.001c-0.073 0.18-0.21 0.35-0.4 0.5l-0.016 0.012c-0.053 0.041-0.114 0.083-0.177 0.121l-0.009 0.005c-0.013 0.008-0.025 0.017-0.039 0.024l-0.006 0.003c-0.418 0.238-0.983 0.387-1.594 0.387-0.517 0-1-0.107-1.39-0.284zM12.339 15.458c-0.442 0-0.867-0.076-1.236-0.218 0.142-0.127 0.261-0.267 0.351-0.417l0.015 0.002c0.125 0.027 0.253 0.046 0.382 0.061 0.028 0.003 0.057 0.006 0.085 0.008 0.133 0.012 0.267 0.021 0.403 0.021 0.111 0 0.22-0.005 0.327-0.013 0.035-0.002 0.068-0.007 0.103-0.010 0.072-0.007 0.144-0.015 0.214-0.025 0.039-0.006 0.076-0.012 0.114-0.019 0.193-0.034 0.358-0.076 0.519-0.129l-0.027 0.008c0.030-0.010 0.061-0.018 0.091-0.029 0.087-0.030 0.171-0.063 0.252-0.099l0.010-0.004c0.084-0.037 0.164-0.078 0.241-0.121 0.025-0.014 0.047-0.029 0.071-0.043 0.051-0.031 0.101-0.062 0.149-0.095 0.025-0.018 0.050-0.036 0.075-0.055 0.044-0.033 0.085-0.067 0.125-0.101 0.013-0.011 0.028-0.021 0.040-0.033-0.041 0.715-1.079 1.311-2.304 1.311z"></path>
</symbol>
<symbol id="icon-menu" viewBox="0 0 32 32">
<path d="M2 6h28v6h-28zM2 14h28v6h-28zM2 22h28v6h-28z"></path>
</symbol>
<symbol id="icon-cross" viewBox="0 0 32 32">
<path d="M31.708 25.708c-0-0-0-0-0-0l-9.708-9.708 9.708-9.708c0-0 0-0 0-0 0.105-0.105 0.18-0.227 0.229-0.357 0.133-0.356 0.057-0.771-0.229-1.057l-4.586-4.586c-0.286-0.286-0.702-0.361-1.057-0.229-0.13 0.048-0.252 0.124-0.357 0.228 0 0-0 0-0 0l-9.708 9.708-9.708-9.708c-0-0-0-0-0-0-0.105-0.104-0.227-0.18-0.357-0.228-0.356-0.133-0.771-0.057-1.057 0.229l-4.586 4.586c-0.286 0.286-0.361 0.702-0.229 1.057 0.049 0.13 0.124 0.252 0.229 0.357 0 0 0 0 0 0l9.708 9.708-9.708 9.708c-0 0-0 0-0 0-0.104 0.105-0.18 0.227-0.229 0.357-0.133 0.355-0.057 0.771 0.229 1.057l4.586 4.586c0.286 0.286 0.702 0.361 1.057 0.229 0.13-0.049 0.252-0.124 0.357-0.229 0-0 0-0 0-0l9.708-9.708 9.708 9.708c0 0 0 0 0 0 0.105 0.105 0.227 0.18 0.357 0.229 0.356 0.133 0.771 0.057 1.057-0.229l4.586-4.586c0.286-0.286 0.362-0.702 0.229-1.057-0.049-0.13-0.124-0.252-0.229-0.357z"></path>
</symbol>
</defs>
</svg>
