<svg xmlns="http://www.w3.org/2000/svg" aria-hidden="true" style="position:absolute;width:0;height:0;overflow:hidden"><defs><symbol id="icon-Building" viewBox="0 0 32 32"><path d="M8.533 30.4H16V20.267H8.533V30.4zM9.6 21.333h5.333v8H9.6v-8zM21.867 17.6h.001c.147 0 .28-.06.377-.156l2.133-2.133a.535.535 0 0 0-.377-.91.533.533 0 0 0-.377.156l-2.133 2.133a.533.533 0 0 0 .376.911h.001zm0 2.667h.001c.147 0 .28-.06.377-.156l1.067-1.067a.533.533 0 0 0-.754-.754l-1.067 1.067a.533.533 0 0 0 .376.911h.001zm1.754-3.046a.545.545 0 0 0-.155.379c0 .139.058.277.155.379.101.096.24.155.379.155s.277-.059.379-.155c.096-.101.155-.24.155-.379s-.059-.278-.155-.379a.559.559 0 0 0-.757 0zm1.069-.311a.53.53 0 0 0 .754 0l1.6-1.6a.535.535 0 0 0-.377-.91.533.533 0 0 0-.377.156l-1.6 1.6a.533.533 0 0 0 0 .754zm1.6.313-4.8 4.8a.533.533 0 0 0 .754.754l4.8-4.8a.533.533 0 0 0-.754-.754zm1.065-.311a.56.56 0 0 0 .379.155.553.553 0 0 0 .379-.155.56.56 0 0 0 .155-.379.55.55 0 0 0-.155-.379.559.559 0 0 0-.757 0 .545.545 0 0 0-.155.379c0 .139.058.277.155.379z"/><path d="M31.951 6.245a.654.654 0 0 0-.025-.178l.001.005-.078.022-.003-.004.079-.023C31.038 2.894 28.379.526 25.108.08l-.043-.005V0L7.997.001A8.245 8.245 0 0 0 .074 6.06a.681.681 0 0 0-.024.18.627.627 0 0 0-.052.245V32h32V6.485a.61.61 0 0 0-.049-.241zm-7.455-5.157a7.178 7.178 0 0 1 6.237 4.729l.016.05h-6.858a7.7 7.7 0 0 0-3.518-4.781l-.035-.019h3.649l.509.021zm-1.563 6.379c0 .439-.089.859-.25 1.24l-.037.078-.027.057a3.192 3.192 0 0 1-.5.751l.003-.003-.005.005a3.215 3.215 0 0 1-1.864 1.026l-.019.003-.084.013c-.138.019-.276.03-.417.03s-.281-.012-.42-.031l-.088-.013a3.39 3.39 0 0 1-.397-.088l-.017-.004-.046-.014a3.212 3.212 0 0 1-2.232-3.049v-.534h6.4v.533zm5.224 4.245.03-.003c.046-.005.091-.014.137-.021.083-.012.166-.022.247-.038l.055-.012c.052-.011.102-.026.153-.039.065-.017.13-.031.193-.05l.078-.026c.052-.017.102-.037.153-.055.043-.015.086-.028.129-.045v14.711H19.199V11.7c.01.001.02 0 .03.002.165.019.332.032.503.032.027 0 .053-.004.08-.004l.052-.003c.134-.004.267-.013.398-.03.05-.006.1-.015.149-.023.132-.021.261-.049.388-.082.044-.011.089-.021.132-.034.164-.048.324-.104.479-.171.024-.01.046-.023.069-.034.32-.147.596-.315.849-.511l-.01.007c.029-.022.06-.043.089-.067.13-.105.252-.217.369-.335l.076-.083c.118-.127.232-.265.337-.409l.009-.013c.076-.106.146-.215.212-.327l.011-.017h.085l.013.02c.105.176.208.326.319.469l-.007-.01c.077.099.158.194.244.286.026.028.05.057.076.083.116.119.239.231.369.335l.085.064c.095.074.203.149.315.22l.017.01.127.077c.124.072.252.139.385.198l.069.034c.155.067.315.123.479.171l.087.025.046.01c.127.033.256.06.388.081.037.006.073.015.11.02l.049.004c.171.022.343.036.521.036h.533c.142 0 .284-.007.424-.021zm-13.224-.918v7.339H9.6v-7.339l.003.003.045.034c.039.03.08.059.12.088.101.075.219.152.34.224l.02.011c.025.014.049.03.074.045.063.035.128.065.193.097.047.023.094.048.143.069l.05.023c.052.022.106.04.158.06.103.042.239.089.377.128l.03.007c.046.013.094.023.141.034.08.021.192.043.306.062l.025.003c.037.006.075.011.113.015l.131.017a3.987 3.987 0 0 0 .816-.002l-.017.001c.044-.004.087-.011.131-.017l.113-.015a3.506 3.506 0 0 0 .356-.07l-.025.005c.047-.011.094-.021.141-.034.119-.033.2-.058.28-.086l-.036.011c.055-.019.109-.039.163-.06.053-.02.107-.038.158-.06l.05-.023c.049-.021.095-.046.143-.07.065-.031.13-.062.192-.097.025-.014.05-.03.074-.045a4.05 4.05 0 0 0 .371-.243l-.012.008c.04-.029.081-.058.12-.088.015-.012.031-.022.045-.034l.003-.002zM9.067 6.933h6.4v.536c0 .665-.204 1.282-.552 1.792l.007-.011-.007.01c-.017.025-.037.049-.055.073a2.996 2.996 0 0 1-.188.236l.003-.004c-.021.025-.044.049-.066.072a2.923 2.923 0 0 1-.194.192l-.003.002-.062.056a3.187 3.187 0 0 1-.583.401l-.044.022a3.18 3.18 0 0 1-.347.153l-.023.008a2.827 2.827 0 0 1-.336.103l-.023.005c-.09.021-.181.037-.273.05l-.09.014a3.147 3.147 0 0 1-.728 0c-.03-.003-.06-.01-.09-.014a3.074 3.074 0 0 1-.295-.055l.022.004-.091-.023a3.27 3.27 0 0 1-.29-.091l.021.007-.073-.027a2.873 2.873 0 0 1-.315-.142l.017.008-.027-.013a3.302 3.302 0 0 1-.605-.413l.004.003-.062-.056a3.295 3.295 0 0 1-.441-.49l-.006-.009-.055-.073-.007-.01a3.155 3.155 0 0 1-.545-1.781v-.537zm7.466-5.866a6.613 6.613 0 0 1 6.251 4.753l.012.047h-6.262V1.068zm-1.066 4.8H9.205c.804-2.763 3.295-4.756 6.257-4.799h.005v4.799zm-7.455-4.8h3.649A7.691 7.691 0 0 0 8.12 5.814l-.011.053H1.253a7.185 7.185 0 0 1 6.76-4.8zM1.067 6.933H8v.533a3.206 3.206 0 0 1-2.209 3.043l-.023.006-.046.014-.017.004a2.932 2.932 0 0 1-.379.086l-.018.002c-.029.005-.058.01-.088.013-.125.019-.271.03-.419.031h-.535a3.167 3.167 0 0 1-.556-.052l.019.003a2.914 2.914 0 0 1-.441-.104l.022.006-.005-.002a3.166 3.166 0 0 1-.422-.17l.019.008-.073-.035a3.201 3.201 0 0 1-1.762-2.854v-.533zm1.6 4.489c.042.017.086.029.129.045.051.019.101.038.153.055l.078.026c.064.019.129.034.193.05.051.013.101.028.153.039l.055.012c.082.017.165.027.247.038.046.006.091.016.137.021l.03.003c.141.014.282.022.425.022H4.8c.169 0 .334-.012.498-.031.012-.002.023-.001.035-.002v14.434H2.666V11.423zM1.067 28.8h1.6v2.133h-1.6V28.8zm3.733 0v2.133H3.733V28.8H4.8zm1.067 2.133V28.8h1.067v2.133H5.867zM29.333 28.8v2.133h-1.067V28.8h1.067zM27.2 30.933h-1.067V28.8H27.2v2.133zm-2.133 0H24V28.8h1.067v2.133zm-2.134 0h-1.067V28.8h1.067v2.133zm-2.133 0h-1.067V28.8H20.8v2.133zm-2.133 0H17.6V28.8h1.067v2.133zm12.266 0H30.4V28.8h.533v2.133zm0-20.647v17.447h-14.4v3.2H8v-3.2H1.067V10.286c.027.03.058.058.085.087.054.058.109.116.167.171.046.044.093.086.141.129.046.04.092.081.14.119V27.2h4.8V11.419l.079-.031c.024-.01.046-.023.069-.034.32-.147.596-.315.849-.511l-.01.007c.029-.022.06-.043.089-.067.13-.105.252-.217.369-.335l.076-.083c.118-.127.232-.265.337-.409l.009-.013c.074-.102.151-.22.222-.342l.011-.02c.01-.018.023-.034.033-.051v9.67H16V9.531c.01.018.023.034.033.051.173.297.364.554.581.787l-.002-.003c.026.028.05.057.076.083.116.119.239.231.369.335l.089.067a4.342 4.342 0 0 0 .839.503l.069.034.079.031v15.78H30.4V10.791c.048-.038.093-.079.14-.119.052-.045.098-.087.143-.13l-.002.001c.058-.055.113-.113.167-.171.028-.029.059-.057.085-.087zm-1.379-.191a3.36 3.36 0 0 1-.382.226l-.073.035c-.11.055-.243.11-.381.155l-.022.006-.005.002a2.93 2.93 0 0 1-.506.112l-.016.002a3.3 3.3 0 0 1-.435.033h-.533c-.14 0-.279-.012-.417-.03l-.084-.013a3.23 3.23 0 0 1-1.88-1.025l-.003-.003-.005-.005a3.197 3.197 0 0 1-.489-.729l-.008-.019-.027-.057-.037-.078a3.13 3.13 0 0 1-.25-1.236v-.537h6.933v.533a3.197 3.197 0 0 1-1.369 2.622l-.01.007z"/><path d="M6.933 12.267H8v14.4H6.933zm9.6 0H17.6v14.4h-1.067z"/></symbol><symbol id="icon-court" viewBox="0 0 32 32"><path d="M20.622 14.359c-.206.201-.32.469-.322.757v.009c0 .294.119.56.313.752l.665.665c.161.162.369.277.601.324l.008.001c.045.223.153.436.325.608l.575.575c.225.226.525.349.844.349s.619-.124.844-.349l4.723-4.723c.216-.216.349-.514.349-.844s-.133-.628-.349-.844l-.575-.575a1.18 1.18 0 0 0-.599-.323l-.008-.001a1.191 1.191 0 0 0-.326-.608l-.665-.666a1.032 1.032 0 0 0-.765-.314c-.291 0-.555.121-.743.314l-5.289-5.27c.206-.201.32-.469.322-.757s-.109-.558-.313-.761l-.665-.665a1.153 1.153 0 0 0-.599-.314l-.007-.001a1.18 1.18 0 0 0-.327-.618l-.575-.575c-.45-.451-1.237-.452-1.688 0l-4.723 4.723a1.181 1.181 0 0 0-.349.84v.004c0 .319.124.619.349.844l.575.575c.169.169.379.281.607.326.046.228.157.438.326.607l.665.665c.2.2.476.315.759.315h.006c.291 0 .555-.121.743-.314l.851.852a.395.395 0 0 1 0 .56l-3.868 3.868-.378-.378c-.625-.623-1.639-.623-2.263.001s-.623 1.639 0 2.263l.377.377-4.836 4.836a2.208 2.208 0 0 1-1.006.575l-.015.003-1.55.387a3.278 3.278 0 0 0-1.516.859l-.174.173c-.615.618-.955 1.437-.955 2.308s.34 1.692.956 2.309l.663.662a3.233 3.233 0 0 0 2.3.956h.016c.899 0 1.713-.366 2.3-.956l.173-.173a3.26 3.26 0 0 0 .854-1.494l.005-.023.387-1.549c.103-.402.304-.747.578-1.021l4.836-4.836.377.377c.605.604 1.659.604 2.262.001.302-.302.469-.704.469-1.132s-.166-.829-.469-1.131l-.377-.377 3.868-3.868a.395.395 0 0 1 .56 0l.861.843zm7.857-1.876a.124.124 0 0 1-.037.09l-4.723 4.723c-.061.061-.118.061-.179 0l-.575-.575a.127.127 0 0 1 0-.18l4.723-4.723a.125.125 0 0 1 .089-.037c.033 0 .065.012.09.037l.575.575a.124.124 0 0 1 .037.088v.001zM12.368 6.071c0-.024.006-.059.037-.09l4.723-4.723c.031-.031.066-.037.09-.037s.059.006.09.037l.575.575a.127.127 0 0 1 0 .18L13.16 6.736a.127.127 0 0 1-.18 0l-.575-.575a.125.125 0 0 1-.037-.089V6.07zm6.079 6.691-4.622 4.623 1.131 1.131a.53.53 0 0 1 .156.377v.002c0 .147-.06.279-.156.375a.543.543 0 0 1-.754 0l-1.132-1.131-5.59 5.59a3.26 3.26 0 0 0-.854 1.494l-.005.023-.387 1.549a2.205 2.205 0 0 1-.578 1.021l-.173.173a2.178 2.178 0 0 1-1.549.644h-.006a2.204 2.204 0 0 1-1.554-.644l-.662-.662c-.415-.416-.644-.968-.644-1.555s.229-1.139.644-1.554l.173-.173a2.208 2.208 0 0 1 1.006-.575l.015-.003 1.55-.387a3.268 3.268 0 0 0 1.516-.858l5.591-5.59-1.132-1.131a.534.534 0 0 1 .377-.91c.137 0 .273.052.378.156l1.131 1.131 4.622-4.622c.264-.265.427-.63.427-1.034s-.163-.769-.428-1.034l-.851-.852a1.057 1.057 0 0 0-.751-.313h-.01c-.293 0-.557.12-.748.312l-.665-.665a.12.12 0 0 1-.037-.088V7.58c0-.024.006-.059.037-.09l4.724-4.723c.061-.061.117-.061.179 0l.665.665a1.034 1.034 0 0 0-.314.744v.003c0 .297.12.566.315.761l5.279 5.279c.202.202.469.313.754.313h.007c.292 0 .557-.12.747-.312l.665.666a.12.12 0 0 1 .037.088v.002a.125.125 0 0 1-.037.089l-4.724 4.724a.128.128 0 0 1-.179-.001l-.664-.665c.193-.189.313-.452.314-.743v-.003c0-.297-.12-.567-.314-.762l-.852-.852a1.464 1.464 0 0 0-2.069 0zm9.82 14.805h-4.8a3.737 3.737 0 0 0-3.733 3.733v.533h12.267V31.3a3.737 3.737 0 0 0-3.733-3.733zm-7.413 3.2a2.676 2.676 0 0 1 2.613-2.133h4.8a2.672 2.672 0 0 1 2.61 2.116l.003.017H20.854zm1.546-4.8a.533.533 0 1 0 0 1.066h6.933a.533.533 0 1 0 0-1.066H22.4z"/></symbol><symbol id="icon-word"><path fill="#2e3e98" d="M41.639 5.59h-6.94v1.799c0 10.988-7.582 17.221-18.57 17.221C6.041 24.61.001 19.02.001 10.73.001 4.047 4.242-.001 11.182-.001c4.691 0 8.739 2.442 8.739 6.94 0 6.875-7.454 9.382-11.759 10.281 1.606 1.478 4.177 2.249 7.904 2.249 7.582 0 12.53-4.048 12.53-12.08V5.59h-6.875V.642h19.92V5.59zM5.976 13.108c2.185-.386 7.904-1.735 7.904-5.719 0-1.992-1.799-2.699-3.149-2.699-2.699 0-4.948 1.992-4.948 5.847.064.9.064 1.799.193 2.57zM43.438.643h11.181c6.04 0 9.189 1.992 9.189 6.297 0 3.791-3.598 4.691-3.598 4.691v.193s4.241.9 4.241 5.398-2.892 6.747-9.189 6.747H43.439V.644zm10.731 9.445c2.249 0 3.341-.9 3.341-2.442 0-1.606-.9-2.506-2.892-2.506H49.67v4.948h4.498zm-4.498 3.984v5.398h5.398c1.992 0 3.149-.9 3.149-2.699s-1.349-2.699-3.598-2.699h-4.948zm16.771-6.233C66.828 1.863 71.583 0 76.98 0c5.59 0 10.088 1.992 10.088 8.032v15.871h-6.297v-4.498h-.193s-1.414 5.141-7.39 5.141c-4.241 0-7.39-1.992-7.39-6.297 0-4.369 3.598-6.297 7.454-7.325 3.92-.964 7.582-1.285 7.582-3.92 0-1.863-1.349-2.892-3.791-2.892-2.699 0-4.177 1.092-4.241 3.598h-6.361zm9.381 6.233c-1.992.514-3.727 1.542-3.727 3.598 0 1.799 1.285 2.892 3.277 2.892 4.241 0 5.398-4.948 5.398-8.353-1.028.964-3.149 1.414-4.948 1.863zM89.253.643h6.04v3.149h.193S97.478.001 102.619.001c6.683 0 10.088 5.847 10.088 12.337s-3.341 12.337-10.088 12.337c-4.948 0-6.94-3.149-6.94-3.149h-.193v10.538h-6.297V.642zm11.695 19.277c3.791 0 5.59-3.406 5.59-7.582 0-4.241-1.799-7.582-5.59-7.582s-5.59 3.406-5.59 7.582c-.064 4.177 1.735 7.582 5.59 7.582zm35.534 4.048h-6.04v-3.791h-.193s-1.992 4.498-7.133 4.498c-6.49 0-8.289-4.241-8.289-9.639V.642h6.297v12.98c0 4.048 1.092 5.847 4.048 5.847 3.341 0 5.141-1.992 5.141-6.747V.642h6.297v23.325zm2.442-16.129C139.31 1.863 144.065 0 149.462 0c5.59 0 10.088 1.992 10.088 8.032v15.871h-6.297v-4.498h-.193s-1.414 5.141-7.39 5.141c-4.241 0-7.39-1.992-7.39-6.297 0-4.369 3.598-6.297 7.454-7.325 3.92-.964 7.582-1.285 7.582-3.92 0-1.863-1.349-2.892-3.791-2.892-2.699 0-4.177 1.092-4.241 3.598h-6.361zm9.445 6.233c-1.992.514-3.727 1.542-3.727 3.598 0 1.799 1.285 2.892 3.277 2.892 4.241 0 5.398-4.948 5.398-8.353-1.092.964-3.149 1.414-4.948 1.863zm28.402.707h-8.739v9.189h-6.297V.643h6.297v9.189h8.739V.643h6.297v23.261h-6.297V14.78zm22.169-3.791c0-4.048-.835-5.847-3.277-5.847-2.699 0-4.112 1.992-4.112 6.683v12.08h-6.297V.643h6.04v3.855h.193S193.029 0 197.784 0c3.791 0 5.783 1.799 6.683 4.498l.064-.064h.193s1.992-4.498 6.747-4.498c5.847 0 7.39 4.241 7.39 9.639v14.329h-6.297V10.988c0-4.048-.835-5.847-3.277-5.847-2.699 0-4.112 1.992-4.112 6.683v12.08h-6.297V10.988z" style="fill:var(--color1, #2e3e98)"/></symbol><symbol id="icon-logoA"><path fill="#eeefe2" d="M54.141 7.269h-9.023v2.339C45.118 23.895 35.259 32 20.972 32 7.855 32 .001 24.731.001 13.953.001 5.264 5.515 0 14.539 0c6.099 0 11.363 3.175 11.363 9.024 0 8.94-9.692 12.198-15.29 13.368 2.089 1.922 5.431 2.924 10.277 2.924 9.859 0 16.292-5.264 16.292-15.708V7.269h-8.94V.836h25.901v6.433zM7.77 17.044c2.841-.501 10.277-2.256 10.277-7.436 0-2.59-2.339-3.509-4.094-3.509-3.509 0-6.433 2.59-6.433 7.603.084 1.17.084 2.339.251 3.342z" style="fill:var(--color2, #eeefe2)"/></symbol><symbol id="icon-logoB"><path fill="#2e3e98" d="M54.141 7.269h-9.023v2.339C45.118 23.895 35.259 32 20.972 32 7.855 32 .001 24.731.001 13.953.001 5.264 5.515 0 14.539 0c6.099 0 11.363 3.175 11.363 9.024 0 8.94-9.692 12.198-15.29 13.368 2.089 1.922 5.431 2.924 10.277 2.924 9.859 0 16.292-5.264 16.292-15.708V7.269h-8.94V.836h25.901v6.433zM7.77 17.044c2.841-.501 10.277-2.256 10.277-7.436 0-2.59-2.339-3.509-4.094-3.509-3.509 0-6.433 2.59-6.433 7.603.084 1.17.084 2.339.251 3.342z" style="fill:var(--color1, #2e3e98)"/></symbol><symbol id="icon-stamp" viewBox="0 0 32 32"><path d="M29.133 20.803h-8.329v-3.201H18.67v-3.33c0-1.14.492-2.212 1.315-2.867a6.356 6.356 0 0 0 2.419-4.992v-.015.001A6.4 6.4 0 0 0 15.221.044l.03-.003c-2.856.325-5.207 2.626-5.591 5.47a6.378 6.378 0 0 0 2.322 5.864c.847.683 1.352 1.803 1.352 2.994v3.232H11.2v3.201H2.871a1.274 1.274 0 0 0-1.273 1.273v5.99c.001.703.57 1.272 1.273 1.273h.376A3.203 3.203 0 0 0 6.4 32.005h19.204a3.204 3.204 0 0 0 3.153-2.667h.376a1.274 1.274 0 0 0 1.273-1.273v-5.99a1.276 1.276 0 0 0-1.274-1.273zm-16.48-10.257a5.317 5.317 0 0 1-1.934-4.891c.32-2.367 2.278-4.281 4.655-4.553a5.305 5.305 0 0 1 4.18 1.318 5.332 5.332 0 0 1 1.784 3.981v.011c0 1.682-.783 3.18-2.005 4.151l-.011.008c-1.093.868-1.719 2.218-1.719 3.702v3.33h-3.201v-3.232c-.001-1.533-.638-2.928-1.75-3.825zm-.384 8.123h7.468v2.134h-7.468v-2.134zm13.336 12.27H6.401a2.137 2.137 0 0 1-2.063-1.585l-.003-.015h23.336a2.139 2.139 0 0 1-2.066 1.6zm3.734-2.873a.206.206 0 0 1-.206.206H2.873a.206.206 0 0 1-.206-.206v-5.99c0-.114.092-.206.206-.206h26.26c.114 0 .206.092.206.206v5.99z"/></symbol><symbol id="icon-tax" viewBox="0 0 32 32"><path d="M16.542 5.424c1.047 0 1.898-.852 1.898-1.898s-.852-1.898-1.898-1.898-1.898.852-1.898 1.898.852 1.898 1.898 1.898zm0-2.712a.815.815 0 1 1-.001 1.63.815.815 0 0 1 .001-1.63zM5.153 5.424c1.047 0 1.898-.852 1.898-1.898s-.852-1.898-1.898-1.898-1.898.852-1.898 1.898.852 1.898 1.898 1.898zm0-2.712a.815.815 0 1 1-.001 1.63.815.815 0 0 1 .001-1.63zm0 23.322c-1.047 0-1.898.852-1.898 1.898s.852 1.898 1.898 1.898 1.898-.852 1.898-1.898-.852-1.898-1.898-1.898zm0 2.712a.815.815 0 1 1 .001-1.63.815.815 0 0 1-.001 1.63z"/><path d="M24.949 9.229V0H1.627v31.458h13.038c.859.343 1.868.542 2.962.542 1.349 0 2.572-.3 3.538-.805.999.519 2.231.805 3.513.805 3.194 0 5.695-1.668 5.695-3.797V13.017c0-2.068-2.362-3.696-5.424-3.788zm4.339 3.788c0 1.47-2.111 2.712-4.61 2.712s-4.61-1.242-4.61-2.712c0-.091.008-.18.024-.268.004-.025.014-.05.02-.075.014-.063.029-.126.05-.188.01-.028.024-.055.036-.082.024-.058.047-.117.078-.174.017-.031.038-.061.058-.092.031-.052.061-.103.098-.153.029-.04.064-.079.097-.119.031-.039.061-.077.095-.114.053-.057.113-.113.174-.169l.055-.053a3.94 3.94 0 0 1 .579-.414c.191-.115.414-.227.647-.321l.033-.012.044-.017c.239-.094.489-.176.754-.242l.028-.007a6.3 6.3 0 0 1 .658-.129l.037-.004.029-.004c.22-.031.485-.054.753-.064h.013l.255-.009c2.498.001 4.607 1.242 4.607 2.712zm-.035 13.33c-.009.046-.023.091-.036.136-.012.042-.024.085-.04.126a1.547 1.547 0 0 1-.065.143l.005-.011c-.02.041-.038.081-.061.122-.03.052-.057.093-.085.133l.004-.006c-.026.039-.051.079-.08.117a1.94 1.94 0 0 1-.104.124l.002-.002c-.032.037-.062.074-.097.11-.038.04-.081.079-.123.117a3.693 3.693 0 0 1-.112.103c-.044.038-.093.074-.141.11-.042.032-.083.065-.127.096-.05.035-.105.068-.158.102-.047.03-.092.06-.141.088-.056.033-.115.062-.174.093-.052.027-.101.055-.155.08-.061.029-.126.056-.19.084-.054.024-.107.048-.164.07-.067.027-.138.05-.208.075-.056.02-.111.041-.169.06-.072.023-.148.043-.222.064-.059.017-.117.035-.177.05-.078.02-.158.035-.237.052-.06.013-.119.028-.18.038-.086.016-.175.028-.262.041-.057.009-.113.019-.171.026-.098.012-.198.02-.298.028l-.149.014a6.937 6.937 0 0 1-1.289-.034l.035.003a6.643 6.643 0 0 1-.56-.081l.044.007-.076-.012a2.67 2.67 0 0 0 .033-.411v-.651c.038.006.076.008.114.014a11.308 11.308 0 0 0 .625.07c.204.015.41.025.616.025.222 0 .439-.01.654-.026.069-.005.136-.014.205-.02.145-.014.288-.03.428-.051.077-.011.152-.025.228-.038a7.606 7.606 0 0 0 1.038-.258l-.054.015c.061-.02.123-.037.182-.058a6.95 6.95 0 0 0 .504-.197l.02-.008c.168-.075.327-.157.481-.243.049-.028.095-.058.143-.086.102-.062.203-.125.298-.191a5.739 5.739 0 0 0 .4-.313c.024-.021.052-.04.075-.061a1.26 1.26 0 0 1-.009.096l.001-.006c-.005.042-.01.086-.019.129zm-7.051 0c-.009.046-.023.091-.036.136-.012.042-.024.085-.04.126a1.547 1.547 0 0 1-.065.143l.005-.011c-.02.041-.038.081-.061.122-.03.052-.057.093-.085.133l.004-.006c-.026.039-.051.079-.08.117a1.94 1.94 0 0 1-.104.124l.002-.002c-.032.037-.062.074-.097.11-.038.04-.081.079-.123.117a3.693 3.693 0 0 1-.112.103c-.044.038-.093.074-.141.11-.042.032-.083.065-.127.096-.05.035-.105.068-.158.102-.047.03-.092.06-.141.088-.056.033-.115.062-.174.093-.052.027-.101.055-.155.08-.061.029-.126.056-.19.084-.054.024-.107.048-.164.07-.067.027-.138.05-.208.075-.056.02-.111.041-.169.06-.072.023-.148.043-.222.064-.059.017-.117.035-.177.05-.078.02-.158.035-.237.052-.06.013-.119.028-.18.038-.086.016-.175.028-.262.041-.057.009-.113.019-.171.026-.098.012-.198.02-.298.028l-.149.014a6.612 6.612 0 0 1-.939-.001l.021.001c-.05-.003-.099-.009-.149-.014-.1-.008-.201-.016-.298-.028-.058-.007-.114-.017-.171-.026-.088-.013-.176-.025-.262-.041-.061-.011-.119-.026-.18-.038-.08-.017-.16-.033-.238-.053-.06-.015-.117-.033-.176-.049-.075-.021-.151-.041-.223-.065-.058-.018-.113-.04-.169-.06-.07-.025-.14-.048-.208-.075-.056-.022-.109-.047-.164-.07-.063-.028-.129-.055-.19-.084-.053-.026-.103-.054-.155-.08-.059-.031-.118-.061-.174-.093-.049-.028-.094-.059-.141-.088-.053-.034-.108-.067-.158-.102a3.016 3.016 0 0 1-.127-.096c-.048-.036-.097-.072-.141-.11-.04-.034-.075-.068-.112-.103a2.732 2.732 0 0 1-.123-.117c-.034-.036-.065-.073-.097-.11-.035-.041-.07-.081-.102-.123-.029-.038-.054-.077-.08-.116-.028-.042-.057-.085-.081-.127-.023-.04-.041-.081-.061-.122a1.283 1.283 0 0 1-.055-.12l-.005-.013c-.016-.041-.028-.084-.04-.126a1.297 1.297 0 0 1-.036-.136c-.009-.043-.014-.087-.019-.13a1.386 1.386 0 0 1-.008-.085v-.005c.023.021.051.04.075.061a4.192 4.192 0 0 0 .4.312c.095.067.196.13.299.191.048.029.093.059.143.086.154.086.313.168.481.243l.018.007c.163.072.332.138.506.198.059.021.121.038.182.058a7.336 7.336 0 0 0 .931.234l.053.008c.175.034.4.066.627.087l.029.002c.068.006.136.015.204.02a8.418 8.418 0 0 0 1.339-.001l-.029.002c.069-.005.136-.014.205-.02.145-.014.288-.03.428-.051.077-.011.152-.025.228-.038a7.606 7.606 0 0 0 1.038-.258l-.054.015c.061-.02.123-.037.182-.058a6.95 6.95 0 0 0 .504-.197l.02-.008c.168-.075.327-.157.481-.243.049-.028.095-.058.143-.086.102-.062.203-.125.298-.191a5.739 5.739 0 0 0 .4-.313c.024-.021.052-.04.075-.061a1.26 1.26 0 0 1-.009.096l.001-.006c-.005.042-.01.086-.019.129zM5.424 10.421v-3.38A3.535 3.535 0 0 0 8.667 3.81l.001-.013h4.359a3.535 3.535 0 0 0 3.231 3.243l.013.001v3.38l-.025-.023c-.091-.092-.189-.177-.285-.265-.093-.085-.183-.174-.279-.254-.035-.029-.073-.054-.109-.082a7.466 7.466 0 0 0-3.865-1.61l-.034-.003-.053-.008a7.971 7.971 0 0 0-1.581.002l.033-.003-.053.008a7.498 7.498 0 0 0-3.913 1.625l.014-.011c-.036.028-.074.054-.109.082-.097.08-.187.169-.279.254-.095.087-.194.172-.285.265l-.025.023zm13.082 6.445.024.002c.286.035.568.087.844.156.383.097.712.213 1.028.355l-.039-.016c.055.024.113.048.166.074.17.083.309.162.444.248l-.019-.011c.03.018.059.038.088.057.283.183.526.397.734.641l.004.005.017.02c.066.081.123.164.174.247l.018.028c.047.079.084.158.118.238.006.016.015.03.021.046.029.075.049.15.066.226.004.02.012.039.016.059.018.095.028.19.028.285 0 1.47-2.111 2.712-4.61 2.712s-4.61-1.242-4.61-2.712c0-.236.06-.465.162-.685.149-.322.402-.627.741-.899l.067-.052c.095-.073.197-.143.304-.21.847-.528 2.038-.866 3.336-.866.296 0 .59.018.879.053zm1.896-1.322a4.065 4.065 0 0 0 .448.3c.048.029.093.059.143.086.154.086.314.168.481.243l.018.007c.163.072.332.138.506.198.059.021.121.038.182.058a7.336 7.336 0 0 0 .931.234l.053.008c.175.034.4.066.627.087l.029.002c.068.006.136.015.204.02a8.436 8.436 0 0 0 1.338-.001l-.029.002c.069-.005.136-.014.205-.02.145-.014.288-.03.428-.051.077-.011.152-.025.228-.038a7.606 7.606 0 0 0 1.038-.258l-.054.015c.061-.02.123-.037.182-.058a6.95 6.95 0 0 0 .504-.197l.02-.008c.168-.075.327-.157.481-.243.049-.028.095-.057.143-.086.102-.062.203-.125.298-.191a5.739 5.739 0 0 0 .4-.313c.024-.021.052-.04.075-.061a1.26 1.26 0 0 1-.009.096l.001-.006c-.005.043-.01.087-.019.13-.009.046-.023.091-.036.136-.012.042-.024.085-.04.126a1.547 1.547 0 0 1-.065.143l.005-.011c-.02.041-.038.081-.061.121-.03.052-.057.093-.085.133l.004-.006c-.026.039-.051.079-.08.117a1.94 1.94 0 0 1-.104.124l.002-.002c-.032.037-.062.074-.097.11-.038.04-.081.079-.123.117a3.693 3.693 0 0 1-.112.103c-.044.038-.093.074-.141.11-.042.032-.083.065-.127.096-.05.035-.105.068-.158.102-.047.03-.092.06-.141.088-.056.033-.115.062-.174.093-.052.027-.101.055-.155.08-.061.029-.126.056-.19.084-.054.024-.107.048-.164.07-.067.027-.138.05-.208.075-.056.02-.111.041-.169.06-.072.023-.148.043-.222.064-.059.017-.117.035-.177.05-.078.02-.158.035-.237.052-.06.013-.119.028-.18.038-.086.016-.175.028-.262.041-.057.009-.113.019-.171.026-.098.012-.198.02-.298.028l-.149.014a7.799 7.799 0 0 1-1.066-.011l.027.002c-.061-.005-.121-.014-.182-.02a8.022 8.022 0 0 1-.387-.046c-.071-.011-.14-.027-.21-.04-.114-.021-.229-.042-.341-.069-.072-.017-.141-.038-.211-.058a4.983 4.983 0 0 1-.282-.083l.043.012c-.507-.573-1.23-1.045-2.104-1.367a1.772 1.772 0 0 1-.353-.93c.025.023.055.043.081.066.08.069.164.137.251.203zm8.403 2.279a5.739 5.739 0 0 0 .4-.313c.024-.021.052-.04.075-.061a1.26 1.26 0 0 1-.009.096l.001-.006c-.005.043-.01.087-.019.13-.009.046-.023.091-.036.136-.012.042-.024.085-.04.126a1.547 1.547 0 0 1-.065.143l.005-.011c-.02.041-.038.081-.061.122-.03.052-.057.093-.085.133l.004-.006c-.026.039-.051.079-.08.117a1.94 1.94 0 0 1-.104.124l.002-.002c-.032.037-.062.074-.097.11-.038.04-.081.079-.123.117a3.693 3.693 0 0 1-.112.103c-.044.038-.093.074-.141.11-.042.032-.083.065-.127.096-.05.035-.105.068-.158.102-.047.03-.092.06-.141.088-.056.033-.115.062-.174.093-.052.027-.101.055-.155.08-.061.029-.126.056-.19.084-.054.024-.107.048-.164.07-.067.027-.138.05-.208.075-.056.02-.111.041-.169.06-.072.023-.148.043-.222.064-.059.017-.117.035-.177.05-.078.02-.158.035-.237.052-.06.013-.119.028-.18.038-.086.016-.175.028-.262.041-.057.009-.113.019-.171.026-.098.012-.198.02-.298.028l-.149.014a7.703 7.703 0 0 1-.458.014 7.595 7.595 0 0 1-.846-.052l.035.003c-.08-.009-.159-.022-.238-.033-.104-.015-.205-.037-.308-.057v-.404c0-.119-.01-.238-.026-.356-.01-.074-.027-.146-.043-.22-.006-.03-.01-.06-.017-.089l.037.005c.154.026.31.042.466.06.077.009.152.021.23.028a8.612 8.612 0 0 0 1.393.002l-.03.002c.069-.005.136-.014.205-.02.145-.014.288-.03.428-.051.077-.011.152-.025.228-.038a7.606 7.606 0 0 0 1.038-.258l-.054.015c.061-.02.123-.037.182-.058a6.95 6.95 0 0 0 .504-.197l.02-.008c.168-.075.327-.157.481-.243.049-.028.095-.058.143-.086.102-.062.203-.125.298-.191zm0 2.169a5.739 5.739 0 0 0 .4-.313c.024-.021.052-.04.075-.061a1.26 1.26 0 0 1-.009.096l.001-.006c-.005.043-.01.087-.019.13-.009.046-.023.091-.036.136-.012.042-.024.085-.04.126a1.547 1.547 0 0 1-.065.143l.005-.011c-.02.041-.038.081-.061.122-.03.052-.057.093-.085.133l.004-.006c-.026.039-.051.079-.08.117a1.94 1.94 0 0 1-.104.124l.002-.002c-.032.037-.062.074-.097.11-.038.04-.081.079-.123.117a3.693 3.693 0 0 1-.112.103c-.044.038-.093.074-.141.11-.042.032-.083.065-.127.096-.05.035-.105.068-.158.102-.047.03-.092.06-.141.088-.056.033-.115.062-.174.093-.052.027-.101.055-.155.08-.061.029-.126.056-.19.084-.054.024-.107.048-.164.07-.067.027-.138.05-.208.075-.056.02-.111.041-.169.06-.072.023-.148.043-.222.064-.059.017-.117.035-.177.05-.078.02-.158.035-.237.052-.06.013-.119.028-.18.038-.086.016-.175.028-.262.041-.057.009-.113.019-.171.026-.098.012-.198.02-.298.028l-.149.014a7.703 7.703 0 0 1-.458.014 7.595 7.595 0 0 1-.846-.052l.035.003c-.08-.009-.159-.022-.238-.033-.104-.015-.205-.037-.308-.057v-1.054c.038.006.076.008.114.014a11.308 11.308 0 0 0 .625.07c.204.015.41.025.616.025.222 0 .439-.01.654-.026.069-.005.136-.014.205-.02.145-.014.288-.03.428-.051.077-.011.152-.025.228-.038a7.606 7.606 0 0 0 1.038-.258l-.054.015c.061-.02.123-.037.182-.058a6.95 6.95 0 0 0 .504-.197l.02-.008c.168-.075.327-.157.481-.243.049-.028.095-.058.143-.086.102-.062.203-.125.298-.191zm0 2.17a5.739 5.739 0 0 0 .4-.313c.024-.021.052-.04.075-.061a1.26 1.26 0 0 1-.009.096l.001-.006c-.005.043-.01.087-.019.13-.009.046-.023.091-.036.136-.012.042-.024.085-.04.126a1.547 1.547 0 0 1-.065.143l.005-.011c-.02.041-.038.081-.061.122-.03.052-.057.093-.085.133l.004-.006c-.026.039-.051.079-.08.117a1.94 1.94 0 0 1-.104.124l.002-.002c-.032.037-.062.074-.097.11-.038.04-.081.079-.123.117a3.693 3.693 0 0 1-.112.103c-.044.038-.093.074-.141.11-.042.032-.083.065-.127.096-.05.035-.105.068-.158.102-.047.03-.092.06-.141.088-.056.033-.115.062-.174.093-.052.027-.101.055-.155.08-.061.029-.126.056-.19.084-.054.024-.107.048-.164.07-.067.027-.138.05-.208.075-.056.02-.111.041-.169.06-.072.023-.148.043-.222.064-.059.017-.117.035-.177.05-.078.02-.158.035-.237.052-.06.013-.119.028-.18.038-.086.016-.175.028-.262.041-.057.009-.113.019-.171.026-.098.012-.198.02-.298.028l-.149.014a7.703 7.703 0 0 1-.458.014 7.595 7.595 0 0 1-.846-.052l.035.003c-.08-.009-.159-.022-.238-.033-.104-.015-.205-.037-.308-.057v-1.054c.038.006.076.008.114.014a11.308 11.308 0 0 0 .625.07c.204.015.41.025.616.025.222 0 .439-.01.654-.026.069-.005.136-.014.205-.02.145-.014.288-.03.428-.051.077-.011.152-.025.228-.038a7.606 7.606 0 0 0 1.038-.258l-.054.015c.061-.02.123-.037.182-.058a6.95 6.95 0 0 0 .504-.197l.02-.008c.168-.075.327-.157.481-.243.049-.028.095-.058.143-.086.102-.062.203-.125.298-.191zm0 2.169a5.739 5.739 0 0 0 .4-.313c.024-.021.052-.04.075-.061a1.26 1.26 0 0 1-.009.096l.001-.006c-.005.043-.01.087-.019.13-.009.046-.023.091-.036.136-.012.042-.024.085-.04.126a1.547 1.547 0 0 1-.065.143l.005-.011c-.02.041-.038.081-.061.122-.03.052-.057.093-.085.133l.004-.006c-.026.039-.051.079-.08.117a1.94 1.94 0 0 1-.104.124l.002-.002c-.032.037-.062.074-.097.11-.038.04-.081.079-.123.117a3.693 3.693 0 0 1-.112.103c-.044.038-.093.074-.141.11-.042.032-.083.065-.127.096-.05.035-.105.068-.158.102-.047.03-.092.06-.141.088-.056.033-.115.062-.174.093-.052.027-.101.055-.155.08-.061.029-.126.056-.19.084-.054.024-.107.048-.164.07-.067.027-.138.05-.208.075-.056.02-.111.041-.169.06-.072.023-.148.043-.222.064-.059.017-.117.035-.177.05-.078.02-.158.035-.237.052-.06.013-.119.028-.18.038-.086.016-.175.028-.262.041-.057.009-.113.019-.171.026-.098.012-.198.02-.298.028l-.149.014a7.703 7.703 0 0 1-.458.014 7.595 7.595 0 0 1-.846-.052l.035.003c-.08-.009-.159-.022-.238-.033-.104-.015-.205-.037-.308-.057v-1.054c.038.006.076.008.114.014a11.308 11.308 0 0 0 .625.07c.204.015.41.025.616.025.222 0 .439-.01.654-.026.069-.005.136-.014.205-.02.145-.014.288-.03.428-.051.077-.011.152-.025.228-.038a7.606 7.606 0 0 0 1.038-.258l-.054.015c.061-.02.123-.037.182-.058a6.95 6.95 0 0 0 .504-.197l.02-.008c.168-.075.327-.157.481-.243.049-.028.095-.058.143-.086.102-.062.203-.125.298-.191zm-6.603-.153c-.009.046-.023.091-.036.136-.012.042-.024.085-.04.126a1.547 1.547 0 0 1-.065.143l.005-.011c-.02.041-.038.081-.061.122-.03.052-.057.093-.085.133l.004-.006c-.026.039-.051.079-.08.117a1.94 1.94 0 0 1-.104.124l.002-.002c-.032.037-.062.074-.097.11-.038.04-.081.079-.123.117a3.693 3.693 0 0 1-.112.103c-.044.038-.093.074-.141.11-.042.032-.083.065-.127.096-.05.035-.105.068-.158.102-.047.03-.092.06-.141.088-.056.033-.115.062-.174.093-.052.027-.101.055-.155.08-.061.029-.126.056-.19.084-.054.024-.107.048-.164.07-.067.027-.138.05-.208.075-.056.02-.111.041-.169.06-.072.023-.148.043-.222.064-.059.017-.117.035-.177.05-.078.02-.158.035-.237.052-.06.013-.119.028-.18.038-.086.016-.175.028-.262.041-.057.009-.113.019-.171.026-.098.012-.198.02-.298.028l-.149.014a6.612 6.612 0 0 1-.939-.001l.021.001c-.05-.003-.099-.009-.149-.014-.1-.008-.201-.016-.298-.028-.058-.007-.114-.017-.171-.026-.088-.013-.176-.025-.262-.041-.061-.011-.119-.026-.18-.038-.08-.017-.16-.033-.238-.053-.06-.015-.117-.033-.176-.049-.075-.021-.151-.041-.223-.065-.058-.018-.113-.04-.169-.06-.07-.025-.14-.048-.208-.075-.056-.022-.109-.047-.164-.07-.063-.028-.129-.055-.19-.084-.053-.026-.103-.054-.155-.08-.059-.031-.118-.061-.174-.093-.049-.028-.094-.059-.141-.088-.053-.034-.108-.067-.158-.102a3.016 3.016 0 0 1-.127-.096c-.048-.036-.097-.072-.141-.11-.04-.034-.075-.068-.112-.103a2.732 2.732 0 0 1-.123-.117c-.034-.036-.065-.073-.097-.11-.035-.041-.07-.081-.102-.123-.029-.038-.054-.077-.08-.116-.028-.042-.057-.085-.081-.127-.023-.04-.041-.081-.061-.122a1.283 1.283 0 0 1-.055-.12l-.005-.013c-.016-.041-.028-.084-.04-.126a1.297 1.297 0 0 1-.036-.136c-.009-.043-.014-.087-.019-.13a1.386 1.386 0 0 1-.008-.085v-.005c.023.021.051.04.075.061a4.192 4.192 0 0 0 .4.312c.095.067.196.13.299.191.048.029.093.059.143.086.154.086.313.168.481.243l.018.007c.163.072.332.138.506.198.059.021.121.038.182.058a7.336 7.336 0 0 0 .931.234l.053.008c.175.034.4.066.627.087l.029.002c.068.006.136.015.204.02a8.418 8.418 0 0 0 1.339-.001l-.029.002c.069-.005.136-.014.205-.02.145-.014.288-.03.428-.051.077-.011.152-.025.228-.038a7.606 7.606 0 0 0 1.038-.258l-.054.015c.061-.02.123-.037.182-.058a6.95 6.95 0 0 0 .504-.197l.02-.008c.168-.075.327-.157.481-.243.049-.028.095-.058.143-.086.102-.062.203-.125.298-.191a5.739 5.739 0 0 0 .4-.313c.024-.021.052-.04.075-.061a1.26 1.26 0 0 1-.009.096l.001-.006c-.005.042-.01.086-.019.129zm-10.707-1.979a5.774 5.774 0 0 1-.645.038h-.003a6.58 6.58 0 0 1-.759-.048c-.08-.009-.159-.024-.239-.036a6.354 6.354 0 0 1-.816-.177l.046.011a6.822 6.822 0 0 1-.465-.152c-.081-.03-.164-.056-.245-.09a6.025 6.025 0 0 1-.665-.317l.032.016c-.063-.035-.122-.075-.184-.112a6.289 6.289 0 0 1-.463-.297l.021.014c-.072-.051-.142-.105-.212-.158a6.569 6.569 0 0 1-.412-.344l.006.005c-.05-.045-.101-.089-.149-.136-.11-.106-.212-.223-.315-.337l1.676-1.842c.227-.248.536-.375.802-.327.025.004.05.01.075.016.082.064.258.226.379.337.296.273.489.445.645.55.306.59.731.824 1.046.916.382.111.811.076 1.279-.093v2.495c-.059.01-.117.023-.175.031a6.033 6.033 0 0 1-.261.035zm-7.126-7.067c.004-.05.01-.099.016-.149.02-.171.045-.341.078-.508.005-.025.008-.051.014-.076.04-.192.09-.381.146-.567l.038-.117a6.375 6.375 0 0 1 .429-1.014c.039-.073.081-.145.123-.217a5.98 5.98 0 0 1 .142-.232l.004-.005 1.565 1.717c.4.44.932.675 1.464.678.206-.003.403-.039.586-.104l-.013.004c.225-.078.376-.256.535-.444.269-.315.484-.54.81-.54.563 0 1.075.216 1.46.568l-.002-.001.58.597.272-.77c.13-.162.742-.375 1.116-.418.211.568.584 1.935-.079 3.25l-.112.073a4.753 4.753 0 0 0-.192.141c-.055.042-.112.082-.164.126-.06.05-.116.102-.172.154-.049.045-.099.088-.145.135-.054.054-.101.111-.151.168-.042.047-.086.094-.124.143-.047.059-.087.12-.129.181-.034.049-.071.098-.102.148-.04.065-.072.131-.106.197l-.007.012c-.54.354-1.01.509-1.296.425-.066-.019-.264-.076-.436-.482l-.124-.292-.218-.024c-.114-.086-.338-.292-.48-.422-.378-.348-.539-.491-.719-.552a1.724 1.724 0 0 0-.271-.07l-.011-.002c-.641-.113-1.31.137-1.79.666l-1.547 1.7-.004-.005a6.375 6.375 0 0 1-.251-.424l-.019-.038a5.212 5.212 0 0 1-.186-.379l-.016-.039-.066-.159a4.964 4.964 0 0 1-.141-.375l-.014-.047-.04-.119a5.584 5.584 0 0 1-.138-.523l-.008-.043-.014-.077a6.447 6.447 0 0 1-.078-.507l-.016-.149c-.018-.196-.03-.395-.03-.596s.012-.4.03-.597zm8.983 6.92a4.065 4.065 0 0 0 .448.3c.048.029.093.059.143.086.154.086.313.168.481.243l.018.007c.163.072.332.138.506.198.059.021.121.038.182.058a7.336 7.336 0 0 0 .931.234l.053.008c.175.034.4.066.627.087l.029.002c.068.006.136.015.204.02a8.436 8.436 0 0 0 1.338-.001l-.029.002c.069-.005.136-.014.205-.02.145-.014.288-.03.428-.051.077-.011.152-.025.228-.038a7.606 7.606 0 0 0 1.038-.258l-.054.015c.061-.02.123-.037.182-.058a6.95 6.95 0 0 0 .504-.197l.02-.008c.168-.075.327-.157.481-.243.049-.028.095-.058.143-.086.102-.062.203-.125.298-.191a5.739 5.739 0 0 0 .4-.313c.024-.021.052-.04.075-.061a1.26 1.26 0 0 1-.009.096l.001-.006c-.005.043-.01.087-.019.13-.009.046-.023.091-.036.136-.012.042-.024.085-.04.126a1.547 1.547 0 0 1-.065.143l.005-.011c-.02.041-.038.081-.061.122-.03.052-.057.093-.085.133l.004-.006c-.026.039-.051.079-.08.117a1.94 1.94 0 0 1-.104.124l.002-.002c-.032.037-.062.074-.097.11-.038.04-.081.079-.123.117a3.693 3.693 0 0 1-.112.103c-.044.038-.093.074-.141.11-.042.032-.083.065-.127.096-.05.035-.105.068-.158.102-.047.03-.092.06-.141.088-.056.033-.115.062-.174.093-.052.027-.101.055-.155.08-.061.029-.126.056-.19.084-.054.024-.107.048-.164.07-.067.027-.138.05-.208.075-.056.02-.111.041-.169.06-.072.023-.148.043-.222.064-.059.017-.117.035-.177.05-.078.02-.158.035-.237.052-.06.013-.119.028-.18.038-.086.016-.175.028-.262.041-.057.009-.113.019-.171.026-.098.012-.198.02-.298.028l-.149.014a7.908 7.908 0 0 1-.939-.002l.022.001c-.05-.003-.099-.009-.149-.014-.1-.008-.201-.016-.298-.028-.058-.007-.114-.017-.171-.026-.088-.013-.176-.025-.262-.041-.061-.011-.119-.026-.18-.038-.08-.017-.16-.033-.238-.053-.06-.015-.117-.033-.176-.049-.075-.021-.151-.041-.223-.065-.058-.018-.113-.04-.169-.06-.07-.025-.14-.048-.208-.075-.056-.022-.109-.047-.164-.07-.063-.028-.129-.055-.19-.084-.053-.026-.103-.054-.155-.08-.059-.031-.118-.061-.174-.093-.049-.028-.094-.059-.141-.088-.053-.034-.108-.067-.158-.102a3.016 3.016 0 0 1-.127-.096c-.048-.036-.097-.072-.141-.11-.04-.034-.075-.068-.112-.103a2.732 2.732 0 0 1-.123-.117c-.034-.036-.065-.073-.097-.11-.035-.041-.07-.081-.102-.123-.029-.038-.054-.077-.08-.116-.028-.042-.057-.085-.081-.127-.023-.04-.041-.081-.061-.122a1.283 1.283 0 0 1-.055-.12l-.005-.013c-.016-.041-.028-.084-.04-.126a1.297 1.297 0 0 1-.036-.136c-.009-.043-.014-.087-.019-.13a1.386 1.386 0 0 1-.008-.085v-.005c.023.021.051.04.075.061.081.07.165.138.252.203zm3.566-6.292a9.313 9.313 0 0 0-.614.069l.055-.006a6.08 6.08 0 0 0-.335.056l.049-.008c-.085.016-.169.031-.252.049-.093.02-.183.042-.273.066a5.98 5.98 0 0 0-.545.16l.045-.013-.029.009c.368-1.771-.394-3.293-.434-3.371l-.106-.207-.223-.066c-.466-.136-1.538.064-2.175.507a3.207 3.207 0 0 0-1.772-.528h-.001c-.853 0-1.364.601-1.637.924-.044.052-.082.1-.118.137a.726.726 0 0 1-.18.023c-.233-.008-.455-.114-.645-.324l-1.693-1.858c.103-.114.204-.231.314-.337.048-.047.099-.091.149-.136a6.49 6.49 0 0 1 1.06-.779c.062-.036.121-.078.184-.112.168-.094.376-.195.59-.284l.043-.016c.08-.033.163-.06.245-.089a6.31 6.31 0 0 1 1.199-.313l.036-.005c.08-.012.158-.027.239-.036.249-.029.502-.048.758-.048s.509.019.759.048c.08.009.159.024.239.036.302.046.562.104.816.177l-.046-.011c.157.044.312.097.465.152.081.03.164.056.245.089.216.089.428.188.633.3.063.035.122.075.184.112.15.089.299.182.442.283.072.051.142.105.212.158.139.107.275.22.406.338.05.045.101.089.149.136.37.357.697.755.976 1.188l.016.026a6.398 6.398 0 0 1 1.014 3.475v.004c-.056.002-.111.008-.167.01a8.04 8.04 0 0 0-.271.017zM5.424 21.037c.007.008.016.014.023.021.19.192.388.375.598.546.074.061.152.113.228.171.138.105.277.208.423.304.101.066.204.126.309.188.329.2.71.387 1.108.539l.049.016c.111.042.222.086.335.123.16.053.324.095.489.137.102.026.202.057.305.079.26.054.524.097.793.124.089.009.18.008.269.014.164.011.328.026.496.026.026 0 .053-.004.08-.005.15-.002.302-.017.453-.028.141-.01.281-.017.424-.036.043-.005.086-.005.129-.011v4.419H8.67a3.535 3.535 0 0 0-3.231-3.243l-.013-.001v-3.38zm18.44-19.952v8.177a8.17 8.17 0 0 0-.59.074l.047-.006V1.086h.542zm-1.627 0v8.494a6.646 6.646 0 0 0-.542.193V1.085h.542zm-1.627 0v9.252c-.203.138-.38.28-.545.434l.003-.003V1.084h.542zM2.712 30.373V1.085h16.271v14.753h-.002a7.524 7.524 0 0 0-.508-.065l-.035-.003.002-.041a7.537 7.537 0 0 0-1.085-3.891V5.901l-.592.054a2.444 2.444 0 0 1-2.662-2.43c0-.075.005-.15.011-.223l.053-.59H7.529l.053.59a2.444 2.444 0 0 1-2.651 2.653l-.592-.054v5.937c-.154.248-.31.541-.446.845l-.02.049c-.027.061-.048.124-.073.185a7.354 7.354 0 0 0-.175.477c-.022.068-.041.136-.061.204a6.863 6.863 0 0 0-.244 1.173l-.003.035c-.008.068-.019.135-.026.204-.023.238-.037.477-.037.719s.014.481.036.719c.006.069.017.136.026.204a7.228 7.228 0 0 0 .261 1.26l-.014-.052.061.204c.052.161.112.319.175.477.025.062.047.125.073.186.156.352.312.645.485.927l-.019-.033v5.937l.592-.054a2.444 2.444 0 0 1 2.651 2.653l-.053.59h4.462c.01.046.022.091.034.136a2.329 2.329 0 0 0 .096.293c.167.437.44.841.809 1.199H2.712zm12.135-.026a5.468 5.468 0 0 1-.406-.203l.028.014a4.45 4.45 0 0 1-.136-.082 3.857 3.857 0 0 1-.365-.25l.009.007c-.037-.029-.078-.056-.113-.086-.05-.042-.094-.085-.14-.129a3.677 3.677 0 0 1-.126-.123l-.001-.001a2.841 2.841 0 0 1-.219-.266l-.006-.008a1.976 1.976 0 0 1-.182-.304l-.005-.012c-.012-.025-.027-.049-.037-.074a1.667 1.667 0 0 1-.09-.277l-.002-.012c-.005-.025-.007-.051-.011-.076a1.443 1.443 0 0 1-.017-.162v-.004c.023.021.05.039.073.06a4.192 4.192 0 0 0 .4.312c.095.067.196.13.299.191.048.029.093.059.143.086.154.086.313.168.481.243l.018.007c.163.072.332.138.506.198.059.021.121.038.182.058a7.336 7.336 0 0 0 .931.234l.053.008c.175.034.4.066.627.087l.029.002c.068.006.136.015.204.02a8.393 8.393 0 0 0 1.337-.001l-.029.002c.069-.005.136-.014.205-.02.145-.014.288-.03.428-.051.077-.011.152-.025.228-.038a7.606 7.606 0 0 0 1.038-.258l-.054.015c.061-.02.123-.037.182-.058a6.95 6.95 0 0 0 .504-.197l.02-.008c.168-.075.327-.157.481-.243.049-.028.095-.058.143-.086.102-.062.203-.125.298-.191a5.739 5.739 0 0 0 .4-.313c.023-.021.05-.038.073-.06a1.644 1.644 0 0 1-.018.169l-.006.042a1.915 1.915 0 0 1-.097.31l.004-.012-.001.003c-.146.361-.42.7-.801 1l-.033.024a3.911 3.911 0 0 1-.354.242l-.018.01c-.027.016-.051.034-.079.049l-.011.006c-.835.476-1.965.773-3.188.773-1.034 0-2-.215-2.78-.568zm9.831.568a6.924 6.924 0 0 1-2.471-.436c.283-.255.521-.534.701-.835l.029.005c.251.053.506.093.764.122l.171.017c.266.025.534.042.805.042.222 0 .439-.01.654-.026.069-.005.136-.014.205-.02.145-.014.288-.03.428-.051.077-.011.152-.025.228-.038a7.606 7.606 0 0 0 1.038-.258l-.054.015c.061-.02.123-.037.182-.058a6.95 6.95 0 0 0 .504-.197l.02-.008c.168-.075.327-.157.481-.243.049-.028.095-.058.143-.086.102-.062.203-.125.298-.191a5.739 5.739 0 0 0 .4-.313c.026-.023.056-.043.081-.066-.082 1.43-2.159 2.622-4.607 2.622z"/></symbol></defs></svg>