<svg xmlns="http://www.w3.org/2000/svg" xml:space="preserve" width="59.998" height="59.998" style="enable-background:new 0 0 59.998 59.998"><path d="M54.613 38.998H38.999v-6h-4v-6.242c0-2.138.922-4.146 2.466-5.374a11.923 11.923 0 0 0 4.534-9.384c0-3.416-1.463-6.68-4.013-8.955A12.055 12.055 0 0 0 28.592.079c-5.353.609-9.761 4.922-10.481 10.254-.57 4.224 1.057 8.333 4.353 10.993 1.587 1.281 2.535 3.38 2.535 5.613v6.059h-4v6H5.385a2.389 2.389 0 0 0-2.386 2.386v11.229a2.389 2.389 0 0 0 2.386 2.386h.705c.478 2.833 2.942 5 5.91 5h36c2.967 0 5.431-2.167 5.91-5h.705a2.389 2.389 0 0 0 2.386-2.386V41.384a2.392 2.392 0 0 0-2.388-2.386zM23.72 19.77c-2.747-2.217-4.103-5.645-3.626-9.169.6-4.438 4.27-8.026 8.726-8.535 2.899-.326 5.681.547 7.835 2.47A10.01 10.01 0 0 1 40 11.999a9.935 9.935 0 0 1-3.778 7.818C34.174 21.445 33 23.974 33 26.756v6.242h-6V26.94c-.001-2.874-1.196-5.488-3.28-7.17zm-.721 15.228h14v4h-14v-4zm25 23h-36a4.005 4.005 0 0 1-3.873-3h43.746a4.004 4.004 0 0 1-3.873 3zm7-5.385a.386.386 0 0 1-.386.386H5.385a.386.386 0 0 1-.386-.386V41.384c0-.213.173-.386.386-.386H54.613c.213 0 .386.173.386.386v11.229z"/></svg>