<svg aria-hidden="true" style="position: absolute; width: 0; height: 0; overflow: hidden;" version="1.1" xmlns="http://www.w3.org/2000/svg" xmlns:xlink="http://www.w3.org/1999/xlink">
<defs>
<symbol id="icon-variant-logo-01" viewBox="0 0 219 32">
<path fill="#2e3e98" style="fill: var(--color1, #2e3e98)" d="M41.639 5.59h-6.94v1.799c0 10.988-7.582 17.221-18.57 17.221-10.088 0-16.128-5.59-16.128-13.88 0-6.683 4.241-10.731 11.181-10.731 4.691 0 8.739 2.442 8.739 6.94 0 6.875-7.454 9.382-11.759 10.281 1.606 1.478 4.177 2.249 7.904 2.249 7.582 0 12.53-4.048 12.53-12.080v-1.799h-6.875v-4.948h19.92v4.948zM5.976 13.108c2.185-0.386 7.904-1.735 7.904-5.719 0-1.992-1.799-2.699-3.149-2.699-2.699 0-4.948 1.992-4.948 5.847 0.064 0.9 0.064 1.799 0.193 2.57z"></path>
<path fill="#2e3e98" style="fill: var(--color1, #2e3e98)" d="M43.438 0.643h11.181c6.040 0 9.189 1.992 9.189 6.297 0 3.791-3.598 4.691-3.598 4.691v0.193c0 0 4.241 0.9 4.241 5.398s-2.892 6.747-9.189 6.747h-11.823v-23.325zM54.169 10.088c2.249 0 3.341-0.9 3.341-2.442 0-1.606-0.9-2.506-2.892-2.506h-4.948v4.948h4.498zM49.671 14.072v5.398h5.398c1.992 0 3.149-0.9 3.149-2.699s-1.349-2.699-3.598-2.699h-4.948z"></path>
<path fill="#2e3e98" style="fill: var(--color1, #2e3e98)" d="M66.442 7.839c0.386-5.976 5.141-7.839 10.538-7.839 5.59 0 10.088 1.992 10.088 8.032v15.871h-6.297v-4.498h-0.193c0 0-1.414 5.141-7.39 5.141-4.241 0-7.39-1.992-7.39-6.297 0-4.369 3.598-6.297 7.454-7.325 3.92-0.964 7.582-1.285 7.582-3.92 0-1.863-1.349-2.892-3.791-2.892-2.699 0-4.177 1.092-4.241 3.598h-6.361zM75.823 14.072c-1.992 0.514-3.727 1.542-3.727 3.598 0 1.799 1.285 2.892 3.277 2.892 4.241 0 5.398-4.948 5.398-8.353-1.028 0.964-3.149 1.414-4.948 1.863z"></path>
<path fill="#2e3e98" style="fill: var(--color1, #2e3e98)" d="M89.253 0.643h6.040v3.149h0.193c0 0 1.992-3.791 7.133-3.791 6.683 0 10.088 5.847 10.088 12.337s-3.341 12.337-10.088 12.337c-4.948 0-6.94-3.149-6.94-3.149h-0.193v10.538h-6.297v-31.422zM100.948 19.92c3.791 0 5.59-3.406 5.59-7.582 0-4.241-1.799-7.582-5.59-7.582s-5.59 3.406-5.59 7.582c-0.064 4.177 1.735 7.582 5.59 7.582z"></path>
<path fill="#2e3e98" style="fill: var(--color1, #2e3e98)" d="M136.482 23.968h-6.040v-3.791h-0.193c0 0-1.992 4.498-7.133 4.498-6.49 0-8.289-4.241-8.289-9.639v-14.394h6.297v12.98c0 4.048 1.092 5.847 4.048 5.847 3.341 0 5.141-1.992 5.141-6.747v-12.080h6.297v23.325z"></path>
<path fill="#2e3e98" style="fill: var(--color1, #2e3e98)" d="M138.924 7.839c0.386-5.976 5.141-7.839 10.538-7.839 5.59 0 10.088 1.992 10.088 8.032v15.871h-6.297v-4.498h-0.193c0 0-1.414 5.141-7.39 5.141-4.241 0-7.39-1.992-7.39-6.297 0-4.369 3.598-6.297 7.454-7.325 3.92-0.964 7.582-1.285 7.582-3.92 0-1.863-1.349-2.892-3.791-2.892-2.699 0-4.177 1.092-4.241 3.598h-6.361zM148.369 14.072c-1.992 0.514-3.727 1.542-3.727 3.598 0 1.799 1.285 2.892 3.277 2.892 4.241 0 5.398-4.948 5.398-8.353-1.092 0.964-3.149 1.414-4.948 1.863z"></path>
<path fill="#2e3e98" style="fill: var(--color1, #2e3e98)" d="M176.771 14.779h-8.739v9.189h-6.297v-23.325h6.297v9.189h8.739v-9.189h6.297v23.261h-6.297v-9.124z"></path>
<path fill="#2e3e98" style="fill: var(--color1, #2e3e98)" d="M198.94 10.988c0-4.048-0.835-5.847-3.277-5.847-2.699 0-4.112 1.992-4.112 6.683v12.080h-6.297v-23.261h6.040v3.855h0.193c0 0 1.542-4.498 6.297-4.498 3.791 0 5.783 1.799 6.683 4.498l0.064-0.064h0.193c0 0 1.992-4.498 6.747-4.498 5.847 0 7.39 4.241 7.39 9.639v14.329h-6.297v-12.916c0-4.048-0.835-5.847-3.277-5.847-2.699 0-4.112 1.992-4.112 6.683v12.080h-6.297v-12.916z"></path>
</symbol>
<symbol id="icon-variant-logo-02" viewBox="0 0 182 32">
<path d="M40.739 13.328h-6.79v1.76c0 10.751-7.418 16.849-18.169 16.849-9.87 0.063-15.78-5.47-15.78-13.517 0-6.601 4.149-10.499 10.939-10.499 4.589 0 8.55 2.389 8.55 6.79 0 6.727-7.293 9.179-11.505 10.059 1.572 1.446 4.086 2.2 7.733 2.2 7.418 0 12.259-3.961 12.259-11.819v-1.76h-6.727v-4.841h19.489v4.778zM5.847 20.747c2.138-0.377 7.733-1.697 7.733-5.595 0-1.949-1.76-2.64-3.081-2.64-2.64 0-4.841 1.949-4.841 5.721 0.063 0.88 0.063 1.697 0.189 2.515z"></path>
<path d="M57.336 31.308h-7.796l-7.733-22.758h6.601l5.281 17.289 5.281-17.289h6.224l-7.859 22.758z"></path>
<path d="M65.32 15.528c0.377-5.847 5.029-7.67 10.31-7.67 5.47 0 9.87 1.949 9.87 7.859v15.528h-6.161v-4.401h-0.189c0 0-1.383 5.029-7.23 5.029-4.149 0-7.23-1.949-7.23-6.161 0-4.275 3.521-6.161 7.293-7.167 3.835-0.943 7.418-1.257 7.418-3.835 0-1.823-1.32-2.829-3.709-2.829-2.64 0-4.086 1.069-4.149 3.521h-6.224zM74.499 21.69c-1.949 0.503-3.646 1.509-3.646 3.521 0 1.76 1.257 2.829 3.206 2.829 4.149 0 5.281-4.841 5.281-8.173-1.006 0.88-3.081 1.383-4.841 1.823z"></path>
<path d="M87.638 8.55h6.161v4.841h3.081c2.64 0 3.521 0 3.521-2.829v-1.949h6.161v2.64c0 5.029-1.76 6.538-8.11 6.538h-4.589v13.58h-6.161v-22.821z"></path>
<path d="M111.277 0c1.949 0 3.521 1.572 3.521 3.521s-1.572 3.521-3.521 3.521c-1.949 0-3.521-1.572-3.521-3.521s1.635-3.521 3.521-3.521zM114.358 31.308h-6.161v-22.758h6.161v22.758z"></path>
<path d="M116.747 15.528c0.377-5.847 5.029-7.67 10.31-7.67 5.47 0 9.87 1.949 9.87 7.859v15.528h-6.161v-4.401h-0.189c0 0-1.383 5.029-7.23 5.029-4.149 0-7.23-1.949-7.23-6.161 0-4.275 3.521-6.161 7.293-7.167 3.835-0.943 7.418-1.257 7.418-3.835 0-1.823-1.32-2.829-3.709-2.829-2.64 0-4.086 1.069-4.149 3.521h-6.224zM125.988 21.69c-1.949 0.503-3.646 1.509-3.646 3.521 0 1.76 1.257 2.829 3.206 2.829 4.149 0 5.281-4.841 5.281-8.173-1.069 0.88-3.081 1.383-4.841 1.823z"></path>
<path d="M139.128 8.55h5.91v3.709h0.189c0 0 1.949-4.401 6.978-4.401 6.35 0 8.11 4.149 8.11 9.43v14.020h-6.161v-12.699c0-3.961-1.069-5.721-3.961-5.721-3.269 0-5.029 1.949-5.029 6.538v11.819h-6.161v-22.695z"></path>
<path d="M182.004 8.55v4.841h-7.418v10.751c0 1.949 0.629 2.64 2.64 2.64 1.32 0 1.949-0.189 1.949-0.189v4.589c0 0-1.069 0.44-3.709 0.44-4.149 0-6.978-1.069-6.978-6.35v-11.945h-6.978v-4.841h20.495z"></path>
</symbol>
<symbol id="icon-variant-logo-03" viewBox="0 0 219 32">
<path fill="#eeefe2" style="fill: var(--color2, #eeefe2)" d="M41.639 5.59h-6.94v1.799c0 10.988-7.582 17.221-18.57 17.221-10.088 0-16.128-5.59-16.128-13.88 0-6.683 4.241-10.731 11.181-10.731 4.691 0 8.739 2.442 8.739 6.94 0 6.875-7.454 9.382-11.759 10.281 1.606 1.478 4.177 2.249 7.904 2.249 7.582 0 12.53-4.048 12.53-12.080v-1.799h-6.875v-4.948h19.92v4.948zM5.976 13.108c2.185-0.386 7.904-1.735 7.904-5.719 0-1.992-1.799-2.699-3.149-2.699-2.699 0-4.948 1.992-4.948 5.847 0.064 0.9 0.064 1.799 0.193 2.57z"></path>
<path fill="#eeefe2" style="fill: var(--color2, #eeefe2)" d="M43.438 0.643h11.181c6.040 0 9.189 1.992 9.189 6.297 0 3.791-3.598 4.691-3.598 4.691v0.193c0 0 4.241 0.9 4.241 5.398s-2.892 6.747-9.189 6.747h-11.823v-23.325zM54.169 10.088c2.249 0 3.341-0.9 3.341-2.442 0-1.606-0.9-2.506-2.892-2.506h-4.948v4.948h4.498zM49.671 14.072v5.398h5.398c1.992 0 3.149-0.9 3.149-2.699s-1.349-2.699-3.598-2.699h-4.948z"></path>
<path fill="#eeefe2" style="fill: var(--color2, #eeefe2)" d="M66.442 7.839c0.386-5.976 5.141-7.839 10.538-7.839 5.59 0 10.088 1.992 10.088 8.032v15.871h-6.297v-4.498h-0.193c0 0-1.414 5.141-7.39 5.141-4.241 0-7.39-1.992-7.39-6.297 0-4.369 3.598-6.297 7.454-7.325 3.92-0.964 7.582-1.285 7.582-3.92 0-1.863-1.349-2.892-3.791-2.892-2.699 0-4.177 1.092-4.241 3.598h-6.361zM75.823 14.072c-1.992 0.514-3.727 1.542-3.727 3.598 0 1.799 1.285 2.892 3.277 2.892 4.241 0 5.398-4.948 5.398-8.353-1.028 0.964-3.149 1.414-4.948 1.863z"></path>
<path fill="#eeefe2" style="fill: var(--color2, #eeefe2)" d="M89.253 0.643h6.040v3.149h0.193c0 0 1.992-3.791 7.133-3.791 6.683 0 10.088 5.847 10.088 12.337s-3.341 12.337-10.088 12.337c-4.948 0-6.94-3.149-6.94-3.149h-0.193v10.538h-6.297v-31.422zM100.948 19.92c3.791 0 5.59-3.406 5.59-7.582 0-4.241-1.799-7.582-5.59-7.582s-5.59 3.406-5.59 7.582c-0.064 4.177 1.735 7.582 5.59 7.582z"></path>
<path fill="#eeefe2" style="fill: var(--color2, #eeefe2)" d="M136.482 23.968h-6.040v-3.791h-0.193c0 0-1.992 4.498-7.133 4.498-6.49 0-8.289-4.241-8.289-9.639v-14.394h6.297v12.98c0 4.048 1.092 5.847 4.048 5.847 3.341 0 5.141-1.992 5.141-6.747v-12.080h6.297v23.325z"></path>
<path fill="#eeefe2" style="fill: var(--color2, #eeefe2)" d="M138.924 7.839c0.386-5.976 5.141-7.839 10.538-7.839 5.59 0 10.088 1.992 10.088 8.032v15.871h-6.297v-4.498h-0.193c0 0-1.414 5.141-7.39 5.141-4.241 0-7.39-1.992-7.39-6.297 0-4.369 3.598-6.297 7.454-7.325 3.92-0.964 7.582-1.285 7.582-3.92 0-1.863-1.349-2.892-3.791-2.892-2.699 0-4.177 1.092-4.241 3.598h-6.361zM148.369 14.072c-1.992 0.514-3.727 1.542-3.727 3.598 0 1.799 1.285 2.892 3.277 2.892 4.241 0 5.398-4.948 5.398-8.353-1.092 0.964-3.149 1.414-4.948 1.863z"></path>
<path fill="#eeefe2" style="fill: var(--color2, #eeefe2)" d="M176.771 14.779h-8.739v9.189h-6.297v-23.325h6.297v9.189h8.739v-9.189h6.297v23.261h-6.297v-9.124z"></path>
<path fill="#eeefe2" style="fill: var(--color2, #eeefe2)" d="M198.94 10.988c0-4.048-0.835-5.847-3.277-5.847-2.699 0-4.112 1.992-4.112 6.683v12.080h-6.297v-23.261h6.040v3.855h0.193c0 0 1.542-4.498 6.297-4.498 3.791 0 5.783 1.799 6.683 4.498l0.064-0.064h0.193c0 0 1.992-4.498 6.747-4.498 5.847 0 7.39 4.241 7.39 9.639v14.329h-6.297v-12.916c0-4.048-0.835-5.847-3.277-5.847-2.699 0-4.112 1.992-4.112 6.683v12.080h-6.297v-12.916z"></path>
</symbol>
<symbol id="icon-variant-logo-04" viewBox="0 0 182 32">
<path fill="#2e3e98" style="fill: var(--color1, #2e3e98)" d="M40.739 13.328h-6.79v1.76c0 10.751-7.418 16.849-18.169 16.849-9.87 0.063-15.78-5.47-15.78-13.517 0-6.601 4.149-10.499 10.939-10.499 4.589 0 8.55 2.389 8.55 6.79 0 6.727-7.293 9.179-11.505 10.059 1.572 1.446 4.086 2.2 7.733 2.2 7.418 0 12.259-3.961 12.259-11.819v-1.76h-6.727v-4.841h19.489v4.778zM5.847 20.747c2.138-0.377 7.733-1.697 7.733-5.595 0-1.949-1.76-2.64-3.081-2.64-2.64 0-4.841 1.949-4.841 5.721 0.063 0.88 0.063 1.697 0.189 2.515z"></path>
<path fill="#2e3e98" style="fill: var(--color1, #2e3e98)" d="M57.336 31.308h-7.796l-7.733-22.758h6.601l5.281 17.289 5.281-17.289h6.224l-7.859 22.758z"></path>
<path fill="#2e3e98" style="fill: var(--color1, #2e3e98)" d="M65.32 15.528c0.377-5.847 5.029-7.67 10.31-7.67 5.47 0 9.87 1.949 9.87 7.859v15.528h-6.161v-4.401h-0.189c0 0-1.383 5.029-7.23 5.029-4.149 0-7.23-1.949-7.23-6.161 0-4.275 3.521-6.161 7.293-7.167 3.835-0.943 7.418-1.257 7.418-3.835 0-1.823-1.32-2.829-3.709-2.829-2.64 0-4.086 1.069-4.149 3.521h-6.224zM74.499 21.69c-1.949 0.503-3.646 1.509-3.646 3.521 0 1.76 1.257 2.829 3.206 2.829 4.149 0 5.281-4.841 5.281-8.173-1.006 0.88-3.081 1.383-4.841 1.823z"></path>
<path fill="#2e3e98" style="fill: var(--color1, #2e3e98)" d="M87.638 8.55h6.161v4.841h3.081c2.64 0 3.521 0 3.521-2.829v-1.949h6.161v2.64c0 5.029-1.76 6.538-8.11 6.538h-4.589v13.58h-6.161v-22.821z"></path>
<path fill="#2e3e98" style="fill: var(--color1, #2e3e98)" d="M111.277 0c1.949 0 3.521 1.572 3.521 3.521s-1.572 3.521-3.521 3.521c-1.949 0-3.521-1.572-3.521-3.521s1.635-3.521 3.521-3.521zM114.358 31.308h-6.161v-22.758h6.161v22.758z"></path>
<path fill="#2e3e98" style="fill: var(--color1, #2e3e98)" d="M116.747 15.528c0.377-5.847 5.029-7.67 10.31-7.67 5.47 0 9.87 1.949 9.87 7.859v15.528h-6.161v-4.401h-0.189c0 0-1.383 5.029-7.23 5.029-4.149 0-7.23-1.949-7.23-6.161 0-4.275 3.521-6.161 7.293-7.167 3.835-0.943 7.418-1.257 7.418-3.835 0-1.823-1.32-2.829-3.709-2.829-2.64 0-4.086 1.069-4.149 3.521h-6.224zM125.988 21.69c-1.949 0.503-3.646 1.509-3.646 3.521 0 1.76 1.257 2.829 3.206 2.829 4.149 0 5.281-4.841 5.281-8.173-1.069 0.88-3.081 1.383-4.841 1.823z"></path>
<path fill="#2e3e98" style="fill: var(--color1, #2e3e98)" d="M139.128 8.55h5.91v3.709h0.189c0 0 1.949-4.401 6.978-4.401 6.35 0 8.11 4.149 8.11 9.43v14.020h-6.161v-12.699c0-3.961-1.069-5.721-3.961-5.721-3.269 0-5.029 1.949-5.029 6.538v11.819h-6.161v-22.695z"></path>
<path fill="#2e3e98" style="fill: var(--color1, #2e3e98)" d="M182.004 8.55v4.841h-7.418v10.751c0 1.949 0.629 2.64 2.64 2.64 1.32 0 1.949-0.189 1.949-0.189v4.589c0 0-1.069 0.44-3.709 0.44-4.149 0-6.978-1.069-6.978-6.35v-11.945h-6.978v-4.841h20.495z"></path>
</symbol>
<symbol id="icon-variant-logo-05" viewBox="0 0 219 32">
<path d="M41.639 5.59h-6.94v1.799c0 10.988-7.582 17.221-18.57 17.221-10.088 0-16.128-5.59-16.128-13.88 0-6.683 4.241-10.731 11.181-10.731 4.691 0 8.739 2.442 8.739 6.94 0 6.875-7.454 9.382-11.759 10.281 1.606 1.478 4.177 2.249 7.904 2.249 7.582 0 12.53-4.048 12.53-12.080v-1.799h-6.875v-4.948h19.92v4.948zM5.976 13.108c2.185-0.386 7.904-1.735 7.904-5.719 0-1.992-1.799-2.699-3.149-2.699-2.699 0-4.948 1.992-4.948 5.847 0.064 0.9 0.064 1.799 0.193 2.57z"></path>
<path d="M43.438 0.643h11.181c6.040 0 9.189 1.992 9.189 6.297 0 3.791-3.598 4.691-3.598 4.691v0.193c0 0 4.241 0.9 4.241 5.398s-2.892 6.747-9.189 6.747h-11.823v-23.325zM54.169 10.088c2.249 0 3.341-0.9 3.341-2.442 0-1.606-0.9-2.506-2.892-2.506h-4.948v4.948h4.498zM49.671 14.072v5.398h5.398c1.992 0 3.149-0.9 3.149-2.699s-1.349-2.699-3.598-2.699h-4.948z"></path>
<path d="M66.442 7.839c0.386-5.976 5.141-7.839 10.538-7.839 5.59 0 10.088 1.992 10.088 8.032v15.871h-6.297v-4.498h-0.193c0 0-1.414 5.141-7.39 5.141-4.241 0-7.39-1.992-7.39-6.297 0-4.369 3.598-6.297 7.454-7.325 3.92-0.964 7.582-1.285 7.582-3.92 0-1.863-1.349-2.892-3.791-2.892-2.699 0-4.177 1.092-4.241 3.598h-6.361zM75.823 14.072c-1.992 0.514-3.727 1.542-3.727 3.598 0 1.799 1.285 2.892 3.277 2.892 4.241 0 5.398-4.948 5.398-8.353-1.028 0.964-3.149 1.414-4.948 1.863z"></path>
<path d="M89.253 0.643h6.040v3.149h0.193c0 0 1.992-3.791 7.133-3.791 6.683 0 10.088 5.847 10.088 12.337s-3.341 12.337-10.088 12.337c-4.948 0-6.94-3.149-6.94-3.149h-0.193v10.538h-6.297v-31.422zM100.948 19.92c3.791 0 5.59-3.406 5.59-7.582 0-4.241-1.799-7.582-5.59-7.582s-5.59 3.406-5.59 7.582c-0.064 4.177 1.735 7.582 5.59 7.582z"></path>
<path d="M136.482 23.968h-6.040v-3.791h-0.193c0 0-1.992 4.498-7.133 4.498-6.49 0-8.289-4.241-8.289-9.639v-14.394h6.297v12.98c0 4.048 1.092 5.847 4.048 5.847 3.341 0 5.141-1.992 5.141-6.747v-12.080h6.297v23.325z"></path>
<path d="M138.924 7.839c0.386-5.976 5.141-7.839 10.538-7.839 5.59 0 10.088 1.992 10.088 8.032v15.871h-6.297v-4.498h-0.193c0 0-1.414 5.141-7.39 5.141-4.241 0-7.39-1.992-7.39-6.297 0-4.369 3.598-6.297 7.454-7.325 3.92-0.964 7.582-1.285 7.582-3.92 0-1.863-1.349-2.892-3.791-2.892-2.699 0-4.177 1.092-4.241 3.598h-6.361zM148.369 14.072c-1.992 0.514-3.727 1.542-3.727 3.598 0 1.799 1.285 2.892 3.277 2.892 4.241 0 5.398-4.948 5.398-8.353-1.092 0.964-3.149 1.414-4.948 1.863z"></path>
<path d="M176.771 14.779h-8.739v9.189h-6.297v-23.325h6.297v9.189h8.739v-9.189h6.297v23.261h-6.297v-9.124z"></path>
<path d="M198.94 10.988c0-4.048-0.835-5.847-3.277-5.847-2.699 0-4.112 1.992-4.112 6.683v12.080h-6.297v-23.261h6.040v3.855h0.193c0 0 1.542-4.498 6.297-4.498 3.791 0 5.783 1.799 6.683 4.498l0.064-0.064h0.193c0 0 1.992-4.498 6.747-4.498 5.847 0 7.39 4.241 7.39 9.639v14.329h-6.297v-12.916c0-4.048-0.835-5.847-3.277-5.847-2.699 0-4.112 1.992-4.112 6.683v12.080h-6.297v-12.916z"></path>
</symbol>
<symbol id="icon-variant-logo-06" viewBox="0 0 182 32">
<path fill="#eeefe2" style="fill: var(--color2, #eeefe2)" d="M40.739 13.328h-6.79v1.76c0 10.751-7.418 16.849-18.169 16.849-9.87 0.063-15.78-5.47-15.78-13.517 0-6.601 4.149-10.499 10.939-10.499 4.589 0 8.55 2.389 8.55 6.79 0 6.727-7.293 9.179-11.505 10.059 1.572 1.446 4.086 2.2 7.733 2.2 7.418 0 12.259-3.961 12.259-11.819v-1.76h-6.727v-4.841h19.489v4.778zM5.847 20.747c2.138-0.377 7.733-1.697 7.733-5.595 0-1.949-1.76-2.64-3.081-2.64-2.64 0-4.841 1.949-4.841 5.721 0.063 0.88 0.063 1.697 0.189 2.515z"></path>
<path fill="#eeefe2" style="fill: var(--color2, #eeefe2)" d="M57.336 31.308h-7.796l-7.733-22.758h6.601l5.281 17.289 5.281-17.289h6.224l-7.859 22.758z"></path>
<path fill="#eeefe2" style="fill: var(--color2, #eeefe2)" d="M65.32 15.528c0.377-5.847 5.029-7.67 10.31-7.67 5.47 0 9.87 1.949 9.87 7.859v15.528h-6.161v-4.401h-0.189c0 0-1.383 5.029-7.23 5.029-4.149 0-7.23-1.949-7.23-6.161 0-4.275 3.521-6.161 7.293-7.167 3.835-0.943 7.418-1.257 7.418-3.835 0-1.823-1.32-2.829-3.709-2.829-2.64 0-4.086 1.069-4.149 3.521h-6.224zM74.499 21.69c-1.949 0.503-3.646 1.509-3.646 3.521 0 1.76 1.257 2.829 3.206 2.829 4.149 0 5.281-4.841 5.281-8.173-1.006 0.88-3.081 1.383-4.841 1.823z"></path>
<path fill="#eeefe2" style="fill: var(--color2, #eeefe2)" d="M87.638 8.55h6.161v4.841h3.081c2.64 0 3.521 0 3.521-2.829v-1.949h6.161v2.64c0 5.029-1.76 6.538-8.11 6.538h-4.589v13.58h-6.161v-22.821z"></path>
<path fill="#eeefe2" style="fill: var(--color2, #eeefe2)" d="M111.277 0c1.949 0 3.521 1.572 3.521 3.521s-1.572 3.521-3.521 3.521c-1.949 0-3.521-1.572-3.521-3.521s1.635-3.521 3.521-3.521zM114.358 31.308h-6.161v-22.758h6.161v22.758z"></path>
<path fill="#eeefe2" style="fill: var(--color2, #eeefe2)" d="M116.747 15.528c0.377-5.847 5.029-7.67 10.31-7.67 5.47 0 9.87 1.949 9.87 7.859v15.528h-6.161v-4.401h-0.189c0 0-1.383 5.029-7.23 5.029-4.149 0-7.23-1.949-7.23-6.161 0-4.275 3.521-6.161 7.293-7.167 3.835-0.943 7.418-1.257 7.418-3.835 0-1.823-1.32-2.829-3.709-2.829-2.64 0-4.086 1.069-4.149 3.521h-6.224zM125.988 21.69c-1.949 0.503-3.646 1.509-3.646 3.521 0 1.76 1.257 2.829 3.206 2.829 4.149 0 5.281-4.841 5.281-8.173-1.069 0.88-3.081 1.383-4.841 1.823z"></path>
<path fill="#eeefe2" style="fill: var(--color2, #eeefe2)" d="M139.128 8.55h5.91v3.709h0.189c0 0 1.949-4.401 6.978-4.401 6.35 0 8.11 4.149 8.11 9.43v14.020h-6.161v-12.699c0-3.961-1.069-5.721-3.961-5.721-3.269 0-5.029 1.949-5.029 6.538v11.819h-6.161v-22.695z"></path>
<path fill="#eeefe2" style="fill: var(--color2, #eeefe2)" d="M182.004 8.55v4.841h-7.418v10.751c0 1.949 0.629 2.64 2.64 2.64 1.32 0 1.949-0.189 1.949-0.189v4.589c0 0-1.069 0.44-3.709 0.44-4.149 0-6.978-1.069-6.978-6.35v-11.945h-6.978v-4.841h20.495z"></path>
</symbol>
</defs>
</svg>
