<?xml version="1.0" encoding="utf-8"?>
<!-- Generator: Adobe Illustrator 22.0.0, SVG Export Plug-In . SVG Version: 6.00 Build 0)  -->
<svg>
<style type="text/css">
	.st0{fill:#EEEFE2;}
	.st1{fill:#2E3E98;}
	.st2{fill:#141414;}
</style>
<g>
	<path class="st1" d="M64.8,8.7H54v2.8c0,17.1-11.8,26.8-28.9,26.8C9.4,38.3,0,29.6,0,16.7C0,6.3,6.6,0,17.4,0
		C24.7,0,31,3.8,31,10.8c0,10.7-11.6,14.6-18.3,16c2.5,2.3,6.5,3.5,12.3,3.5c11.8,0,19.5-6.3,19.5-18.8V8.7H33.8V1h31V8.7z
		 M9.3,20.4c3.4-0.6,12.3-2.7,12.3-8.9c0-3.1-2.8-4.2-4.9-4.2c-4.2,0-7.7,3.1-7.7,9.1C9.1,17.8,9.1,19.2,9.3,20.4z"/>
	<path class="st1" d="M67.6,1H85c9.4,0,14.3,3.1,14.3,9.8c0,5.9-5.6,7.3-5.6,7.3v0.3c0,0,6.6,1.4,6.6,8.4c0,7-4.5,10.5-14.3,10.5
		H67.6V1z M84.3,15.7c3.5,0,5.2-1.4,5.2-3.8C89.5,9.4,88.1,8,85,8h-7.7v7.7H84.3z M77.3,21.9v8.4h8.4c3.1,0,4.9-1.4,4.9-4.2
		s-2.1-4.2-5.6-4.2H77.3z"/>
	<path class="st1" d="M103.4,12.2C104,2.9,111.4,0,119.8,0c8.7,0,15.7,3.1,15.7,12.5v24.7h-9.8v-7h-0.3c0,0-2.2,8-11.5,8
		c-6.6,0-11.5-3.1-11.5-9.8c0-6.8,5.6-9.8,11.6-11.4c6.1-1.5,11.8-2,11.8-6.1c0-2.9-2.1-4.5-5.9-4.5c-4.2,0-6.5,1.7-6.6,5.6H103.4z
		 M118,21.9c-3.1,0.8-5.8,2.4-5.8,5.6c0,2.8,2,4.5,5.1,4.5c6.6,0,8.4-7.7,8.4-13C124.1,20.5,120.8,21.2,118,21.9z"/>
	<path class="st1" d="M138.9,1h9.4v4.9h0.3c0,0,3.1-5.9,11.1-5.9c10.4,0,15.7,9.1,15.7,19.2c0,10.1-5.2,19.2-15.7,19.2
		c-7.7,0-10.8-4.9-10.8-4.9h-0.3v16.4h-9.8V1z M157.1,31c5.9,0,8.7-5.3,8.7-11.8c0-6.6-2.8-11.8-8.7-11.8s-8.7,5.3-8.7,11.8
		C148.3,25.7,151.1,31,157.1,31z"/>
	<path class="st1" d="M212.4,37.3H203v-5.9h-0.3c0,0-3.1,7-11.1,7c-10.1,0-12.9-6.6-12.9-15V1h9.8v20.2c0,6.3,1.7,9.1,6.3,9.1
		c5.2,0,8-3.1,8-10.5V1h9.8V37.3z"/>
	<path class="st1" d="M216.2,12.2c0.6-9.3,8-12.2,16.4-12.2c8.7,0,15.7,3.1,15.7,12.5v24.7h-9.8v-7h-0.3c0,0-2.2,8-11.5,8
		c-6.6,0-11.5-3.1-11.5-9.8c0-6.8,5.6-9.8,11.6-11.4c6.1-1.5,11.8-2,11.8-6.1c0-2.9-2.1-4.5-5.9-4.5c-4.2,0-6.5,1.7-6.6,5.6H216.2z
		 M230.9,21.9c-3.1,0.8-5.8,2.4-5.8,5.6c0,2.8,2,4.5,5.1,4.5c6.6,0,8.4-7.7,8.4-13C236.9,20.5,233.7,21.2,230.9,21.9z"/>
	<path class="st1" d="M275.1,23h-13.6v14.3h-9.8V1h9.8v14.3h13.6V1h9.8v36.2h-9.8V23z"/>
	<path class="st1" d="M309.6,17.1c0-6.3-1.3-9.1-5.1-9.1c-4.2,0-6.4,3.1-6.4,10.4v18.8h-9.8V1h9.4V7h0.3c0,0,2.4-7,9.8-7
		c5.9,0,9,2.8,10.4,7l0.1-0.1h0.3c0,0,3.1-7,10.5-7c9.1,0,11.5,6.6,11.5,15v22.3h-9.8V17.1c0-6.3-1.3-9.1-5.1-9.1
		c-4.2,0-6.4,3.1-6.4,10.4v18.8h-9.8V17.1z"/>
</g>
</svg>
