<?xml version="1.0" standalone="no"?>
<!DOCTYPE svg PUBLIC "-//W3C//DTD SVG 20010904//EN"
 "http://www.w3.org/TR/2001/REC-SVG-20010904/DTD/svg10.dtd">
<svg version="1.0" xmlns="http://www.w3.org/2000/svg"
 width="1040.000000pt" height="1040.000000pt" viewBox="0 0 1040.000000 1040.000000"
 preserveAspectRatio="xMidYMid meet">
<metadata>
Created by potrace 1.14, written by Peter Selinger 2001-2017
</metadata>
<g transform="translate(0.000000,1040.000000) scale(0.100000,-0.100000)"
fill="#000000" stroke="none">
<path d="M2549 8266 c-2 -2 -44 -7 -94 -11 -49 -3 -103 -8 -120 -10 -16 -2
-52 -6 -80 -10 -57 -6 -103 -14 -125 -20 -8 -2 -31 -6 -50 -9 -63 -10 -94 -17
-195 -43 -55 -14 -104 -26 -110 -27 -5 -1 -14 -4 -20 -7 -5 -4 -43 -16 -84
-28 -122 -37 -424 -171 -481 -215 -8 -6 -26 -17 -40 -25 -14 -8 -34 -19 -44
-25 -11 -6 -25 -14 -30 -19 -6 -4 -47 -33 -91 -64 -44 -32 -85 -62 -91 -68 -6
-5 -30 -26 -54 -45 -54 -44 -181 -171 -240 -240 -50 -59 -170 -217 -170 -224
0 -2 -17 -31 -38 -63 -71 -107 -180 -336 -233 -490 -11 -32 -19 -60 -19 -63 0
-3 -9 -32 -19 -65 -26 -81 -73 -296 -86 -400 -4 -27 -9 -63 -11 -80 -14 -108
-18 -209 -18 -425 0 -278 9 -423 40 -605 3 -22 8 -49 9 -60 12 -70 18 -99 36
-175 12 -47 22 -92 24 -100 13 -67 103 -349 115 -365 5 -5 9 -14 10 -20 14
-68 164 -369 253 -510 59 -92 144 -214 164 -233 7 -7 13 -16 13 -20 0 -4 12
-21 28 -37 15 -17 52 -60 82 -95 71 -84 205 -218 300 -300 41 -36 77 -67 80
-70 19 -19 180 -137 255 -187 161 -107 411 -242 580 -313 268 -113 582 -211
825 -259 30 -6 66 -14 80 -17 38 -8 61 -12 100 -18 19 -3 49 -8 65 -11 60 -10
91 -15 140 -21 28 -3 61 -8 75 -9 14 -2 50 -6 80 -10 30 -3 73 -7 95 -10 168
-20 811 -28 1005 -12 194 15 278 23 355 32 22 3 56 7 75 10 62 7 285 43 325
52 11 2 29 5 40 7 11 2 47 9 80 16 33 7 67 14 75 15 8 2 15 4 15 5 0 1 7 3 16
5 55 10 243 59 289 75 48 16 123 38 155 46 11 2 120 41 150 54 11 4 85 34 165
66 159 64 373 167 520 252 129 75 380 241 380 253 0 5 5 9 11 9 8 0 128 90
165 125 6 5 40 35 75 65 266 230 532 550 723 870 112 189 259 492 291 600 4
14 11 30 15 35 4 6 10 22 14 37 3 15 11 40 18 55 6 15 12 30 13 33 1 3 4 12 7
20 11 28 56 185 68 235 7 28 15 57 18 65 3 8 6 17 7 20 2 9 26 116 31 146 3
16 7 34 8 39 12 52 27 126 30 155 3 19 7 46 10 60 2 14 7 48 11 75 3 28 8 64
11 80 2 17 6 50 9 75 2 25 6 70 9 100 15 150 18 243 21 579 2 323 4 366 18
370 9 3 399 6 867 5 l850 -1 0 619 0 618 -2487 -2 -2488 -3 -1 -605 c0 -333 1
-610 3 -616 3 -7 254 -10 854 -10 492 1 853 -3 856 -8 13 -21 4 -663 -12 -826
-12 -129 -16 -168 -20 -190 -3 -14 -7 -42 -9 -62 -5 -40 -21 -130 -41 -227
-45 -226 -155 -529 -271 -751 -60 -114 -193 -320 -206 -320 -4 0 -8 -6 -8 -12
0 -7 -15 -29 -33 -49 -17 -20 -50 -57 -71 -83 -69 -84 -219 -226 -314 -300
-15 -11 -32 -25 -39 -31 -30 -25 -43 -34 -138 -96 -109 -72 -177 -111 -300
-172 -85 -42 -336 -145 -370 -152 -11 -2 -21 -4 -22 -6 -2 -1 -6 -2 -10 -3 -5
-1 -41 -12 -82 -25 -41 -12 -81 -24 -90 -26 -9 -2 -36 -8 -61 -15 -25 -7 -54
-14 -65 -16 -11 -2 -31 -6 -45 -9 -143 -31 -346 -61 -475 -70 -33 -2 -60 -5
-60 -5 0 -12 -564 -17 -710 -7 -228 16 -374 31 -425 42 -14 3 -52 10 -85 15
-99 16 -127 21 -190 37 -33 8 -67 16 -75 17 -27 5 -103 28 -175 53 -38 14 -74
25 -80 27 -59 11 -285 123 -395 195 -47 31 -89 58 -94 60 -6 2 -19 13 -31 25
-12 12 -38 34 -59 51 l-37 30 28 7 c15 5 39 10 53 13 40 8 62 13 110 24 25 7
56 14 70 17 14 3 48 11 75 19 28 7 86 23 130 34 44 12 87 24 95 28 8 3 22 7
31 9 91 19 585 202 708 263 34 16 61 27 61 23 0 -4 4 -2 8 3 4 6 43 28 87 49
112 55 279 148 283 158 2 4 8 8 14 8 5 0 43 23 84 50 41 27 78 50 83 50 5 0
11 3 13 8 2 4 39 34 83 66 44 33 85 65 92 70 6 6 33 29 59 51 121 101 291 283
370 395 21 30 41 57 44 60 10 9 57 85 92 145 31 55 45 83 107 214 12 25 21 53
21 62 0 10 5 21 10 24 6 4 8 11 5 16 -4 5 -1 9 4 9 6 0 10 3 10 8 -1 4 0 10 1
15 1 4 4 12 5 17 1 6 3 11 5 13 1 1 3 9 5 17 7 28 14 55 33 135 21 84 33 149
38 200 1 17 3 30 4 30 4 0 13 174 13 260 0 136 -10 238 -33 351 -16 78 -16 77
-23 94 -3 8 -15 47 -27 85 -24 77 -117 278 -131 283 -5 2 -9 8 -9 14 0 9 -56
96 -69 108 -3 3 -25 30 -49 61 -47 62 -194 207 -257 254 -22 17 -48 37 -58 46
-9 9 -30 22 -45 30 -15 8 -29 17 -32 20 -16 17 -256 150 -280 154 -3 0 -21 8
-40 17 -69 31 -105 46 -130 53 -14 3 -34 10 -45 15 -16 7 -96 32 -180 56 -5 2
-26 6 -45 9 -19 4 -51 10 -70 15 -19 5 -51 12 -70 15 -19 3 -43 8 -53 11 -22
7 -48 11 -137 19 -36 4 -78 9 -95 12 -34 6 -541 14 -546 9z m291 -1180 c19 -3
50 -10 68 -15 17 -5 32 -8 32 -5 0 2 14 -2 30 -11 17 -9 30 -13 30 -10 0 3 19
-4 43 -16 23 -12 42 -20 42 -18 0 3 74 -38 130 -74 48 -29 146 -143 178 -205
39 -77 45 -96 65 -203 16 -85 4 -274 -23 -350 -8 -21 -12 -39 -10 -39 2 0 -7
-25 -21 -55 -13 -31 -24 -62 -24 -69 0 -8 -3 -16 -7 -18 -5 -1 -17 -21 -28
-43 -18 -36 -57 -92 -117 -169 -23 -30 -130 -138 -165 -166 -82 -68 -245 -180
-262 -180 -5 0 -11 -4 -13 -8 -12 -30 -498 -243 -608 -267 -8 -2 -28 -9 -45
-15 -16 -6 -37 -13 -46 -15 -9 -2 -49 -13 -89 -25 -40 -12 -80 -23 -89 -25 -9
-2 -52 -12 -96 -23 -44 -11 -93 -23 -110 -26 -16 -3 -52 -10 -80 -16 -27 -6
-66 -13 -85 -16 -19 -3 -38 -8 -41 -10 -13 -8 -30 171 -45 486 -14 282 -6 401
43 630 7 33 9 42 15 60 3 8 16 49 29 90 41 134 149 333 229 423 84 95 146 151
235 213 55 38 157 95 170 94 3 0 19 7 36 15 64 34 227 75 344 87 43 5 244 1
285 -6z"/>
</g>
</svg>
